<svg viewBox="0 -25 2009.9999999999995 1049.9999999999998" fill="none" xmlns="http://www.w3.org/2000/svg" xmlns:xlink="http://www.w3.org/1999/xlink" overflow="visible" width="2009.9999999999995px" height="1049.9999999999998px"><g id="Master/Background/Friendly Blocks"><g id="Background" transform="scale(1 1)"><g id="Background/Blobs"><mask id="mask0b0451c58-3b3f-45bf-8c4c-49403fd34737" mask-type="alpha" maskUnits="userSpaceOnUse" x="0" y="0" width="2010" height="1000"><rect id="Mask" width="2010" height="1000" fill="#e73cff"/></mask><g mask="url(#mask0b0451c58-3b3f-45bf-8c4c-49403fd34737)"><path id="Blob" opacity="0.45" fill-rule="evenodd" clip-rule="evenodd" d="M128.785 -61.6638C160.685 -49.6638 132.7 -97.7 146.7 -53.1C160.7 -8.5 166.2 42.8 147.8 85.2C129.4 127.6 86.9 161.2 36.6 184.1C-13.7 207 -91.1183 -87.7266 -52.1183 -90.5266C-13.1183 -93.3266 96.9846 -73.7638 128.785 -61.6638Z" fill="#d327ad"/><path id="Blob_2" opacity="0.45" d="M715.837 904.17C781.743 935.538 851.787 975.693 883.36 1033.67C914.78 1091.64 172.19 1098.23 199.318 1033.91C226.447 969.712 265.991 915.765 322.7 883.056C379.257 850.224 452.826 838.751 520.418 844.365C588.163 849.98 649.931 872.681 715.837 904.17Z" fill="#f62388"/><path id="Blob_3" opacity="0.45" d="M2045.02 300.999C1988.18 301.142 1931.34 287.875 1884.76 253.21C1838.19 218.402 1802.18 162.339 1781.06 85.3062C1759.8 8.27304 1753.73 -89.5875 1800.3 -115.979C1846.73 -142.369 1945.94 -97.2908 2019.99 -72.3264C2093.9 -47.5046 2101.71 300.856 2045.02 300.999Z" fill="#f62388"/><path id="Blob_4" opacity="0.45" fill-rule="evenodd" clip-rule="evenodd" d="M1844.32 808.839C1891.69 826.694 1878.45 934.503 1843.48 1007.28C1808.5 1080.06 1432.13 1119.68 1419.4 1029.56C1406.67 939.264 1339.95 836.217 1358.11 818.362C1376.11 800.507 1478.99 867.845 1584.24 865.465C1689.5 863.084 1797.13 790.984 1844.32 808.839Z" fill="#e73cff"/><path id="Blob_5" opacity="0.45" fill-rule="evenodd" clip-rule="evenodd" d="M174.2 779.8C209.9 816 239.2 866 232.4 912.5C225.6 959.1 243.52 939.9 126.3 1037C9.08037 1134.1 -96.431 869.349 -33.1 800.1C30.231 730.851 25.3 732.1 60.8 726.7C96.2 721.3 138.4 743.7 174.2 779.8Z" fill="#a52ed2"/><path id="Blob_6" opacity="0.45" fill-rule="evenodd" clip-rule="evenodd" d="M693.969 -39.3698C702.769 13.3302 689.469 67.1302 671.169 118.03C652.969 169.03 629.769 217.03 591.669 250.23C553.669 283.33 500.769 301.53 449.169 299.83C397.469 298.03 347.169 276.33 300.569 246.03C253.969 215.63 211.069 176.63 190.469 127.03C169.869 77.5302 171.469 17.4302 193.969 -30.8698C216.469 -79.1698 254.769 -86.1853 300.569 -114.185C346.369 -142.085 685.269 -91.9698 693.969 -39.3698Z" fill="#e73cff"/><path id="Blob_7" opacity="0.45" fill-rule="evenodd" clip-rule="evenodd" d="M1458.68 83.5851C1466.23 78.8396 1471.44 70.187 1472.91 61.3668C1474.36 52.7307 1472.24 43.9183 1469.26 35.5559L1469.05 34.9732C1465.98 26.4213 1462.06 18.3724 1455.62 12.8053C1449.2 7.25489 1440.26 4.20302 1431.54 4.48809C1422.8 4.78992 1414.3 8.42868 1406.43 13.5095C1398.55 18.6072 1391.3 25.1469 1387.82 33.464C1384.34 41.7644 1384.61 51.8423 1388.41 59.9415C1392.21 68.0407 1399.55 74.1612 1407.29 78.8563C1415.03 83.5348 1423.17 86.7878 1432.2 87.9784C1441.22 89.1857 1451.12 88.3305 1458.68 83.5851Z" fill="#e73cff"/><path id="Blob_8" opacity="0.45" fill-rule="evenodd" clip-rule="evenodd" d="M2030.92 1022.84C1987.32 1032.94 1936.32 1021.44 1917.12 986.842C1898.02 952.242 1910.52 894.542 1904.32 849.242C1898.12 803.842 1873.02 770.842 1875.12 740.942C1877.12 711.142 1906.22 684.542 1937.92 667.842C1969.62 651.142 2003.92 644.342 2048.72 629.942C2093.52 615.542 2074.42 1012.74 2030.92 1022.84Z" fill="#d327ad"/><path id="Blob_9" opacity="0.45" fill-rule="evenodd" clip-rule="evenodd" d="M188.586 479.86C200.227 482.857 209.55 494.372 211.566 506.762C213.581 519.151 208.315 532.44 201.26 542.406C194.205 552.372 185.361 559.067 176.391 566.36C167.395 573.654 158.249 581.597 147.288 584.12C136.302 586.643 123.452 583.77 118.614 575.128C113.801 566.485 116.951 552.073 115.389 540.757C113.827 529.417 107.502 521.174 108.031 513.706C108.535 506.262 115.868 499.618 123.855 495.446C131.842 491.275 140.485 489.576 151.773 485.98C163.062 482.383 176.97 476.862 188.586 479.86Z" fill="#e73cff"/><path id="Blob_10" opacity="0.45" d="M128.735 241.384C128.118 249.449 121.612 256.968 113.675 259.745C105.738 262.522 96.3571 260.577 88.9583 257.06C82.8352 254.149 78.0471 250.165 73.2568 245.989L69.3455 242.574C63.7497 237.715 57.9283 232.75 55.1341 226.136C52.1859 219.148 52.5788 210.296 57.7143 206.084C62.8527 201.888 72.7279 202.3 80.0092 199.948C87.3071 197.594 92.0052 192.443 96.9936 191.925C101.963 191.393 107.202 195.48 110.887 200.29C114.441 204.927 116.549 210.236 120.005 216.943L120.395 217.694C124.087 224.758 129.354 233.336 128.735 241.384Z" fill="#f62388"/><path id="Blob_11" opacity="0.45" fill-rule="evenodd" clip-rule="evenodd" d="M1575.13 202.546C1556.77 186.781 1551.41 167.193 1556.1 146.05C1560.76 124.929 1575.44 102.274 1593.1 100.883C1610.79 99.5204 1631.49 119.401 1642.48 146.477C1653.52 173.559 1654.87 207.815 1639.85 218.982C1624.85 230.177 1593.48 218.284 1575.13 202.546Z" fill="#a52ed2"/><path id="Blob_12" opacity="0.45" fill-rule="evenodd" clip-rule="evenodd" d="M344.318 481.598C327.982 467.595 323.241 450.166 327.454 431.336C331.643 412.524 344.761 392.33 360.506 391.062C376.269 389.818 394.683 407.48 404.429 431.566C414.218 455.656 415.363 486.15 401.958 496.118C388.572 506.11 360.635 495.577 344.318 481.598Z" fill="#d327ad"/><path id="Blob_13" opacity="0.45" fill-rule="evenodd" clip-rule="evenodd" d="M1783.98 254.374C1789.11 244.912 1797.17 240.809 1806.89 240.97C1816.59 241.12 1827.94 245.525 1830.25 253.145C1832.56 260.776 1825.85 271.632 1815.05 278.874C1804.26 286.138 1789.38 289.799 1783.03 284.215C1776.68 278.642 1778.86 263.824 1783.98 254.374Z" fill="#d327ad"/><path id="Blob_14" opacity="0.45" d="M1710.08 693.2C1713.26 709.019 1708.03 721.508 1696.89 730.692C1685.78 739.876 1668.77 745.753 1658.92 739.233C1649.07 732.689 1646.35 713.748 1651.69 695.014C1657.01 676.256 1670.36 657.705 1682.83 658.004C1695.31 658.279 1706.91 677.404 1710.08 693.2Z" fill="#f62388"/><path id="Blob_15" opacity="0.45" fill-rule="evenodd" clip-rule="evenodd" d="M1341.6 920.276C1360.06 948.243 1352.89 973.033 1342.58 991.962C1332.15 1010.83 1318.58 1023.96 1300.12 1049.3C1281.66 1074.64 1258.32 1112.19 1237.25 1110.97C1216.19 1109.75 1197.19 1069.75 1175.8 1044.41C1154.51 1019.07 1130.73 1008.39 1114.77 988.787C1098.7 969.126 1090.56 940.488 1111.84 912.522C1133.23 884.495 1184.16 857.2 1231.61 859.093C1279.06 861.047 1323.14 892.31 1341.6 920.276Z" fill="#d327ad"/></g></g></g></g></svg>