<svg viewBox="0 -25 2009.9999999999995 1049.9999999999998" fill="none" xmlns="http://www.w3.org/2000/svg" xmlns:xlink="http://www.w3.org/1999/xlink" overflow="visible" width="2009.9999999999995px" height="1049.9999999999998px"><g id="Master/Background/Friendly Squiggles"><g id="Background" transform="scale(1 1)"><g id="Background/Squiggles"><g id="Lines"><path id="Squiggly Line" opacity="0.45" fill-rule="evenodd" clip-rule="evenodd" d="M1809.7 876.789C1815.98 838.019 1860.23 803.773 1900 809.663C1862.83 819.027 1819.09 838.093 1814.49 881.327C1850.4 874.679 1899.48 910.196 1866.77 943.777C1840.95 959.143 1819.79 923.992 1812.14 903.777C1811.13 902.404 1810.77 899.639 1810.4 896.817C1809.77 891.972 1809.11 886.959 1805.14 888.535C1778.08 894.391 1749.79 911.092 1742.34 938.797C1791.51 917.243 1829.32 945.988 1801.46 996.889C1795.46 1007.2 1787.04 1010.58 1775.21 1008.34C1746.72 1003.52 1733.79 975.52 1734.73 949.659C1718.23 957.386 1705.06 974.983 1708.95 1000.6C1700.51 980.68 1711.12 958.626 1728.73 947.208C1733.83 943.863 1736.96 940.13 1738.75 934.262C1747.31 905.831 1775.66 889.388 1803.65 883.012L1803.71 882.999C1808.81 881.857 1808.86 881.845 1809.7 876.789ZM1823.4 887.283C1877.87 884.047 1886.99 948.948 1848.55 941.387C1835.7 941.678 1798.48 882.426 1823.4 887.283ZM1749.69 942.322C1760.51 937.972 1772.48 935.598 1784.1 937.888C1814.84 942.792 1808.79 982.269 1792.9 999.43C1768.97 1016.58 1738.93 981.435 1740.03 960.21C1740.05 959.371 1740.06 958.583 1740.07 957.84C1740.19 950.661 1740.24 947.775 1741.69 946.087C1742.66 944.952 1744.26 944.358 1746.94 943.365C1747.76 943.063 1748.67 942.724 1749.69 942.322Z" fill="#B9E2D8"/><path id="Squiggly Line_2" opacity="0.45" fill-rule="evenodd" clip-rule="evenodd" d="M970.683 592.69C976.964 631.46 1021.22 665.706 1060.99 659.816C1023.81 650.452 980.073 631.386 975.477 588.152C1011.38 594.8 1060.46 559.283 1027.75 525.702C1001.94 510.336 980.777 545.487 973.124 565.702C972.118 567.075 971.756 569.84 971.387 572.662C970.753 577.507 970.097 582.52 966.123 580.944C939.066 575.088 910.777 558.387 903.331 530.682C952.5 552.236 990.308 523.491 962.446 472.59C956.448 462.275 948.03 458.898 936.195 461.14L935.345 461.291C907.444 466.521 894.787 494.218 895.714 519.82C879.217 512.093 866.043 494.496 869.935 468.883C861.499 488.799 872.11 510.853 889.715 522.271C894.817 525.616 897.95 529.349 899.732 535.217L899.995 536.067C908.868 563.975 936.931 580.154 964.64 586.467L964.696 586.48C969.342 587.522 969.795 587.623 970.475 591.467L970.683 592.69ZM910.68 527.157C921.499 531.507 933.462 533.881 945.088 531.591C975.824 526.687 969.774 487.21 953.886 470.049C929.957 452.894 899.912 488.044 901.016 509.269L901.106 514.303C901.304 523.658 901.796 523.84 907.927 526.114C908.741 526.416 909.654 526.755 910.68 527.157ZM984.387 582.196C1038.85 585.432 1047.98 520.531 1009.53 528.092C996.685 527.801 959.467 587.053 984.387 582.196Z" fill="#D3E677"/><path id="Squiggly Line_3" opacity="0.45" fill-rule="evenodd" clip-rule="evenodd" d="M305.935 125.198C303.761 129.032 303.902 129.207 307.434 131.521C316.33 137.346 321.975 145.556 325.26 155.532C334.038 196.891 281.054 195.108 296.308 135.729C297.568 131.538 297.335 130.758 293.032 130.367C270.289 126.967 247.488 140.156 236.372 159.101C260.092 172.926 277.548 209.659 247.708 226.496C223.472 236.341 219.855 179.411 227.428 165.586C228.495 163.119 227.533 162.283 225.468 161.737C200.826 156.329 173.831 171.052 160.845 191.616C217.674 192.717 194.007 281.982 159.673 254.556C143.965 239.503 140.137 217.616 149.666 197.86C134.731 199.268 103.769 219.882 107.376 236.125C100.412 232.238 105.705 225.261 109.996 219.606C111.352 217.818 112.609 216.162 113.345 214.778C122.985 203.328 135.141 195.647 150.049 192.961C153.091 192.412 154.743 190.722 156.375 188.454C172.018 166.503 200.304 149.92 227.735 157.031C230.519 157.881 231.949 156.961 233.479 154.661C246.664 134.941 271.404 120.605 295.478 126.24C299.186 127.221 299.306 127.115 301.121 123.282C310.436 102.31 336.03 76.3048 360.157 88.3428C335.065 88.0208 316.548 103.892 305.935 125.198ZM310.762 178.719C294.5 175.534 296.851 145.755 302.654 134.205C318.573 139.958 333.276 172.766 310.762 178.719ZM246.137 221.446C253.659 217.211 257.818 210.676 258.47 202.115C259.564 187.74 248.259 170.494 234.787 165.416C229.314 165.314 228.364 176.795 227.852 182.979V182.979L227.852 182.979L227.852 182.981C227.784 183.797 227.724 184.521 227.662 185.114C228.094 187.117 228.423 189.986 228.798 193.254C230.339 206.703 232.656 226.92 246.137 221.446ZM191.233 226.335C192.193 239.177 179.828 262.43 164.923 253.718C148.716 241.397 139.277 207.407 160.143 196.424C177.183 195.635 192.774 208.737 191.233 226.335Z" fill="#D3E677"/><path id="Squiggly Line_4" opacity="0.45" fill-rule="evenodd" clip-rule="evenodd" d="M571.607 931.735C573.759 932.08 576.808 926.826 591.938 923.103C583.301 936.013 576.138 935.124 575.144 937.195C574.246 939.069 578.398 943.366 591.081 962.5C591.626 963.903 593.007 965.297 594.394 966.698C596.569 968.895 598.76 971.108 597.767 973.391C595.017 975.147 592.274 972.949 589.953 971.09C589.452 970.689 588.97 970.303 588.513 969.976C584.52 968.061 580.531 961.252 576.772 954.835C572.515 947.568 568.553 940.804 565.211 942.214C542.623 955.859 532.619 956.608 531.344 960.339C530.284 963.439 535.247 968.597 544.022 984.913C527.171 973.765 527.855 966.14 525.034 964.484C522.528 963.012 517.257 966.249 494.477 975.908C483.664 977.008 502.247 968.704 513.916 963.49C518.085 961.627 521.371 960.159 522.12 959.654C520.235 956.58 518.378 953.552 516.527 950.534C513.372 945.388 510.236 940.275 507.016 935.023C503.028 936.914 499.157 939.662 495.311 942.392C489.305 946.656 483.357 950.878 477.108 951.735C476.797 948.44 483.559 944.557 490.346 940.659C498.417 936.024 506.524 931.368 502.823 927.654C502.138 926.553 501.499 925.416 500.859 924.279C498.755 920.535 496.646 916.783 492.868 914.267C492.108 903.746 507.338 925.498 508.849 928.361C510.392 926.88 515.349 924.026 521.19 920.664C533.811 913.398 550.559 903.756 545.902 900.45C545.585 899.624 545.05 898.72 544.493 897.778C543.057 895.348 541.475 892.674 543.126 890.479C543.979 889.97 545.639 890.112 546.579 890.641C553.588 900.975 553.781 900.814 559.901 895.702C562.264 893.728 565.51 891.016 570.374 887.885C574.591 883.072 578.479 888.052 573.455 891.59C572.079 893.471 569.061 895.399 565.963 897.379C561.151 900.454 556.143 903.654 556.787 906.993C568.207 925.494 569.462 931.392 571.607 931.735ZM518.231 943.459C521.733 949.861 525.582 956.896 529.492 956.087C549.896 943.239 561.132 941.927 563.167 936.895C564.827 932.791 560.368 926.213 549.771 908.883C548.026 910.348 543.194 913.059 537.559 916.22C525.79 922.822 510.521 931.388 512.589 934.658C514.319 936.309 516.218 939.779 518.231 943.459Z" fill="#B9E2D8"/><path id="Squiggly Line_5" opacity="0.45" fill-rule="evenodd" clip-rule="evenodd" d="M35.3874 694.353C32.6264 655.124 85.8264 639.374 109.44 665.497C143.346 717.466 44.8544 756.76 35.3874 694.353M93.2004 646.798C73.0184 640.271 53.5814 648.727 40.4494 664.048C13.3714 689.484 40.9984 737.501 72.2914 733.51C120.35 736.182 143.734 661.126 93.2004 646.798" fill="#E677A3"/><path id="Squiggly Line_6" opacity="0.45" fill-rule="evenodd" clip-rule="evenodd" d="M504.136 581.813C505.973 567.915 518.23 575.487 525.45 580.417C555.854 601.461 535.516 545.25 555.79 552.221C562.888 554.249 569.945 557.498 577.481 557.278C577.584 556.837 577.687 556.397 577.789 555.957C520.308 517.353 552.884 586.799 530.168 576.053C520.741 569.273 503.757 560.777 499.812 577.49C496.927 583.314 500.716 612.873 490.88 608.123C480.747 603.746 465.21 593.28 458.047 608.025C454.775 618.129 451.353 630.503 456.803 640.305C459.838 556.798 502.914 662.704 504.136 581.813" fill="#E677A3"/><path id="Squiggly Line_7" opacity="0.45" fill-rule="evenodd" clip-rule="evenodd" d="M346.715 817.215C352.059 801.632 361.541 773.982 372.507 786.233C388.815 812.045 408.234 820.721 407.31 825.21C406.565 828.824 392.63 829.723 353.256 834.666C347.067 835.393 341.52 832.199 343.679 825.503C344.442 823.844 345.465 820.86 346.715 817.215ZM351.39 819.291C350.793 821.2 350.2 823.1 349.595 824.98C347.305 829.439 364.075 826.619 378.275 824.231C386.443 822.857 393.76 821.627 396.109 822.007C395.486 821.492 394.864 820.978 394.244 820.467C382.28 810.59 370.987 801.268 365.519 786.307C358.662 796.005 354.975 807.809 351.39 819.291Z" fill="#B9E2D8"/><path id="Squiggly Line_8" opacity="0.45" fill-rule="evenodd" clip-rule="evenodd" d="M185.752 412.453C164.865 410.003 160.523 438.056 175.385 448.573C202.562 468.022 222.434 410.196 185.752 412.453ZM183.609 420.909C158.737 418.562 172.947 454.156 190.504 445.87C205.542 434.161 204.144 422.296 183.779 420.202C183.723 420.437 183.666 420.673 183.609 420.909Z" fill="#B9E2D8"/><path id="Squiggly Line_9" opacity="0.45" d="M516.935 125.107C514.53 135.386 509.83 145.913 510.804 156.569C520.758 153.809 519.405 116.675 527.867 120.344C535.916 120.288 544.946 126.019 552.116 121.173C528.573 110.493 521.032 127.245 529.536 95.2664C529.902 93.3124 531.676 90.1864 529.394 89.4404C526.265 88.4184 526.259 92.0984 525.634 94.1464C522.559 99.1244 523.517 113.837 517.001 113.922C508.57 113.379 498.522 109.452 490.689 112.628C496.46 116.881 505.419 115.555 512.362 117.625C518.697 118.709 518.688 118.721 516.935 125.107" fill="#B9E2D8"/><path id="Squiggly Line_10" opacity="0.45" fill-rule="evenodd" clip-rule="evenodd" d="M28.4436 44.5536C51.1406 46.1676 62.6036 15.1166 45.8086 0.711634C42.2096 -1.64637 37.3586 2.33163 40.7866 5.69763C52.1956 17.0006 46.7296 37.9946 29.6256 38.5256C17.9316 40.4646 11.8256 31.4096 2.82361 28.1036C4.48561 38.7906 19.1976 43.9096 28.4436 44.5536" fill="#9DC0E1"/><path id="Squiggly Line_11" opacity="0.45" fill-rule="evenodd" clip-rule="evenodd" d="M64.5632 910.306C59.5412 902.537 57.7282 890.902 50.0662 886.101C49.9752 893.839 55.9432 900.92 58.1872 908.367C65.1812 917.122 36.5082 924.067 36.2132 934.379C44.6872 928.534 52.8332 922.913 61.5202 916.92C66.3652 924.631 67.8422 934.094 75.4902 937.985C73.0562 914.367 54.2452 918.503 85.5692 904.823C88.0212 903.686 91.4222 900.667 89.5862 897.799C80.9852 899.344 73.1822 906.606 64.5632 910.306" fill="#9DC0E1"/><path id="Squiggly Line_12" opacity="0.45" d="M65.0515 532.65C66.3885 534.397 67.7175 535.793 70.1085 535.419C92.8745 534.456 84.4345 541.102 87.1055 558.565C87.6155 558.587 88.1255 558.61 88.6355 558.632C90.4325 522.361 89.9995 543.06 116.222 531.78C82.4125 525.738 92.9475 542.398 89.1235 511.148C85.3265 515.343 87.5075 522.687 86.3335 528.106C83.9305 535.882 70.6435 527.921 65.0515 532.65" fill="#B9E2D8"/><path id="Squiggly Line_13" opacity="0.45" d="M565.403 767.359C578.167 771.946 594.426 771.487 608.306 771.677C608.373 771.259 608.439 770.841 608.505 770.423C594.904 767.05 578.726 761.899 565.403 767.359" fill="#B9E2D8"/><path id="Squiggly Line_14" opacity="0.45" d="M33.2209 369.925C35.0259 370.119 36.6649 369.88 38.2309 368.928C34.4059 362.34 18.7589 361.157 12.2999 363.874C16.7539 369.468 26.5799 367.813 33.1519 370.283C33.1749 370.164 33.1979 370.044 33.2209 369.925" fill="#D3E677"/><path id="Squiggly Line_15" opacity="0.45" d="M199.655 255.983C189.737 259.22 179.123 260.623 172.181 266.916C178.517 269.503 195.601 261.797 199.655 255.983" fill="#B9E2D8"/><path id="Squiggly Line_16" opacity="0.45" d="M208.327 14.8357C208.438 14.4637 208.549 14.0907 208.66 13.7187C169.585 -7.16629 174.952 9.04671 208.327 14.8357" fill="#B9E2D8"/><path id="Squiggly Line_17" opacity="0.45" d="M146.094 839.856C150.538 845.752 161.874 842.88 168.31 840.516C161.826 838.213 151.367 835.443 146.094 839.856" fill="#B9E2D8"/><path id="Squiggly Line_18" opacity="0.45" d="M597.231 403.312C592.386 410.683 591.843 421.12 591.145 429.942C591.497 430.032 591.849 430.123 592.201 430.212C593.225 421.519 600.398 411.557 597.231 403.312" fill="#B9E2D8"/><path id="Squiggly Line_19" opacity="0.45" d="M394.271 267.866C389.218 270.248 379.567 271.054 377.909 276.808C383.394 279.563 390.296 271.898 394.271 267.866" fill="#B9E2D8"/><path id="Squiggly Line_20" opacity="0.45" fill-rule="evenodd" clip-rule="evenodd" d="M1826.14 194.608C1831.12 175.89 1838.01 157.802 1845.59 139.97C1852.86 122.977 1860.31 106.047 1867.84 89.1623C1870.31 83.9303 1870.59 83.7576 1874.72 87.9314C1903.7 116.571 1939.64 141.64 1966 171.21C1919.37 180.336 1871.94 191.319 1826.31 202C1823.87 200.354 1825.47 197.129 1826.14 194.608M1829.48 207.999C1988.56 156.567 2024.41 213.885 1880.89 83.0986C1877.63 79.4475 1861.31 66.8807 1865.22 79.4836C1871.58 83.2393 1850.95 113.746 1848.92 122.056C1845.22 135.42 1803.48 208.324 1829.48 207.999" fill="#E677A3"/><path id="Squiggly Line_21" opacity="0.45" fill-rule="evenodd" clip-rule="evenodd" d="M925.852 955.319L925.8 955.128C920.817 936.411 913.933 918.322 906.35 900.49C899.076 883.498 891.627 866.567 884.098 849.683L883.653 848.747C881.581 844.446 881.086 844.543 877.224 848.452C848.244 877.092 812.302 902.16 785.94 931.73C832.573 940.857 879.998 951.84 925.633 962.521C928.014 960.916 926.55 957.81 925.852 955.319V955.319ZM922.462 968.521C763.378 917.087 727.529 974.406 871.047 843.619L871.259 843.39C874.957 839.475 890.557 827.653 886.721 840.004C880.361 843.76 900.991 874.266 903.017 882.576C906.722 895.941 948.458 968.845 922.462 968.521Z" fill="#9DC0E1"/><path id="Squiggly Line_22" opacity="0.45" d="M1526.54 118.706C1518.32 120.009 1510.97 124.44 1502.48 123.494C1508.8 114.697 1540.89 83.8853 1513.88 83.173C1503.76 85.0965 1493.88 88.3109 1483.67 89.8084C1476.65 87.8455 1498 69.9315 1497.78 63.302C1502.15 47.3066 1470.02 53.6085 1466.33 62.7411C1473.8 59.3496 1480.13 57.1634 1488.21 57.3759C1508.46 60.0748 1467.48 82.557 1476.55 92.9599C1481 104.616 1521.59 80.5597 1517.22 93.6762C1512.44 103.507 1502.87 110.245 1496.84 119.29C1490.4 139.933 1520.39 125.804 1530.16 125.019C1526.06 132.886 1519.9 138.025 1515.14 145.214C1509.58 156.432 1526.09 157.918 1532.85 152.275C1529.23 149.163 1524.97 149.708 1520.91 148.281C1527.17 140.393 1551.16 115.589 1526.54 118.706" fill="#D3E677"/><path id="Squiggly Line_23" opacity="0.45" d="M1114.88 864.227C1123.1 865.53 1130.45 869.961 1138.93 869.015C1132.62 860.218 1100.53 829.406 1127.53 828.694C1137.66 830.617 1147.54 833.832 1157.75 835.329C1164.77 833.367 1143.42 815.453 1143.63 808.823C1139.27 792.828 1171.4 799.13 1175.09 808.262C1167.62 804.871 1161.29 802.684 1153.21 802.897C1132.96 805.596 1173.94 828.078 1164.87 838.481C1160.42 850.137 1119.83 826.081 1124.2 839.197C1128.98 849.028 1138.55 855.766 1144.58 864.811C1151.02 885.454 1121.02 871.325 1111.26 870.54C1115.36 878.407 1121.52 883.546 1126.28 890.735C1131.84 901.953 1115.33 903.439 1108.57 897.796C1112.19 894.684 1116.45 895.229 1120.51 893.802C1114.25 885.914 1090.26 861.11 1114.88 864.227" fill="#B9E2D8"/><path id="Squiggly Line_24" opacity="0.45" d="M1916.07 588.739C1865.25 556.265 1863.98 576.229 1896.3 521.178C1898.1 519.412 1898.41 515.72 1895.1 516.617C1846.89 573.432 1894.57 567.035 1820.99 535.366C1879.86 582.711 1872.11 539.104 1835.16 624.007C1833.42 629.035 1839.61 633.958 1841.31 627.125C1848.8 607.8 1859.38 589.894 1868.49 571.316C1870.4 567.416 1870.56 567.412 1874.41 569.678C1888.4 577.91 1902.35 586.188 1916.32 594.45C1918.7 590.92 1918.63 590.222 1916.07 588.739" fill="#D3E677"/><path id="Squiggly Line_25" opacity="0.45" fill-rule="evenodd" clip-rule="evenodd" d="M1077.06 208.74C1026.24 241.214 1024.97 221.25 1057.28 276.301C1059.08 278.067 1059.39 281.759 1056.08 280.862C1007.88 224.047 1055.56 230.444 981.976 262.113C1040.84 214.768 1033.1 258.375 996.141 173.472C994.41 168.444 1000.6 163.521 1002.3 170.354C1009.79 189.679 1020.36 207.585 1029.48 226.163C1031.38 230.063 1031.55 230.067 1035.4 227.801C1049.38 219.569 1063.34 211.291 1077.31 203.029C1079.69 206.559 1079.61 207.257 1077.06 208.74" fill="#9DC0E1"/><path id="Squiggly Line_26" opacity="0.45" d="M1634.71 438.564C1590.52 429.926 1627.74 489.418 1630.55 458.045C1624.54 461.987 1621.99 457.683 1619.83 452.322C1617.12 444.948 1629.16 442.432 1634.15 445.428C1648.62 452.855 1637.89 473.556 1624.9 476.989C1590.53 485.051 1587.06 429.374 1619.27 425.567C1619.24 425.204 1619.21 424.842 1619.18 424.479C1584.02 424.699 1583.44 482.403 1618.16 484.417C1641.57 486.197 1659.54 449.315 1634.71 438.564" fill="#B9E2D8"/><path id="Squiggly Line_27" opacity="0.45" fill-rule="evenodd" clip-rule="evenodd" d="M795.694 120.915C751.508 129.553 788.731 70.0611 791.541 101.434C785.527 97.4923 782.981 101.796 780.818 107.157C778.105 114.531 790.147 117.047 795.141 114.051C809.605 106.624 798.877 85.9235 785.886 82.4899C751.514 74.4277 748.043 130.105 780.259 133.912C780.229 134.275 780.199 134.637 780.169 135C745.011 134.78 744.423 77.0756 779.149 75.0623C802.557 73.2822 820.527 110.164 795.694 120.915" fill="#E677A3"/><path id="Squiggly Line_28" opacity="0.45" d="M1293.76 492.624C1305.53 503.266 1314.5 517.913 1328.34 524.479C1322.68 509.856 1308.54 500.3 1298.34 488.425C1308.99 477.395 1320.37 467.456 1331.8 457.511C1321.23 456.294 1298.01 490.336 1291.88 482.834C1287.46 480.648 1256.62 446.348 1261.42 463.806C1264.78 461.108 1284.93 485.907 1290.23 489.446C1245.06 527.18 1254.47 533.816 1293.76 492.624" fill="#B9E2D8"/><path id="Squiggly Line_29" opacity="0.45" fill-rule="evenodd" clip-rule="evenodd" d="M1313.03 733.008C1304.02 705.147 1269.19 706.613 1266.09 735.969C1263.35 772.392 1322.2 767.038 1313.03 733.008ZM1287.93 755.989C1271.01 756.608 1263.32 731.202 1277.13 721.128C1302.17 709.044 1324.07 752.207 1287.93 755.989Z" fill="#B9E2D8"/><path id="Squiggly Line_30" opacity="0.45" d="M1628.09 653.096C1633.03 640.106 1611.54 635.037 1601.27 634.54C1575.62 632.885 1543.95 665.117 1566.99 686.479C1569.3 684.136 1566.7 682.031 1566.19 679.799C1556.04 647.004 1607.71 630.357 1628.09 653.096" fill="#B9E2D8"/><path id="Squiggly Line_31" opacity="0.45" d="M789.076 318.383C794.017 331.373 772.523 336.442 762.254 336.939C736.608 338.594 704.932 306.362 727.98 285C730.285 287.343 727.682 289.448 727.174 291.68C717.024 324.475 768.699 341.122 789.076 318.383" fill="#B9E2D8"/><path id="Squiggly Line_32" opacity="0.45" d="M1387.59 958.333C1348.36 958.081 1350.41 981.032 1343.07 937.5C1336.35 921.505 1341.61 958.19 1342.74 961.162C1343.51 965.671 1343.58 965.56 1338.98 966.72C1330.26 968.915 1321.58 971.231 1312.89 973.496C1312.98 974.138 1313.08 974.778 1313.18 975.418C1358.3 968.457 1338.1 963.613 1353.34 1001.48C1359.34 993.006 1344.57 968.329 1354.15 967.911C1357.73 966.305 1394.47 962.65 1387.59 958.333" fill="#D3E677"/><path id="Squiggly Line_33" opacity="0.45" fill-rule="evenodd" clip-rule="evenodd" d="M1968.38 1000.95C1947.21 1002.61 1950.71 965.703 1970.38 974.3C1987 978.446 1985.31 1000.11 1968.38 1000.95M1949.01 977.273C1950.33 976.623 1951.25 976.169 1952.97 975.32C1938.66 996.85 1966.35 1017.91 1983.32 998.065C1999.99 977.43 1954.91 950.37 1949.01 977.273" fill="#E677A3"/><path id="Squiggly Line_34" opacity="0.45" fill-rule="evenodd" clip-rule="evenodd" d="M1613.89 812.656C1608.94 804.492 1606.06 793.698 1598.87 787.479C1598.66 796.866 1606.73 805.507 1609.62 814.534C1614.7 822.482 1577.78 823.903 1576.69 833.22C1620.26 825.121 1605.54 807.177 1625.55 850.479C1626 850.392 1626.46 850.305 1626.91 850.218C1625.69 840.108 1621.43 830.504 1618.13 820.883C1624.53 816.755 1633.72 814.352 1638.12 808.343C1631.52 806.373 1617.17 821.068 1613.89 812.656" fill="#E677A3"/><path id="Squiggly Line_35" opacity="0.45" d="M774.875 475.823C769.929 483.987 767.041 494.781 759.858 501C759.641 491.613 767.711 482.972 770.604 473.945C775.688 465.997 738.762 464.576 737.674 455.259C781.247 463.358 766.521 481.302 786.538 438C786.99 438.087 787.441 438.174 787.894 438.261C786.674 448.371 782.417 457.975 779.111 467.596C785.512 471.724 794.71 474.127 799.101 480.136C792.505 482.106 778.156 467.411 774.875 475.823" fill="#B9E2D8"/><path id="Squiggly Line_36" opacity="0.45" d="M1599.61 319.178C1572 299.601 1577.3 315.777 1593.19 280.505C1592.71 280.163 1592.24 279.821 1591.76 279.479C1573.02 301.483 1585.3 310.381 1558.21 296.451C1556.29 295.821 1553.93 295.01 1552.23 296.595C1554.95 300.998 1575.09 304.056 1571.84 310.245C1567.4 320.48 1546.66 338.089 1554.29 348.479C1561.9 335.671 1569.34 323.17 1576.8 310.629C1584.52 313.641 1591.69 321.616 1599.61 319.178" fill="#B9E2D8"/><path id="Squiggly Line_37" opacity="0.45" d="M2009.66 55.479C1987.19 41.9473 1963.73 29.1348 1957.96 -0.520996C1953.86 25.4646 1983.82 55.0117 2009.66 55.479" fill="#B9E2D8"/><path id="Squiggly Line_38" opacity="0.45" d="M1201.11 54.479C1201.54 54.4083 1201.96 54.3375 1202.39 54.2658C1200.21 31.8481 1197.24 43.0928 1213.46 33.9036C1210.21 31.2549 1206.09 32.9664 1202.4 33.577C1195.41 33.8018 1201.1 21.5492 1196.44 18.479C1194.67 19.483 1194.95 21.241 1194.99 22.9505C1197.86 41.3173 1190.13 34.0431 1178 41.4065C1182.05 45.1715 1187.44 40.4946 1192.15 40.2533C1199.76 37.4409 1196.63 50.7401 1201.11 54.479" fill="#B9E2D8"/><path id="Squiggly Line_39" opacity="0.45" d="M1234.36 288.698C1234.15 288.291 1233.94 287.886 1233.73 287.479C1227.23 287.426 1218.92 299.664 1214.1 295.527C1212.38 293.085 1211.17 290.112 1207.89 289.506C1206.45 293.557 1211.57 296.911 1211.51 300.269C1208.83 305.16 1201.97 306.606 1199.45 312.814C1218.37 302.406 1209.63 300.187 1225.48 315.479C1217.7 293.232 1214.25 304.845 1234.36 288.698" fill="#B9E2D8"/><path id="Squiggly Line_40" opacity="0.45" d="M1967.37 790.481C1949.81 790.262 1995.45 807.843 1998.35 809.479C1995.28 799.366 1977.88 793.396 1967.37 790.481" fill="#B9E2D8"/><path id="Squiggly Line_41" opacity="0.45" fill-rule="evenodd" clip-rule="evenodd" d="M1872.84 399.463C1872.91 398.996 1872.98 398.53 1873.05 398.063C1829.55 384.469 1819.28 400.045 1872.84 399.463" fill="#9DC0E1"/><path id="Squiggly Line_42" opacity="0.45" d="M1033.83 43.016C1033.89 43.4832 1033.96 43.9493 1034.03 44.4165C990.533 58.0097 980.27 42.4338 1033.83 43.016" fill="#B9E2D8"/><path id="Squiggly Line_43" opacity="0.45" d="M1658.99 64.479C1668.86 61.3224 1680.26 55.2544 1685.55 46.5464C1683.04 45.2739 1651.49 62.4146 1658.99 64.479" fill="#B9E2D8"/><path id="Squiggly Line_44" opacity="0.45" d="M1434.68 587.415C1444.77 592.419 1457.44 589.052 1469.35 590.479C1459.13 585.342 1445.13 583.886 1434.68 587.415" fill="#B9E2D8"/></g></g></g></g></svg>