<svg viewBox="12.75 27.218390804597703 116.87499999999996 97.816091954023" fill="none" xmlns="http://www.w3.org/2000/svg" xmlns:xlink="http://www.w3.org/1999/xlink" overflow="visible" width="116.87499999999996px" height="97.816091954023px"><g id="Master/Stickers/Cat"><g id="Group"><g id="Group 67"><path id="Fill 1" fill-rule="evenodd" clip-rule="evenodd" d="M102.561 100.479L109.478 124.415L113.734 124.455V82.682L102.561 100.479Z" fill="#EC9532"/><g id="Group 46"><g id="Group 4"><mask id="mask0bd910406-04e3-48ec-bc5d-3a5c279bbe1a" mask-type="alpha" maskUnits="userSpaceOnUse" x="102" y="29" width="14" height="13"><path id="Clip 3" fill-rule="evenodd" clip-rule="evenodd" d="M102.007 29.0004H115.944V41.376H102.007V29.0004Z" fill="white"/></mask><g mask="url(#mask0bd910406-04e3-48ec-bc5d-3a5c279bbe1a)"><path id="Fill 2" fill-rule="evenodd" clip-rule="evenodd" d="M104.414 29.0291C100.594 29.6661 102.465 41.3761 102.465 41.3761L115.944 40.7321C115.944 40.7321 108.662 28.3211 104.414 29.0291" fill="#EC9532"/></g></g><path id="Fill 5" fill-rule="evenodd" clip-rule="evenodd" d="M109.959 120.528C110.152 122.171 110.499 124.362 112.151 124.457C116.871 124.727 116.115 122.44 116.548 120.089C118.167 111.283 119.434 103.409 120.544 93.6231C121.086 88.8411 121.886 83.7051 121.746 79.0001C121.536 71.9641 121.003 65.9091 121.654 60.6971C121.904 58.6991 129.627 43.9661 118.74 37.6391C114.668 35.2721 110.82 34.6351 102.176 38.2911C95.3283 41.1861 96.1653 47.0071 92.5043 55.0381C88.2753 64.3141 81.0063 71.6491 74.9633 79.1741C61.7213 95.6641 60.5093 112.93 62.4393 119.604C63.9703 124.895 76.5113 124.231 79.1443 124.091C84.0823 123.825 109.292 124.556 109.554 124.119C110.526 122.492 108.307 119.269 105.674 118.853C103.801 118.557 102.421 118.503 100.801 117.518C102.804 113.154 106.531 105.137 109.844 101.662L109.959 120.528Z" fill="#F2CE0F"/><path id="Fill 7" fill-rule="evenodd" clip-rule="evenodd" d="M92.041 33.3435C89.022 35.7695 96.875 49.8635 96.875 49.8635L108.414 40.0305C108.414 40.0305 95.397 30.6455 92.041 33.3435" fill="#F2CE0F"/><path id="Fill 9" fill-rule="evenodd" clip-rule="evenodd" d="M100.802 117.857C100.757 117.857 100.711 117.848 100.667 117.83C100.494 117.754 100.415 117.554 100.49 117.382C100.532 117.283 104.704 107.41 98.4257 103.293C92.0707 99.1262 81.7777 103.917 81.6727 103.964C81.5057 104.042 81.3007 103.973 81.2197 103.802C81.1397 103.632 81.2117 103.43 81.3817 103.349C81.8177 103.144 92.1187 98.3432 98.7987 102.724C105.556 107.155 101.159 117.547 101.114 117.652C101.059 117.781 100.933 117.857 100.802 117.857" fill="#EC9532"/><path id="Fill 13" fill-rule="evenodd" clip-rule="evenodd" d="M115.531 124.486C115.483 124.486 115.434 124.476 115.388 124.455C115.219 124.376 115.143 124.174 115.222 124.004C115.468 123.472 114.942 122.478 114.739 122.172C114.635 122.015 114.677 121.804 114.834 121.7C114.992 121.598 115.202 121.638 115.305 121.795C115.407 121.948 116.288 123.317 115.84 124.289C115.782 124.413 115.659 124.486 115.531 124.486" fill="#D77ABE"/><path id="Fill 15" fill-rule="evenodd" clip-rule="evenodd" d="M107.516 124.613C107.468 124.613 107.419 124.603 107.373 124.582C107.204 124.503 107.128 124.301 107.207 124.131C107.453 123.599 106.927 122.605 106.724 122.299C106.62 122.142 106.662 121.931 106.819 121.827C106.977 121.724 107.187 121.765 107.29 121.922C107.392 122.075 108.273 123.444 107.825 124.416C107.767 124.54 107.644 124.613 107.516 124.613" fill="#D77ABE"/><path id="Fill 17" fill-rule="evenodd" clip-rule="evenodd" d="M109.17 124.613C109.122 124.613 109.073 124.603 109.027 124.582C108.858 124.503 108.782 124.301 108.861 124.131C109.107 123.599 108.581 122.605 108.378 122.299C108.274 122.142 108.316 121.931 108.473 121.827C108.631 121.724 108.841 121.765 108.944 121.922C109.046 122.075 109.927 123.444 109.479 124.416C109.421 124.54 109.298 124.613 109.17 124.613" fill="#D77ABE"/><path id="Fill 29" fill-rule="evenodd" clip-rule="evenodd" d="M95.734 41.9333C95.734 41.9333 93.215 36.4163 94.263 35.6463C95.02 35.0903 97.035 35.6273 99.436 36.8203C100.637 37.4163 99.887 38.6073 98.184 40.1773C96.871 41.3883 95.734 41.9333 95.734 41.9333" fill="#D77ABE"/><path id="Fill 31" fill-rule="evenodd" clip-rule="evenodd" d="M120.516 40.5964C120.443 40.5964 120.37 40.5674 120.315 40.5104C120.209 40.3994 120.213 40.2234 120.324 40.1174L125.953 34.7314C126.064 34.6264 126.24 34.6304 126.346 34.7404C126.452 34.8514 126.448 35.0274 126.337 35.1334L120.708 40.5194C120.655 40.5704 120.585 40.5964 120.516 40.5964" fill="#D77ABE"/><path id="Fill 33" fill-rule="evenodd" clip-rule="evenodd" d="M121.47 41.7283C121.376 41.7283 121.283 41.6793 121.232 41.5923C121.153 41.4613 121.196 41.2913 121.327 41.2113L127.407 37.5633C127.535 37.4863 127.708 37.5273 127.787 37.6593C127.866 37.7903 127.824 37.9603 127.692 38.0403L121.613 41.6883C121.569 41.7143 121.519 41.7283 121.47 41.7283" fill="#D77ABE"/><path id="Fill 35" fill-rule="evenodd" clip-rule="evenodd" d="M122.091 43.7458C121.982 43.7458 121.877 43.6798 121.833 43.5718C121.776 43.4298 121.845 43.2668 121.987 43.2098L128.985 40.3778C129.124 40.3198 129.288 40.3888 129.347 40.5308C129.404 40.6738 129.335 40.8358 129.194 40.8928L122.195 43.7248C122.161 43.7388 122.126 43.7458 122.091 43.7458" fill="#D77ABE"/><path id="Fill 37" fill-rule="evenodd" clip-rule="evenodd" d="M102.596 48.1677C102.471 48.1677 102.358 48.0827 102.326 47.9567C102.289 47.8077 102.38 47.6567 102.529 47.6197L110.125 45.7287C110.273 45.6907 110.425 45.7817 110.462 45.9307C110.499 46.0797 110.408 46.2307 110.26 46.2677L102.663 48.1587C102.641 48.1647 102.618 48.1677 102.596 48.1677" fill="#D77ABE"/><path id="Fill 39" fill-rule="evenodd" clip-rule="evenodd" d="M104.323 50.8591C104.221 50.8591 104.124 50.8021 104.075 50.7061C104.006 50.5681 104.061 50.4011 104.198 50.3331L110.539 47.1481C110.677 47.0791 110.843 47.1341 110.912 47.2711C110.981 47.4091 110.926 47.5761 110.789 47.6441L104.448 50.8291C104.408 50.8491 104.365 50.8591 104.323 50.8591" fill="#D77ABE"/><path id="Fill 41" fill-rule="evenodd" clip-rule="evenodd" d="M105.899 53.2821C105.818 53.2821 105.737 53.2461 105.682 53.1781C105.587 53.0581 105.605 52.8841 105.725 52.7871L111.106 48.4621C111.224 48.3681 111.402 48.3851 111.497 48.5051C111.592 48.6241 111.574 48.7991 111.454 48.8951L106.073 53.2201C106.022 53.2611 105.961 53.2821 105.899 53.2821" fill="#D77ABE"/></g><g id="Group 66"><path id="Fill 60" fill-rule="evenodd" clip-rule="evenodd" d="M70.4385 86.2048C70.4385 86.2048 91.8485 93.6688 93.4195 92.6858C94.9915 91.7038 74.9635 79.1748 74.9635 79.1748C74.9635 79.1748 72.0095 82.4728 70.4385 86.2048" fill="#D77ABE"/><path id="Fill 62" fill-rule="evenodd" clip-rule="evenodd" d="M84.3848 68.1336C84.3848 68.1336 95.7778 76.5796 96.7598 78.5436C97.7408 80.5086 78.8848 74.2226 78.8848 74.2226L84.3848 68.1336Z" fill="#D77ABE"/></g></g><path id="Fill 43" fill-rule="evenodd" clip-rule="evenodd" d="M78.3374 121.362C78.5979 121.818 71.7607 123.25 71.1006 123.276C68.6904 123.368 66.3053 122.904 64.0507 122.07C58.2272 119.916 53.7152 115.267 49.0353 111.373C44.3973 107.514 38.7601 104.085 32.4862 105.103C27.2781 105.948 22.4216 109.737 17.2564 108.662C16.287 108.461 15.3049 108.051 14.713 107.258C13.9273 106.202 14.0217 104.68 14.6439 103.521C15.2668 102.363 16.3264 101.506 17.4167 100.771C34.3697 89.3378 49.9444 103.964 63.1881 113.571C67.7068 116.848 71.8667 116.455 75.1103 115.717C75.1103 115.717 78.3366 121.361 78.3374 121.362" fill="#F2CE0F"/><path id="Path 4 (Stroke)" fill-rule="evenodd" clip-rule="evenodd" d="M108.941 40.8262C110.24 40.6077 111.376 40.9836 112.755 41.5212L112.028 43.3844C110.642 42.8438 109.973 42.6806 109.272 42.7985C108.517 42.9255 107.587 43.4021 105.799 44.6243L104.67 42.9732C106.429 41.7712 107.695 41.0357 108.941 40.8262Z" fill="#D77ABE"/><path id="Path 5 (Stroke)" fill-rule="evenodd" clip-rule="evenodd" d="M118.061 39.7982C118.061 39.7979 118.061 39.7976 117.072 39.9463C116.083 40.095 116.083 40.0947 116.083 40.0943L116.083 40.0921L116.082 40.0885L116.081 40.0792L116.077 40.0524C116.075 40.0311 116.071 40.0027 116.068 39.9683C116.061 39.8998 116.053 39.8056 116.048 39.6939C116.04 39.4767 116.043 39.164 116.103 38.833C116.162 38.5138 116.289 38.0866 116.597 37.7238C116.939 37.3208 117.436 37.0791 118.035 37.0791V39.076C118.036 39.0757 118.037 39.0753 118.038 39.0749C118.054 39.0684 118.093 39.0529 118.122 39.0179C118.124 39.0164 118.124 39.0156 118.124 39.0157C118.125 39.0161 118.095 39.0623 118.071 39.1924C118.046 39.3282 118.042 39.4823 118.047 39.6152C118.049 39.6785 118.054 39.7302 118.057 39.7638C118.059 39.7804 118.06 39.7922 118.061 39.7982C118.061 39.801 118.062 39.8025 118.062 39.8026L118.062 39.8014L118.061 39.7998L118.061 39.7982Z" fill="#D77ABE"/><path id="Fill 23" fill-rule="evenodd" clip-rule="evenodd" d="M113.332 44.208C113.297 44.208 113.264 44.208 113.228 44.2067C113.099 44.2027 112.996 44.0881 113 43.9497C113.004 43.8145 113.108 43.7072 113.235 43.7072C113.262 43.7092 113.298 43.7086 113.33 43.7086C114.939 43.7086 115.527 42.4083 115.552 42.352C115.607 42.2274 115.745 42.1738 115.863 42.2307C115.981 42.2884 116.033 42.4354 115.978 42.5613C115.949 42.6288 115.248 44.208 113.332 44.208" fill="#B14A96"/><path id="Fill 23_2" fill-rule="evenodd" clip-rule="evenodd" d="M119.033 42.0893C119.058 42.0646 119.081 42.0409 119.105 42.0148C119.194 41.9204 119.186 41.7671 119.085 41.6719C118.987 41.579 118.837 41.5766 118.747 41.6665C118.73 41.6873 118.704 41.7119 118.681 41.7344C117.544 42.8722 116.208 42.3686 116.151 42.3464C116.024 42.2971 115.888 42.3574 115.845 42.4809C115.802 42.6049 115.87 42.7455 115.997 42.7961C116.066 42.8232 117.678 43.4439 119.033 42.0893" fill="#B14A96"/><path id="Fill 26" fill-rule="evenodd" clip-rule="evenodd" d="M115.599 42.4207L113.973 41.5821C113.87 41.5282 113.812 41.4227 113.824 41.3092C113.838 41.1942 113.918 41.0918 114.034 41.0425L116.185 40.1295C116.3 40.0807 116.43 40.094 116.521 40.1644C116.612 40.2343 116.649 40.3487 116.615 40.4607L116.09 42.2123C116.061 42.307 115.988 42.3858 115.892 42.4267C115.795 42.4677 115.686 42.4662 115.599 42.4207Z" fill="#D77ABE"/></g></g></svg>