<svg viewBox="10.162499999999994 18.955056179775255 237.12500000000006 203.0898876404494" fill="none" xmlns="http://www.w3.org/2000/svg" xmlns:xlink="http://www.w3.org/1999/xlink" overflow="visible" width="237.12500000000006px" height="203.0898876404494px"><g id="Master/Background/Abstract 5"><path id="Background" fill-rule="evenodd" clip-rule="evenodd" d="M227.287 122.944C227.287 177.423 183.123 221.589 128.643 221.589C74.164 221.589 30 177.423 30 122.944C30 68.465 74.164 24.3 128.643 24.3C183.123 24.3 227.287 68.465 227.287 122.944" fill="#ffe6f0"/><g id="Decoration" transform="translate(6 109.894) scale(1 1)"><g id="Decoration/Triangle 1"><path id="Triangle" fill-rule="evenodd" clip-rule="evenodd" d="M7.23037 9.43213L14.0344 6.22636C15.4971 5.53707 17.1113 6.73522 16.9601 8.34257L16.2341 16.0607C16.0823 17.6754 14.2611 18.5329 12.9583 17.5645L6.87978 13.0519C5.60705 12.1058 5.79578 10.1071 7.23037 9.43213ZM15.0286 8.16088C15.0417 8.02159 14.9385 7.94493 14.8613 7.98127L8.05674 11.1873C7.95371 11.2358 7.93632 11.42 8.03658 11.4945L14.1152 16.0072C14.1859 16.0598 14.2903 16.0106 14.3027 15.879L15.0286 8.16088Z" fill="#ffc7de"/></g></g><g id="Decoration" transform="translate(220 171) scale(1 1)"><g id="Decoration/Zig Zag 1"><path id="Stroke 35" d="M18.8131 9.26692C19.1766 8.92969 19.7261 8.91313 20.1076 9.21087L20.1993 9.29185L24.7061 13.7852C25.0972 14.1752 25.0981 14.8084 24.7082 15.1995C24.3482 15.5605 23.781 15.589 23.3883 15.2846L23.2939 15.2016L19.468 11.387L15.0655 15.472C14.7137 15.7985 14.1857 15.8255 13.8047 15.5532L13.7047 15.4715L9.545 11.606L4.90108 15.7465C4.52777 16.0792 3.97257 16.0817 3.59734 15.7699L3.50749 15.6854L-0.728211 11.1847C-1.10672 10.7826 -1.08753 10.1497 -0.685347 9.77117C-0.314103 9.42178 0.253708 9.41125 0.636574 9.72803L0.728217 9.81403L4.296 13.606L8.89423 9.50833C9.24725 9.19369 9.76658 9.17254 10.1418 9.44169L10.2403 9.52228L14.385 13.374L18.8131 9.26692Z" fill="#ee75ff"/></g></g><g id="Decoration" transform="translate(174.554 33) scale(1 1)"><g id="Decoration/Zig Zag 3"><path id="Stroke 20" d="M3.88855 9.18531C4.10944 8.97154 4.44385 8.94202 4.69614 9.10039L4.78651 9.16859L9.66627 13.5509L14.2454 9.42057C14.4645 9.22289 14.784 9.19768 15.0288 9.34687L15.1168 9.411L20.1903 13.7899L24.1649 9.693C24.3928 9.45807 24.7532 9.42944 25.0133 9.61066L25.096 9.67885C25.3309 9.90675 25.3596 10.2672 25.1783 10.5273L25.1102 10.61L20.7032 15.153C20.4873 15.3756 20.1504 15.4141 19.8928 15.2599L19.8002 15.193L14.6953 10.7879L10.1086 14.9264C9.88621 15.1271 9.56107 15.1497 9.3155 14.9941L9.22749 14.9274L4.36327 10.5579L0.116447 14.6687C-0.118754 14.8963 -0.479949 14.9135 -0.734213 14.7242L-0.814688 14.6534C-1.04231 14.4182 -1.05955 14.0571 -0.870206 13.8028L-0.799446 13.7223L3.88855 9.18531Z" fill="#d091e7"/></g></g><g id="Decoration" transform="translate(146.554 20) scale(1 1)"><g id="Decoration/Dots 1"><g id="Group"><path id="Fill 39" fill-rule="evenodd" clip-rule="evenodd" d="M17.688 14.1278C16.689 14.1268 15.878 13.3158 15.879 12.3158C15.88 11.3158 16.691 10.5068 17.691 10.5078C18.691 10.5078 19.5 11.3188 19.5 12.3188C19.5 13.3178 18.688 14.1288 17.688 14.1278" fill="#eba2ff"/><path id="Fill 41" fill-rule="evenodd" clip-rule="evenodd" d="M12.2202 14.1239C11.2212 14.1229 10.4102 13.3119 10.4112 12.3119C10.4122 11.3119 11.2232 10.5029 12.2232 10.5039C13.2232 10.5039 14.0322 11.3149 14.0322 12.3149C14.0322 13.3139 13.2202 14.1249 12.2202 14.1239" fill="#eba2ff"/><path id="Fill 43" fill-rule="evenodd" clip-rule="evenodd" d="M7.09425 14.12C6.09425 14.12 5.28425 13.308 5.28525 12.308C5.28525 11.308 6.09725 10.499 7.09725 10.5C8.09725 10.501 8.90625 11.311 8.90625 12.311C8.90625 13.311 8.09425 14.121 7.09425 14.12" fill="#eba2ff"/></g></g></g><g id="Decoration" transform="translate(195.554 50) scale(1 1)"><g id="Decoration/Sparkle 1"><path id="Sparkle 1" fill-rule="evenodd" clip-rule="evenodd" d="M15.9983 12.4383C16.0169 12.7887 15.8826 12.9604 15.6854 13.0945C15.4045 13.2874 15.1442 13.5789 14.8344 13.645C13.4123 13.9476 12.9682 15.1055 12.4053 16.1821C11.8683 17.209 11.1289 17.3024 10.6197 16.2715C9.94223 14.9003 9.08608 13.8857 7.60098 13.3017C6.79234 12.9848 6.79957 11.9904 7.6237 11.6715C9.11706 11.0936 9.9887 10.1033 10.6373 8.69963C11.0927 7.71239 11.9241 7.79669 12.3826 8.78393C12.9186 9.93875 13.4598 11.0062 14.8674 11.3841C15.3817 11.5222 15.8805 11.9112 15.9983 12.4383" fill="#ffc7de"/></g></g><g id="Decoration" transform="translate(177.554 12) scale(1 1)"><g id="Decoration/Sparkle 3"><path id="Fill 23" fill-rule="evenodd" clip-rule="evenodd" d="M16.1782 12.1014C16.1942 12.4254 16.0732 12.5834 15.8932 12.7084C15.6382 12.8864 15.4022 13.1564 15.1192 13.2174C13.8272 13.4974 13.4242 14.5674 12.9122 15.5614C12.4252 16.5104 11.7522 16.5974 11.2902 15.6444C10.6742 14.3764 9.89618 13.4394 8.54518 12.8994C7.81118 12.6074 7.81818 11.6884 8.56718 11.3934C9.92418 10.8584 10.7162 9.94436 11.3052 8.64736C11.7192 7.73436 12.4742 7.81136 12.8912 8.72536C13.3782 9.79136 13.8702 10.7784 15.1502 11.1264C15.6162 11.2544 16.0712 11.6154 16.1782 12.1014" fill="#fff7fa"/></g></g><g id="Decoration" transform="translate(104.554 30) scale(1 1)"><g id="Decoration/Sparkle 5"><path id="Sparkle 1" fill-rule="evenodd" clip-rule="evenodd" d="M13.999 12.4657C14.0094 12.6604 13.9348 12.7558 13.8252 12.8303C13.6691 12.9375 13.5246 13.0994 13.3524 13.1361C12.5624 13.3042 12.3157 13.9475 12.003 14.5456C11.7046 15.1161 11.2938 15.168 11.011 14.5953C10.6346 13.8335 10.1589 13.2698 9.33388 12.9454C8.88463 12.7693 8.88865 12.2169 9.3465 12.0397C10.1761 11.7187 10.6604 11.1685 11.0207 10.3887C11.2737 9.84022 11.7356 9.88705 11.9903 10.4355C12.2881 11.0771 12.5888 11.6701 13.3708 11.88C13.6565 11.9568 13.9336 12.1729 13.999 12.4657" fill="#ffc7de"/></g></g><g id="Decoration" transform="translate(90.5537 103) scale(1 1)"><g id="Decoration/Sparkle 6"><path id="Fill 27" fill-rule="evenodd" clip-rule="evenodd" d="M14.7014 11.8592C14.7134 12.0852 14.6284 12.1952 14.5034 12.2822C14.3254 12.4062 14.1604 12.5932 13.9644 12.6372C13.0624 12.8322 12.7814 13.5782 12.4254 14.2712C12.0854 14.9332 11.6164 14.9932 11.2944 14.3292C10.8644 13.4452 10.3214 12.7922 9.38041 12.4152C8.86841 12.2122 8.87341 11.5712 9.39441 11.3652C10.3424 10.9932 10.8934 10.3552 11.3054 9.45125C11.5934 8.81425 12.1194 8.86925 12.4104 9.50525C12.7504 10.2492 13.0934 10.9362 13.9844 11.1792C14.3104 11.2692 14.6264 11.5192 14.7014 11.8592" fill="#c77ce3"/></g></g><g id="Decoration" transform="translate(173.554 97) scale(1 1)"><g id="Decoration/Sparkle 4"><path id="Fill 27" fill-rule="evenodd" clip-rule="evenodd" d="M14.7014 11.8592C14.7134 12.0852 14.6284 12.1952 14.5034 12.2822C14.3254 12.4062 14.1604 12.5932 13.9644 12.6372C13.0624 12.8322 12.7814 13.5782 12.4254 14.2712C12.0854 14.9332 11.6164 14.9932 11.2944 14.3292C10.8644 13.4452 10.3214 12.7922 9.38041 12.4152C8.86841 12.2122 8.87341 11.5712 9.39441 11.3652C10.3424 10.9932 10.8934 10.3552 11.3054 9.45125C11.5934 8.81425 12.1194 8.86925 12.4104 9.50525C12.7504 10.2492 13.0934 10.9362 13.9844 11.1792C14.3104 11.2692 14.6264 11.5192 14.7014 11.8592" fill="#eba2ff"/></g></g><g id="Decoration" transform="translate(29.5537 42) scale(1 1)"><g id="Decoration/Sparkle 5"><path id="Sparkle 1" fill-rule="evenodd" clip-rule="evenodd" d="M13.999 12.4657C14.0094 12.6604 13.9348 12.7558 13.8252 12.8303C13.6691 12.9375 13.5246 13.0994 13.3524 13.1361C12.5624 13.3042 12.3157 13.9475 12.003 14.5456C11.7046 15.1161 11.2938 15.168 11.011 14.5953C10.6346 13.8335 10.1589 13.2698 9.33388 12.9454C8.88463 12.7693 8.88865 12.2169 9.3465 12.0397C10.1761 11.7187 10.6604 11.1685 11.0207 10.3887C11.2737 9.84022 11.7356 9.88705 11.9903 10.4355C12.2881 11.0771 12.5888 11.6701 13.3708 11.88C13.6565 11.9568 13.9336 12.1729 13.999 12.4657" fill="#ffc7de"/></g></g><g id="Medium Decoration" transform="translate(162.554 171) scale(1 1)"><g id="Medium Decoration/Circle 1"><path id="Fill 31" fill-rule="evenodd" clip-rule="evenodd" d="M30.4689 14C37.3725 13.982 42.9829 19.5655 43 26.4694C43.017 33.3733 37.4347 38.9829 30.5311 39C23.6285 39.018 18.0181 33.4345 18 26.5306C17.984 19.6267 23.5663 14.0171 30.4689 14" fill="#e892ff"/></g></g><g id="Medium Decoration" transform="translate(39 16) scale(1 1)"><g id="Medium Decoration/Circle 2"><path id="Fill 1" fill-rule="evenodd" clip-rule="evenodd" d="M43.9374 26.7227C44.0734 33.8847 38.3784 39.8007 31.2164 39.9377C24.0554 40.0747 18.1384 34.3787 18.0024 27.2167C17.8654 20.0547 23.5614 14.1387 30.7224 14.0017C37.8844 13.8667 43.8004 19.5617 43.9374 26.7227" fill="#c945ec"/></g></g></g></svg>