<svg viewBox="37.07908163265307 43.64999999999998 207.20663265306126 210.97500000000002" fill="none" xmlns="http://www.w3.org/2000/svg" xmlns:xlink="http://www.w3.org/1999/xlink" overflow="visible" width="207.20663265306126px" height="210.97500000000002px"><g id="Master/Spot Illustrations/Work from Home"><g id="Backdrop" transform="translate(29 36) scale(218 190)"><g id="Backdrop/None" stroke="none" stroke-width="1" fill="none" fill-rule="evenodd" fill-opacity="0"/></g><g id="Texture" opacity="0.644252" transform="translate(39 50) scale(1 1)"><g id="Texture/Random Stuff"><g id="Decoration 1"><path id="Stroke 20" d="M161.889 78.1853C162.109 77.9715 162.444 77.942 162.696 78.1004L162.787 78.1686L167.666 82.5509L172.245 78.4206C172.465 78.2229 172.784 78.1977 173.029 78.3469L173.117 78.411L178.19 82.7899L182.165 78.693C182.393 78.4581 182.753 78.4294 183.013 78.6107L183.096 78.6788C183.331 78.9068 183.36 79.2672 183.178 79.5273L183.11 79.61L178.703 84.153C178.487 84.3756 178.15 84.4141 177.893 84.2599L177.8 84.193L172.695 79.7879L168.109 83.9264C167.886 84.1271 167.561 84.1497 167.315 83.9941L167.227 83.9274L162.363 79.5579L158.116 83.6687C157.881 83.8963 157.52 83.9135 157.266 83.7242L157.185 83.6534C156.958 83.4182 156.94 83.0571 157.13 82.8028L157.201 82.7223L161.889 78.1853Z" fill="#26B6E3"/><g id="SCALABLE"><rect id="Rectangle" x="158" y="69" width="24" height="24" fill="black" fill-opacity="0.01"/></g></g><g id="Decoration 3"><path id="Fill 23" fill-rule="evenodd" clip-rule="evenodd" d="M171.178 136.101C171.194 136.425 171.073 136.583 170.893 136.708C170.638 136.886 170.402 137.156 170.119 137.217C168.827 137.497 168.424 138.567 167.912 139.561C167.425 140.51 166.752 140.597 166.29 139.644C165.674 138.376 164.896 137.439 163.545 136.899C162.811 136.607 162.818 135.688 163.567 135.393C164.924 134.858 165.716 133.944 166.305 132.647C166.719 131.734 167.474 131.811 167.891 132.725C168.378 133.791 168.87 134.778 170.15 135.126C170.616 135.254 171.071 135.615 171.178 136.101" fill="#FFFAD9"/><g id="SCALABLE_2"><rect id="Rectangle_2" x="155" y="124" width="24" height="24" fill="black" fill-opacity="0.01"/></g></g><g id="Decoration 4"><path id="Sparkle 1" fill-rule="evenodd" clip-rule="evenodd" d="M30.9983 21.4383C31.0169 21.7887 30.8826 21.9604 30.6854 22.0945C30.4045 22.2874 30.1442 22.5789 29.8344 22.645C28.4123 22.9476 27.9682 24.1055 27.4053 25.1821C26.8683 26.209 26.1289 26.3024 25.6197 25.2715C24.9422 23.9003 24.0861 22.8857 22.601 22.3017C21.7923 21.9848 21.7996 20.9904 22.6237 20.6715C24.1171 20.0936 24.9887 19.1033 25.6373 17.6996C26.0927 16.7124 26.9241 16.7967 27.3826 17.7839C27.9186 18.9388 28.4598 20.0062 29.8674 20.3841C30.3817 20.5222 30.8805 20.9112 30.9983 21.4383" fill="#FED21C"/><g id="SCALABLE_3"><rect id="Rectangle_3" x="15" y="9" width="24" height="24" fill="black" fill-opacity="0.01"/></g></g><g id="Decoration 5"><path id="Sparkle 1_2" fill-rule="evenodd" clip-rule="evenodd" d="M190.998 97.4383C191.017 97.7887 190.883 97.9604 190.685 98.0945C190.404 98.2874 190.144 98.5789 189.834 98.645C188.412 98.9476 187.968 100.106 187.405 101.182C186.868 102.209 186.129 102.302 185.62 101.272C184.942 99.9003 184.086 98.8857 182.601 98.3017C181.792 97.9848 181.8 96.9904 182.624 96.6715C184.117 96.0936 184.989 95.1033 185.637 93.6996C186.093 92.7124 186.924 92.7967 187.383 93.7839C187.919 94.9388 188.46 96.0062 189.867 96.3841C190.382 96.5222 190.881 96.9112 190.998 97.4383" fill="#FED21C"/><g id="SCALABLE_4"><rect id="Rectangle_4" x="175" y="85" width="24" height="24" fill="black" fill-opacity="0.01"/></g></g><g id="Decoration 6"><g id="Group"><path id="Fill 39" fill-rule="evenodd" clip-rule="evenodd" d="M138.688 52.1278C137.689 52.1268 136.878 51.3158 136.879 50.3158C136.88 49.3158 137.691 48.5068 138.691 48.5078C139.691 48.5078 140.5 49.3188 140.5 50.3188C140.5 51.3178 139.688 52.1288 138.688 52.1278" fill="#FF97FF"/><path id="Fill 41" fill-rule="evenodd" clip-rule="evenodd" d="M133.219 52.1239C132.22 52.1229 131.409 51.3119 131.41 50.3119C131.411 49.3119 132.222 48.5029 133.222 48.5039C134.222 48.5039 135.031 49.3149 135.031 50.3149C135.031 51.3139 134.219 52.1249 133.219 52.1239" fill="#FF97FF"/><path id="Fill 43" fill-rule="evenodd" clip-rule="evenodd" d="M128.094 52.12C127.094 52.12 126.284 51.308 126.285 50.308C126.285 49.308 127.097 48.499 128.097 48.5C129.097 48.501 129.906 49.311 129.906 50.311C129.906 51.311 129.094 52.121 128.094 52.12" fill="#FF97FF"/></g><g id="SCALABLE_5"><rect id="Rectangle_5" x="121" y="38" width="24" height="24" fill="black" fill-opacity="0.01"/></g></g><g id="Decoration 7"><path id="Fill 23_2" fill-rule="evenodd" clip-rule="evenodd" d="M108.178 78.1014C108.194 78.4254 108.073 78.5834 107.893 78.7084C107.638 78.8864 107.402 79.1564 107.119 79.2174C105.827 79.4974 105.424 80.5674 104.912 81.5614C104.425 82.5104 103.752 82.5974 103.29 81.6444C102.674 80.3764 101.896 79.4394 100.545 78.8994C99.8112 78.6074 99.8182 77.6884 100.567 77.3934C101.924 76.8584 102.716 75.9444 103.305 74.6474C103.719 73.7344 104.474 73.8114 104.891 74.7254C105.378 75.7914 105.87 76.7784 107.15 77.1264C107.616 77.2544 108.071 77.6154 108.178 78.1014" fill="#FFFAD9"/><g id="SCALABLE_6"><rect id="Rectangle_6" x="92" y="66" width="24" height="24" fill="black" fill-opacity="0.01"/></g></g><g id="Decoration 8"><path id="Sparkle 1_3" fill-rule="evenodd" clip-rule="evenodd" d="M95.9983 145.438C96.0169 145.789 95.8826 145.96 95.6854 146.094C95.4045 146.287 95.1442 146.579 94.8344 146.645C93.4123 146.948 92.9682 148.106 92.4053 149.182C91.8683 150.209 91.1289 150.302 90.6197 149.272C89.9422 147.9 89.0861 146.886 87.601 146.302C86.7923 145.985 86.7996 144.99 87.6237 144.672C89.1171 144.094 89.9887 143.103 90.6373 141.7C91.0927 140.712 91.9241 140.797 92.3826 141.784C92.9186 142.939 93.4598 144.006 94.8674 144.384C95.3817 144.522 95.8805 144.911 95.9983 145.438" fill="#FED21C"/><g id="SCALABLE_7"><rect id="Rectangle_7" x="80" y="133" width="24" height="24" fill="black" fill-opacity="0.01"/></g></g><g id="Decoration 8_2"><path id="Sparkle 1_4" fill-rule="evenodd" clip-rule="evenodd" d="M196.333 16.2557C196.344 16.4601 196.266 16.5602 196.15 16.6384C195.987 16.751 195.835 16.921 195.654 16.9595C194.824 17.1361 194.565 17.8115 194.237 18.4395C193.924 19.0385 193.492 19.093 193.195 18.4917C192.8 17.6918 192.301 17.0999 191.435 16.7593C190.963 16.5744 190.967 15.9944 191.448 15.8083C192.319 15.4712 192.827 14.8935 193.206 14.0747C193.471 13.4989 193.956 13.548 194.224 14.1239C194.537 14.7976 194.852 15.4203 195.673 15.6407C195.973 15.7212 196.264 15.9482 196.333 16.2557" fill="#FED21C"/><g id="SCALABLE_8"><rect id="Rectangle_8" x="187" y="9" width="14" height="14" fill="black" fill-opacity="0.01"/></g></g><g id="Decoration 9"><path id="Fill 23_3" fill-rule="evenodd" clip-rule="evenodd" d="M43.1782 90.1014C43.1942 90.4254 43.0732 90.5834 42.8932 90.7084C42.6382 90.8864 42.4022 91.1564 42.1192 91.2174C40.8272 91.4974 40.4242 92.5674 39.9122 93.5614C39.4252 94.5104 38.7522 94.5974 38.2902 93.6444C37.6742 92.3764 36.8962 91.4394 35.5452 90.8994C34.8112 90.6074 34.8182 89.6884 35.5672 89.3934C36.9242 88.8584 37.7162 87.9444 38.3052 86.6474C38.7192 85.7344 39.4742 85.8114 39.8912 86.7254C40.3782 87.7914 40.8702 88.7784 42.1502 89.1264C42.6162 89.2544 43.0712 89.6154 43.1782 90.1014" fill="#FFFAD9"/><g id="SCALABLE_9"><rect id="Rectangle_9" x="27" y="78" width="24" height="24" fill="black" fill-opacity="0.01"/></g></g><g id="Decoration 10"><path id="Triangle" fill-rule="evenodd" clip-rule="evenodd" d="M7.22988 147.432L14.0339 144.226C15.4966 143.537 17.1108 144.735 16.9596 146.343L16.2336 154.061C16.0818 155.675 14.2606 156.533 12.9578 155.565L6.8793 151.052C5.60656 150.106 5.79529 148.107 7.22988 147.432ZM15.0282 146.161C15.0413 146.022 14.938 145.945 14.8609 145.981L8.05625 149.187C7.95322 149.236 7.93583 149.42 8.0361 149.495L14.1147 154.007C14.1854 154.06 14.2898 154.011 14.3022 153.879L15.0282 146.161Z" fill="#FED21C"/><g id="SCALABLE_10"><rect id="Rectangle_10" y="138" width="24" height="24" fill="black" fill-opacity="0.01"/></g></g><g id="Decoration 2"><path id="Stroke 35" d="M7.36654 78.4066C7.53516 78.5883 7.54344 78.863 7.39457 79.0538L7.35408 79.0997L5.10738 81.353C4.91241 81.5486 4.59582 81.5491 4.40027 81.3541C4.21976 81.1741 4.20548 80.8905 4.3577 80.6941L4.39922 80.647L6.3065 78.734L4.26398 76.5328C4.10077 76.3569 4.08727 76.0929 4.2234 75.9024L4.26424 75.8524L6.197 73.7725L4.12674 71.4505C3.96038 71.2639 3.95914 70.9863 4.11507 70.7987L4.15732 70.7537L6.40763 68.6359C6.60872 68.4466 6.92516 68.4562 7.11442 68.6573C7.28911 68.8429 7.29437 69.1269 7.13599 69.3183L7.09298 69.3641L5.197 71.148L7.24583 73.4471C7.40316 73.6236 7.41373 73.8833 7.27916 74.0709L7.23886 74.1201L5.313 76.1925L7.36654 78.4066Z" fill="#FF67FF"/><g id="SCALABLE_11"><rect id="Rectangle_11" x="12" y="69" width="12" height="12" transform="rotate(90 12 69)" fill="black" fill-opacity="0.01"/></g></g></g></g><g id="Window" transform="translate(157 38) scale(1 1)"><g id="Window/Checkmark 3"><mask id="mask0cdcb1087-0b55-4f31-bcad-23cbc9509b1f" mask-type="alpha" maskUnits="userSpaceOnUse" x="10" y="11" width="62" height="52" fill="#ffffff"><path id="Clip 142" fill-rule="evenodd" clip-rule="evenodd" d="M10 11H71.3217V62.276H10V11Z" fill="#ffffff"/></mask><g mask="url(#mask0cdcb1087-0b55-4f31-bcad-23cbc9509b1f)"><path id="Fill 141" fill-rule="evenodd" clip-rule="evenodd" d="M60.52 52.651H32.363L23.326 62.276V52.651H20.802C14.836 52.651 10 47.815 10 41.849V21.801C10 15.836 14.836 11 20.802 11H60.52C66.486 11 71.322 15.836 71.322 21.801V41.849C71.322 47.815 66.486 52.651 60.52 52.651" fill="#C2F5FF"/><path id="Fill 144" fill-rule="evenodd" clip-rule="evenodd" d="M55.9541 31.9098C55.9541 40.3558 49.1071 47.2028 40.6621 47.2028C32.2161 47.2028 25.3691 40.3558 25.3691 31.9098C25.3691 23.4648 32.2161 16.6178 40.6621 16.6178C49.1071 16.6178 55.9541 23.4648 55.9541 31.9098" fill="#EFF2F9"/><path id="Fill 146" fill-rule="evenodd" clip-rule="evenodd" d="M40.8797 40.0465L31.3027 32.6195L34.6367 28.3185L40.0747 32.5365L47.1247 24.1245L51.2947 27.6205L40.8797 40.0465Z" fill="#00A8C4"/></g></g></g><g id="Pet" transform="translate(199 186) scale(1 1)"><g id="Pet/Pink Cat"><g id="Group 49"><g id="Group 26"><path id="Fill 1" fill-rule="evenodd" clip-rule="evenodd" d="M38.1128 50.6886C38.4188 51.0136 38.4318 51.3806 38.5628 51.6996C38.6428 51.8906 38.6158 52.0906 38.4348 52.2066C38.2218 52.3396 37.9868 52.2676 37.8108 52.1296C37.3898 51.7986 37.4098 51.2416 37.8378 50.8726C37.9058 50.8126 37.9888 50.7696 38.1128 50.6886" fill="#2D52A2"/><g id="Group 5"><mask id="mask0e9379683-f289-4b89-a04c-67ff41e7fd1b" mask-type="alpha" maskUnits="userSpaceOnUse" x="10" y="8" width="34" height="60" fill="#ffffff"><path id="Clip 4" fill-rule="evenodd" clip-rule="evenodd" d="M44 8.0004H10.9435V67.8295H44V8.0004Z" fill="#ffffff"/></mask><g mask="url(#mask0e9379683-f289-4b89-a04c-67ff41e7fd1b)"><path id="Fill 3" fill-rule="evenodd" clip-rule="evenodd" d="M11.41 22.0685C11.821 22.0465 12.231 22.0155 12.641 22.0075C12.968 22.0015 13.081 21.8155 13.119 21.5285C13.159 21.2265 12.972 21.1595 12.736 21.0915C12.31 20.9685 11.891 20.8205 11.471 20.6795C11.242 20.6025 11.054 20.4565 11.079 20.2025C11.111 19.8855 11.395 19.8155 11.647 19.7985C11.829 19.7865 12.02 19.8595 12.202 19.9135C12.385 19.9665 12.557 20.0625 12.742 20.1055C13.118 20.1925 13.344 20.1105 13.344 19.6405C13.344 19.1025 13.375 18.5545 13.479 18.0285C13.859 16.1025 14.359 14.2125 15.041 12.3645C15.306 11.6455 15.697 10.9905 15.941 10.2665C16.218 9.4485 16.628 8.7015 17.237 8.0765C17.594 8.0055 17.951 7.9635 18.311 8.0445C19.319 9.3075 19.915 10.7845 20.452 12.2805C20.73 13.0545 20.668 13.0635 21.458 13.0615C21.874 13.0605 22.183 12.9695 22.387 12.5565C22.61 12.1005 22.892 11.6725 23.17 11.2445C23.726 10.3885 24.259 9.5155 24.871 8.7015C25.601 7.7295 26.556 7.8175 27.16 8.8635C27.673 9.7505 28.021 10.7055 28.329 11.6785C29.016 13.8425 29.442 16.0645 29.812 18.2985C29.863 18.6095 29.907 18.9195 30.156 19.1255C30.5 18.9875 30.791 18.8675 31.085 18.7555C31.386 18.6395 31.742 18.4805 31.899 18.9025C32.046 19.3005 31.679 19.4505 31.4 19.5975C31.146 19.7315 30.887 19.8635 30.616 19.9565C30.108 20.1295 30.26 20.4705 30.366 20.8105C30.472 21.1465 30.64 21.4385 31.045 21.2615C31.502 21.0615 31.995 21.1485 32.455 21.0135C32.714 20.9375 32.995 20.8875 33.062 21.2445C33.126 21.5805 32.841 21.6615 32.593 21.7365C32.226 21.8485 31.853 21.9425 31.493 22.0695C31.265 22.1495 31.101 22.2955 31.246 22.5785C31.716 23.4965 32.114 24.4655 32.669 25.3395L32.674 25.3375C32.682 25.3485 32.69 25.3605 32.699 25.3725C32.711 25.3905 32.725 25.4135 32.742 25.4385C32.739 25.4385 32.737 25.4395 32.734 25.4405C32.794 25.5325 32.847 25.6285 32.911 25.7165C32.812 25.7405 32.713 25.7645 32.614 25.7885C33.341 27.3445 33.3 29.2385 33.458 30.9965C33.7 33.6795 34.53 36.3085 35.873 38.6445C36.772 40.2075 38.028 41.7755 39.711 42.5335C40.223 42.7635 41.299 42.7615 41.606 43.2705C41.627 43.3055 41.63 43.3435 41.644 43.3795C44.329 47.8005 45.506 57.0395 40.837 60.4765C35.679 64.2725 29.811 66.6895 23.534 67.3695C22.021 67.5335 20.507 67.6555 18.991 67.7735C17.785 67.8675 16.577 67.8465 15.378 67.6855C14.058 67.5085 13.694 67.1855 13.452 66.0605C12.929 63.6275 16.304 62.9065 17.95 62.4755C20.252 61.8745 22.618 61.5765 24.961 61.1915C28.46 60.6165 32.018 59.6695 35.303 58.3265C35.897 58.0835 36.605 58.0225 37.092 57.3905C36.658 57.2805 36.297 57.3695 35.934 57.4175C34.987 57.5395 34.046 57.7505 33.087 57.7305C30.918 57.6855 28.765 57.9595 26.601 58.0135C24.6 58.0635 22.608 58.1275 20.616 57.7795C19.876 57.6505 19.123 57.4175 18.351 57.5325C17.494 57.6615 16.652 57.5785 15.8 57.4645C15.219 57.3885 14.773 57.1605 14.416 56.7185C14.385 56.4835 14.354 56.2485 14.324 56.0135C15.429 54.5855 16.36 54.0665 16.462 52.1225C16.864 44.3915 17.519 36.6375 17.247 28.9165C17.216 28.0175 16.847 27.4695 15.969 27.1465C14.695 26.6755 13.684 25.8795 13.424 24.4245C13.368 24.1125 13.331 23.7975 13.28 23.4845C13.226 23.1625 13.07 22.9855 12.705 22.9855C12.261 22.9855 11.814 22.9475 11.374 22.8835C11.16 22.8525 10.922 22.7365 10.945 22.4605C10.966 22.2065 11.157 22.0825 11.41 22.0685" fill="#F28DFD"/></g></g><path id="Fill 6" fill-rule="evenodd" clip-rule="evenodd" d="M16.1344 17.5919C17.1934 17.7919 17.9694 18.0489 18.5784 18.6659C18.7934 18.8849 18.9554 19.1449 18.7534 19.4249C18.5594 19.6949 18.2434 19.6549 17.9764 19.5289C17.5464 19.3279 17.1534 19.0119 16.7054 18.8959C16.1634 18.7549 15.5734 18.6729 15.0394 19.0089C14.8794 19.1109 14.7184 19.1999 14.5174 19.2239C14.2784 19.2509 14.0754 19.2389 13.9404 19.0099C13.7844 18.7439 13.8464 18.5119 14.0754 18.3369C14.7514 17.8209 15.4804 17.4639 16.1344 17.5919" fill="#E5569D"/><path id="Fill 8" fill-rule="evenodd" clip-rule="evenodd" d="M24.9857 18.0773C25.3477 18.1973 25.9587 18.2823 26.3417 18.8233C26.4557 18.9833 26.5687 19.1423 26.4597 19.3393C26.3527 19.5323 26.1507 19.5603 25.9607 19.5383C25.7767 19.5163 25.5747 19.4823 25.4217 19.3883C24.5997 18.8843 23.8157 18.8823 23.0527 19.5003C23.0047 19.5393 22.9457 19.5683 22.8887 19.5953C22.5627 19.7483 22.2607 19.7303 22.0587 19.4033C21.8657 19.0903 22.0527 18.8683 22.2917 18.6763C23.0237 18.0893 23.8657 17.9273 24.9857 18.0773" fill="#E5569D"/><path id="Fill 10" fill-rule="evenodd" clip-rule="evenodd" d="M15.4727 54.5372C15.4907 54.4872 15.5077 54.4382 15.5257 54.3892C15.5607 54.4252 15.5967 54.4622 15.6327 54.4992L15.5587 54.5462L15.4727 54.5372Z" fill="#F8CC5D"/><path id="Fill 12" fill-rule="evenodd" clip-rule="evenodd" d="M25.1819 24.5695C24.1399 24.5425 23.5859 24.1495 23.5059 23.3795C23.4129 22.4855 24.1139 21.6665 25.1379 21.4705C25.9379 21.3185 26.6359 21.7535 26.8979 22.5665C27.2429 23.6325 26.4129 24.6005 25.1819 24.5695" fill="#F6C1D8"/><path id="Fill 14" fill-rule="evenodd" clip-rule="evenodd" d="M22.3596 23.4396C22.0246 24.1286 21.1426 24.4406 20.4276 24.2066C19.6186 23.9406 19.1556 23.1196 19.1266 22.3006L19.8486 22.4976C19.5226 23.2126 19.0736 23.9886 18.2206 24.1216C17.8936 24.1716 17.5266 24.1126 17.2446 23.9296C16.9716 23.7526 16.8146 23.4726 16.6886 23.1806C16.6056 22.9876 16.6326 22.7676 16.8276 22.6516C16.9906 22.5536 17.2756 22.5976 17.3576 22.7906C17.5136 23.1526 17.7126 23.4616 18.1656 23.3446C18.7156 23.2016 18.9676 22.5716 19.1796 22.1056C19.3486 21.7346 19.8896 21.9486 19.9016 22.3006C19.9186 22.7716 20.1666 23.2896 20.6336 23.4596C21.0376 23.6056 21.5036 23.4336 21.6906 23.0476C21.9086 22.5996 22.5766 22.9926 22.3596 23.4396" fill="#E5569D"/><path id="Fill 16" fill-rule="evenodd" clip-rule="evenodd" d="M19.5157 21.8995C19.8277 21.9235 20.1457 21.8575 20.4217 21.7095C20.6857 21.5665 20.9307 21.2665 20.8137 20.9895C20.7327 20.7995 20.5157 20.7115 20.3157 20.6615C19.9087 20.5605 19.4817 20.5415 19.0677 20.6065C18.7657 20.6535 18.4137 20.8085 18.3847 21.1135C18.3617 21.3615 18.5687 21.5665 18.7727 21.7085C18.9467 21.8295 19.1367 21.9365 19.3457 21.9685C19.5547 22.0025 19.7867 21.9475 19.9257 21.7885" fill="#E5569D"/><path id="Fill 18" fill-rule="evenodd" clip-rule="evenodd" d="M29.1134 29.5197C29.3634 28.5097 29.9114 27.6027 30.6904 26.9137C31.3264 26.3487 32.0884 25.9547 32.8954 25.6997C34.2014 27.9867 39.8914 39.4387 41.4824 42.9657C39.7984 44.6417 37.5514 45.6217 35.1634 45.5867C33.9684 45.5707 32.7874 45.3117 31.6764 44.8797C30.5334 44.4347 29.4334 43.8247 28.5784 42.9327C27.8124 42.1337 27.2874 41.1357 27.0974 40.0417C26.9974 39.4637 26.9954 38.8707 27.0644 38.2887C27.1384 37.6607 27.3334 37.0997 27.6514 36.5537C27.9524 36.0357 28.3114 35.5507 28.5744 35.0107C28.8454 34.4577 28.9614 33.8787 28.9924 33.2667C29.0544 32.0147 28.8074 30.7517 29.1134 29.5197" fill="#DA63E9"/><path id="Fill 20" fill-rule="evenodd" clip-rule="evenodd" d="M26.9019 10.9689C26.7789 10.6639 26.6319 10.3359 26.3389 10.1899C26.0239 10.0319 25.6269 10.1449 25.3599 10.3739C25.0939 10.6049 24.9329 10.9309 24.7929 11.2529C24.5269 11.8649 24.3099 12.4969 24.1459 13.1429C23.8229 14.4089 24.8299 14.9729 25.8479 15.4949C26.4999 15.8289 27.2019 16.0609 27.9209 16.2029C28.0119 16.2209 28.1189 16.2339 28.1889 16.1719C28.2639 16.1069 28.2589 15.9899 28.2469 15.8919C28.0419 14.2059 27.5349 12.5409 26.9019 10.9689" fill="#D2157E"/><path id="Fill 22" fill-rule="evenodd" clip-rule="evenodd" d="M17.0478 10.1242C17.2358 9.8562 17.4548 9.5702 17.7738 9.4942C18.1158 9.4132 18.4768 9.6122 18.6838 9.8962C18.8908 10.1812 18.9738 10.5352 19.0368 10.8812C19.1568 11.5372 19.2238 12.2022 19.2368 12.8692C19.2428 13.1582 19.2358 13.4592 19.1148 13.7232C18.8288 14.3432 18.1118 14.6042 17.5138 14.7842C16.6818 15.0342 15.7568 15.2782 14.9738 14.9032C15.4888 13.1512 15.9838 11.6412 17.0478 10.1242" fill="#D2157E"/><path id="Fill 24" fill-rule="evenodd" clip-rule="evenodd" d="M18.7311 55.7081C19.4741 55.4011 20.1951 55.0491 20.8901 54.6461C21.2001 54.4671 21.4941 54.2621 21.8031 54.0811C21.9791 53.9781 22.0981 53.9551 22.0911 53.8121C22.0871 53.7151 21.9351 53.5281 21.8891 53.4381C21.2981 52.2931 20.9251 51.0501 20.7641 49.7721C20.4411 47.2241 20.9891 44.6081 22.3441 42.4221C22.5981 42.0131 23.2481 42.3891 22.9921 42.8011C21.4501 45.2881 21.0231 48.3601 21.8051 51.1811C21.9951 51.8641 22.2521 52.5271 22.5851 53.1541C22.7871 53.5351 23.0921 53.9321 22.7441 54.3261C22.3161 54.8111 21.5151 55.1621 20.9581 55.4711C20.3011 55.8331 19.6231 56.1451 18.9301 56.4311C18.4841 56.6141 18.2901 55.8901 18.7311 55.7081" fill="#DA63E9"/></g><g id="Group 48"><path id="Fill 30" fill-rule="evenodd" clip-rule="evenodd" d="M16.1344 17.5919C17.1934 17.7919 17.9694 18.0489 18.5784 18.6659C18.7934 18.8849 18.9554 19.1449 18.7534 19.4249C18.5594 19.6949 18.2434 19.6549 17.9764 19.5289C17.5464 19.3279 17.1534 19.0119 16.7054 18.8959C16.1634 18.7549 15.5734 18.6729 15.0394 19.0089C14.8794 19.1109 14.7184 19.1999 14.5174 19.2239C14.2784 19.2509 14.0754 19.2389 13.9404 19.0099C13.7844 18.7439 13.8464 18.5119 14.0754 18.3369C14.7514 17.8209 15.4804 17.4639 16.1344 17.5919" fill="#C03DCF"/><path id="Fill 32" fill-rule="evenodd" clip-rule="evenodd" d="M24.9857 18.0773C25.3477 18.1973 25.9587 18.2823 26.3417 18.8233C26.4557 18.9833 26.5687 19.1423 26.4597 19.3393C26.3527 19.5323 26.1507 19.5603 25.9607 19.5383C25.7767 19.5163 25.5747 19.4823 25.4217 19.3883C24.5997 18.8843 23.8157 18.8823 23.0527 19.5003C23.0047 19.5393 22.9457 19.5683 22.8887 19.5953C22.5627 19.7483 22.2607 19.7303 22.0587 19.4033C21.8657 19.0903 22.0527 18.8683 22.2917 18.6763C23.0237 18.0893 23.8657 17.9273 24.9857 18.0773" fill="#C03DCF"/><path id="Fill 34" fill-rule="evenodd" clip-rule="evenodd" d="M15.4727 54.5372C15.4907 54.4872 15.5077 54.4382 15.5257 54.3892C15.5607 54.4252 15.5967 54.4622 15.6327 54.4992L15.5587 54.5462L15.4727 54.5372Z" fill="#F8CC5D"/><path id="Fill 36" fill-rule="evenodd" clip-rule="evenodd" d="M25.1819 24.5695C24.1399 24.5425 23.5859 24.1495 23.5059 23.3795C23.4129 22.4855 24.1139 21.6665 25.1379 21.4705C25.9379 21.3185 26.6359 21.7535 26.8979 22.5665C27.2429 23.6325 26.4129 24.6005 25.1819 24.5695" fill="#DA63E9"/><path id="Fill 38" fill-rule="evenodd" clip-rule="evenodd" d="M14.4626 24.0773C13.5846 24.0553 13.1176 23.7233 13.0506 23.0743C12.9726 22.3203 13.5626 21.6303 14.4256 21.4663C15.0996 21.3383 15.6876 21.7043 15.9086 22.3903C16.1986 23.2883 15.5006 24.1033 14.4626 24.0773" fill="#DA63E9"/><path id="Fill 40" fill-rule="evenodd" clip-rule="evenodd" d="M22.3596 23.4396C22.0246 24.1286 21.1426 24.4406 20.4276 24.2066C19.6186 23.9406 19.1556 23.1196 19.1266 22.3006L19.8486 22.4976C19.5226 23.2126 19.0736 23.9886 18.2206 24.1216C17.8936 24.1716 17.5266 24.1126 17.2446 23.9296C16.9716 23.7526 16.8146 23.4726 16.6886 23.1806C16.6056 22.9876 16.6326 22.7676 16.8276 22.6516C16.9906 22.5536 17.2756 22.5976 17.3576 22.7906C17.5136 23.1526 17.7126 23.4616 18.1656 23.3446C18.7156 23.2016 18.9676 22.5716 19.1796 22.1056C19.3486 21.7346 19.8896 21.9486 19.9016 22.3006C19.9186 22.7716 20.1666 23.2896 20.6336 23.4596C21.0376 23.6056 21.5036 23.4336 21.6906 23.0476C21.9086 22.5996 22.5766 22.9926 22.3596 23.4396" fill="#C03DCF"/><path id="Fill 42" fill-rule="evenodd" clip-rule="evenodd" d="M19.5138 21.8995C19.8258 21.9235 20.1438 21.8575 20.4198 21.7095C20.6838 21.5665 20.9288 21.2665 20.8118 20.9895C20.7308 20.7995 20.5138 20.7115 20.3138 20.6615C19.9068 20.5605 19.4798 20.5415 19.0658 20.6065C18.7638 20.6535 18.4118 20.8085 18.3828 21.1135C18.3598 21.3615 18.5668 21.5665 18.7708 21.7085C18.9448 21.8295 19.1348 21.9365 19.3438 21.9685C19.5528 22.0025 19.7848 21.9475 19.9238 21.7885" fill="#C03DCF"/><path id="Fill 44" fill-rule="evenodd" clip-rule="evenodd" d="M26.9019 10.9689C26.7789 10.6639 26.6319 10.3359 26.3389 10.1899C26.0239 10.0319 25.6269 10.1449 25.3599 10.3739C25.0939 10.6049 24.9329 10.9309 24.7929 11.2529C24.5269 11.8649 24.3099 12.4969 24.1459 13.1429C23.8229 14.4089 24.8299 14.9729 25.8479 15.4949C26.4999 15.8289 27.2019 16.0609 27.9209 16.2029C28.0119 16.2209 28.1189 16.2339 28.1889 16.1719C28.2639 16.1069 28.2589 15.9899 28.2469 15.8919C28.0419 14.2059 27.5349 12.5409 26.9019 10.9689" fill="#DA63E9"/><path id="Fill 46" fill-rule="evenodd" clip-rule="evenodd" d="M17.0458 10.1242C17.2338 9.8562 17.4528 9.5702 17.7718 9.4942C18.1138 9.4132 18.4748 9.6122 18.6818 9.8962C18.8888 10.1812 18.9718 10.5352 19.0348 10.8812C19.1548 11.5372 19.2218 12.2022 19.2348 12.8692C19.2408 13.1582 19.2338 13.4592 19.1128 13.7232C18.8268 14.3432 18.1098 14.6042 17.5118 14.7842C16.6798 15.0342 15.7548 15.2782 14.9718 14.9032C15.4868 13.1512 15.9818 11.6412 17.0458 10.1242" fill="#DA63E9"/></g></g></g></g><g id="Chairs" transform="translate(90 124) scale(1 1)"><g id="Chairs/Chair"><g id="Chair"><path id="Fill 9" fill-rule="evenodd" clip-rule="evenodd" d="M50.3701 118.47C49.5092 118.47 48.7593 117.806 48.6419 116.893L41.3399 60.1054H10.7826L3.59365 116.889C3.46777 117.886 2.59089 118.586 1.63508 118.453C0.679257 118.322 0.00719786 117.41 0.133076 116.413L7.52146 58.0499C7.63561 57.1466 8.37594 56.47 9.25175 56.47H42.8665C43.7412 56.47 44.4805 57.1444 44.5968 58.0466L52.1025 116.41C52.2294 117.406 51.5595 118.32 50.6037 118.453C50.5258 118.464 50.4469 118.47 50.3701 118.47" fill="#A12BB6"/><g id="Group 3"><path id="Fill 1" fill-rule="evenodd" clip-rule="evenodd" d="M72.3701 118.47C71.5092 118.47 70.7593 117.806 70.6419 116.893L63.3399 60.1054H32.7826L25.5936 116.889C25.4678 117.886 24.5909 118.586 23.6351 118.453C22.6793 118.322 22.0072 117.41 22.1331 116.413L29.5215 58.0499C29.6356 57.1466 30.3759 56.47 31.2518 56.47H64.8665C65.7412 56.47 66.4805 57.1444 66.5968 58.0466L74.1025 116.41C74.2294 117.406 73.5595 118.32 72.6037 118.453C72.5258 118.464 72.4469 118.47 72.3701 118.47" fill="#974CCD"/></g><g id="Group 6"><path id="Fill 4" fill-rule="evenodd" clip-rule="evenodd" d="M17.2172 1.00162C20.8762 1.00061 24.5342 1.00061 28.1932 0.9996C31.8152 0.9996 35.5072 1.00968 38.9522 2.13517C42.3982 3.26066 45.6202 5.70728 46.7502 9.17652C47.5902 11.7583 47.1762 14.4762 47.3512 17.1346C47.5122 19.5913 48.2762 22.0238 48.7102 24.4593C49.6722 29.8468 51.1282 35.1444 53.0582 40.2625C54.5402 44.1917 56.3992 48.15 59.5922 50.8528C61.7622 52.6883 64.6322 54.081 65.5282 56.7909C65.6322 57.1055 65.6922 57.4877 65.4752 57.7368C64.3392 59.0378 60.3672 58.9995 58.8972 58.9995C50.1492 58.8008 41.4012 58.6021 32.6532 58.4035C29.8152 58.3389 26.9492 58.2713 24.2002 57.5593C20.0812 56.4934 13.5929 56.9002 10.0689 54.5C9.00793 53.7769 7.93194 53.0407 7.10694 52.0544C3.90093 48.2221 6.48824 40.6932 6.39524 35.8877C6.24224 27.9709 6.09024 20.0401 6.71024 12.1476C6.87024 10.1104 7.08924 8.047 7.83024 6.14497C8.57124 4.24193 9.90224 2.49218 11.7582 1.67126C13.2492 1.01372 14.9312 1.00162 16.5582 1.00162H17.2172Z" fill="#771F98"/></g><path id="Fill 7" fill-rule="evenodd" clip-rule="evenodd" d="M15.8533 58.1061C9.37029 58.1061 2.42629 54.5571 1.43129 48.1511C0.100286 39.5841 -0.228714 31.2871 0.142286 23.6731C0.563286 15.0621 4.67429 7.0511 11.4443 1.7131C11.4443 1.7131 15.5323 19.5291 10.3913 44.1181C7.36216 60.7936 30.9297 53.1944 43.5384 55.4198C50.1999 56.5955 50.4533 59 50.4533 59L15.8533 58.1061Z" fill="#A12BB6"/></g></g></g><g id="Master/Character/Sitting" transform="translate(51 6) scale(1 1)"><g id="Master/Character/Sitting"><g id="Lower Body/Sitting" transform="translate(32 113) scale(1 1)"><g id="Lower Body/Sitting/Skirt"><g id="Group 15"><path id="Fill 1" fill-rule="evenodd" clip-rule="evenodd" d="M75.7368 110C75.7368 110 75.6579 89.0877 76.0835 83.9614C76.3422 80.8419 76.8856 77.7367 77.409 74.6458C77.6348 73.3178 79.4957 67.7665 78.2501 66.8716C77.2851 66.1794 41.7541 62 38.4206 62C21.8747 62 29.0332 46.4265 30.6375 40.2547C31.075 38.5707 52.1316 40.2547 52.1316 40.2547C52.1316 40.2547 62.7271 47.5106 65.0905 47.9607C87.0315 52.1473 88.9064 57.7641 90.1341 58.7944C91.7134 60.1161 92.1639 63.3468 91.9511 67.4491C91.3138 79.7811 82.2807 110 82.2807 110H75.7368Z" fill="#432C82"/><path id="Fill 3" fill-rule="evenodd" clip-rule="evenodd" d="M95.546 122L72.0916 117.781C71.9809 117.466 71.9769 117.047 72.0456 116.561C72.2975 114.76 73.567 112.043 74.2787 110.313C74.364 110.111 74.4395 109.923 74.5032 109.75C74.614 109.46 74.6964 109.216 74.7375 109.034C75.065 107.577 76.4512 108.086 76.4512 108.086C78.3569 110.595 81.7459 107.956 83.085 109.263C83.085 109.263 83.1399 109.315 83.2605 109.443C83.3713 109.559 83.5389 109.739 83.7693 109.998C84.1026 110.368 84.5663 110.903 85.1888 111.65C86.7123 113.483 89.6572 115.042 92.1276 116.536C92.4413 116.726 92.7315 116.911 92.9991 117.092C93.202 117.231 93.3922 117.366 93.5697 117.498C95.5342 118.959 96.0077 120.102 95.9999 120.87C95.993 121.607 95.546 122 95.546 122" fill="#FF67FF"/><path id="Fill 5" fill-rule="evenodd" clip-rule="evenodd" d="M95.5451 123L72.0916 118.346C71.9809 117.999 71.9769 117.537 72.0456 117L96 121.753C95.9931 122.566 95.5451 123 95.5451 123" fill="#7E4DCD"/><path id="Fill 7" fill-rule="evenodd" clip-rule="evenodd" d="M96.6467 101C96.6467 101 86.3711 82.4748 84.1734 77.7381C81.9746 73.0031 78.0408 61.4651 78.0408 61.4651C78.0408 61.4651 71.9996 59.9234 56.1676 59.9234C18.3451 59.9234 27.7611 43.8445 27.7611 43.8445L43.3515 45C43.3515 45 70.4437 47.6382 78.7248 48.6789C80.7193 48.9291 82.5268 49.2668 84.1502 49.6903C86.2373 50.2352 88.2681 52.9297 90.142 56.6685C95.7747 67.9046 103 98.9881 103 98.9881L96.6467 101Z" fill="#432C82"/><path id="Fill 9" fill-rule="evenodd" clip-rule="evenodd" d="M119.942 104.403L96.1675 110C95.9029 109.765 95.6817 109.395 95.4948 108.936C94.7959 107.239 94.5596 104.325 94.3203 102.508C94.294 102.295 94.2667 102.098 94.2374 101.921C94.189 101.618 94.1395 101.369 94.0829 101.191C93.6315 99.769 95.1706 99.669 95.1706 99.669C98.2207 101.135 99.978 97.4468 101.886 98.0721C101.886 98.0721 101.964 98.0965 102.14 98.1608C102.303 98.22 102.549 98.3122 102.896 98.4496C103.394 98.6462 104.098 98.9358 105.057 99.3507C107.407 100.369 110.924 100.58 113.97 100.92C114.359 100.963 114.721 101.013 115.061 101.067C115.319 101.108 115.564 101.152 115.797 101.198C118.36 101.711 119.386 102.537 119.776 103.221C120.151 103.877 119.942 104.403 119.942 104.403" fill="#FF67FF"/><path id="Fill 11" fill-rule="evenodd" clip-rule="evenodd" d="M119.943 104.221L96.6597 110C96.4006 109.757 96.184 109.375 96 108.902L119.781 103C120.147 103.677 119.943 104.221 119.943 104.221" fill="#7E4DCD"/><path id="Fill 13" fill-rule="evenodd" clip-rule="evenodd" d="M45.6664 36C45.6664 36 81.307 36.8293 91.9997 43.8446C102.692 50.8589 104 90.9246 104 90.9246C104 90.9246 83.9997 98 68.2199 90.9246C68.2199 90.9246 64.3417 67.7315 57.9997 64.8697C57.1553 63.8475 42.8519 62.8858 33.8259 62.3768C29.4843 62.132 25.7525 59.1374 25.3156 54.8109C24.6894 48.6095 24.8497 39.6317 29.4311 33L45.6664 36Z" fill="#C664E9"/></g></g></g><g id="Head" transform="translate(33 40) scale(1 1)"><g id="Head/Pink Bob"><g id="Group 24"><path id="Fill 1" fill-rule="evenodd" clip-rule="evenodd" d="M50.6134 39.1237C50.4384 38.2477 50.2214 37.3797 49.8444 36.5717C48.6864 34.0957 45.9304 32.5197 43.2214 32.6027C41.7874 32.6447 40.4474 32.6347 39.0534 33.0647C37.3734 33.5847 35.8074 34.4217 34.3084 35.3287C30.3034 37.7537 26.4774 40.9767 24.9274 45.3207C24.4914 46.5407 24.2504 47.8117 24.0104 49.0787C23.8904 49.7097 23.7714 50.3417 23.6514 50.9727C23.6004 51.2397 23.5504 51.5167 23.6074 51.7797C23.7464 52.4187 24.4324 52.7467 24.9344 53.1697C25.3574 53.5247 25.6774 53.9957 25.8534 54.5177C25.9194 54.7137 25.9864 54.9407 26.1804 55.0207C26.3244 55.0797 26.4884 55.0337 26.6454 55.0147C27.6344 54.8947 28.1284 55.9787 29.0704 56.0817C29.4984 56.1277 30.0564 55.8777 30.0094 55.4577C30.1904 57.0837 41.4884 57.0187 42.7984 57.2497C43.8354 57.4327 47.2434 58.9697 47.0864 56.8077C47.1664 56.8717 47.4224 57.1507 47.5254 57.1377C47.7944 57.1027 47.9954 57.1267 48.2384 57.0427C48.4084 56.9837 48.5374 56.8427 48.6994 56.7617C48.8844 56.6677 49.1024 56.6707 49.2474 56.5007C49.3124 56.4257 49.3474 56.3297 49.4084 56.2517C49.5304 56.0947 49.8214 56.0827 49.9884 55.9787C50.2834 55.7957 50.3114 55.3937 50.3064 55.0557C50.6734 55.0697 50.9874 55.2897 51.3124 55.4507C51.7894 55.6857 52.3294 55.8017 52.8684 55.7847C53.1054 55.7767 53.3574 55.7377 53.5404 55.5857C53.7914 55.3767 53.8314 54.9667 53.6234 54.7257C54.3734 54.6517 55.6484 54.2717 54.8394 53.4137C54.6724 53.2357 54.4884 53.0647 54.4214 52.8167C53.6634 51.5857 53.0154 50.3707 52.4664 49.0187C51.9484 47.7417 51.4294 46.4647 50.9114 45.1877C50.7094 44.6907 50.6404 44.2757 50.5344 43.7687C50.4404 43.3157 50.0494 42.9627 50.1084 42.4737C50.3834 42.8107 50.4314 43.1667 50.6164 43.4517C51.6914 45.1117 52.0644 47.1667 53.3174 48.7217C53.8834 49.4247 54.7104 50.1677 55.6914 50.1437C57.4314 50.0997 55.6754 49.3977 55.0544 49.1417C53.5094 48.5007 52.7304 46.8707 52.1254 45.4177C51.8284 44.7077 51.4294 43.9477 51.2234 43.2087C50.9334 42.1677 50.9544 40.9527 50.7554 39.8687C50.7094 39.6207 50.6634 39.3717 50.6134 39.1237" fill="#9D3188"/><path id="Fill 3" fill-rule="evenodd" clip-rule="evenodd" d="M46.344 47.3161C46.003 48.0671 46.075 49.0381 46.645 49.7071C47.43 50.6281 48.818 50.7381 49.739 49.9531C50.659 49.1681 50.77 47.7801 49.985 46.8591C49.496 46.2851 48.773 46.0271 48.074 46.1031C48.02 45.9811 47.968 45.8561 47.947 45.7301C48.794 45.6101 49.683 45.9111 50.278 46.6091C51.201 47.6911 51.071 49.3231 49.989 50.2461C48.906 51.1691 47.275 51.0391 46.352 49.9561C45.697 49.1871 45.6 48.0981 45.978 47.2201L46.344 47.3161Z" fill="#EFF2F9"/><path id="Fill 3" fill-rule="evenodd" clip-rule="evenodd" d="M43.8892 53.8614L43.6872 61.5304C43.6212 64.2234 41.9272 65.6234 39.2772 65.5384C37.0142 65.4654 34.9272 64.2284 34.7192 61.9744L35.6172 49.9214L43.8892 53.8614Z" fill="#9f91ca"/><path id="Fill 6" fill-rule="evenodd" clip-rule="evenodd" d="M43.7642 57.6016C38.3972 57.607 34.9902 50.6016 34.9902 50.6016L43.9252 52.6083L43.7642 57.6016Z" fill="#00023C" fill-opacity="0.18"/><path id="Fill 9" fill-rule="evenodd" clip-rule="evenodd" d="M41.1988 54.0973V54.0973C45.6738 54.2553 49.4838 50.8503 49.7358 47.2003L50.2788 38.5833C50.5938 34.0073 47.7988 30.0253 43.2368 29.5593H43.2358C38.5658 29.0823 32.9988 32.3793 32.5218 37.0503L32.1608 43.9853C31.8818 49.3493 35.8558 53.5513 41.1988 54.0973" fill="#9f91ca"/><path id="Fill 11" fill-rule="evenodd" clip-rule="evenodd" d="M27.9769 44.0133C27.7809 45.9283 29.1749 47.6393 31.0899 47.8343C33.0049 48.0313 34.7149 46.6363 34.9109 44.7223C35.1059 42.8073 33.7129 41.0963 31.7979 40.9013C29.8829 40.7053 28.1719 42.0993 27.9769 44.0133" fill="#9f91ca"/><path id="Fill 13" fill-rule="evenodd" clip-rule="evenodd" d="M31.5508 45.4899C31.5508 45.4899 31.8078 42.9759 29.3638 43.1269Z" fill="#CABFE2"/><path id="Fill 15" fill-rule="evenodd" clip-rule="evenodd" d="M31.3626 48.4323C31.1096 49.1483 30.4426 49.7453 29.6376 49.8263C28.5296 49.9353 27.5396 49.1223 27.4296 48.0153C27.3196 46.9073 28.1316 45.9153 29.2396 45.8053C29.9306 45.7373 30.5746 46.0283 30.9886 46.5243C31.1036 46.4773 31.2176 46.4273 31.3116 46.3583C30.8266 45.7373 30.0446 45.3693 29.2046 45.4533C27.9026 45.5823 26.9476 46.7463 27.0766 48.0493C27.2056 49.3523 28.3706 50.3073 29.6736 50.1783C30.5986 50.0863 31.3576 49.4253 31.6666 48.6023L31.3626 48.4323Z" fill="#EFF2F9"/><path id="Fill 17" fill-rule="evenodd" clip-rule="evenodd" d="M49.0874 34.3571L49.0864 34.3551C49.0864 34.3561 49.0864 34.3561 49.0864 34.3561C49.0874 34.3561 49.0874 34.3561 49.0874 34.3571" fill="#F0B8D1"/><path id="Fill 19" fill-rule="evenodd" clip-rule="evenodd" d="M41.7051 35.7604L41.7061 35.7594C41.7061 35.7594 41.7051 35.7594 41.7051 35.7604" fill="#F0B8D1"/><g id="Group 23"><path id="Fill 21" fill-rule="evenodd" clip-rule="evenodd" d="M32.4675 50.631C32.4265 51.221 32.3545 51.81 32.2925 52.4C32.2835 52.486 32.2895 52.619 32.1675 52.609C32.0415 52.599 32.0825 52.464 32.0795 52.382C32.0425 51.365 32.0635 50.346 32.1285 49.335C32.1905 48.38 32.2415 47.423 32.3815 46.472C32.4985 45.687 32.5465 44.892 32.6515 44.105C32.6985 43.749 32.7255 43.381 32.9035 42.978C32.9955 43.219 33.0245 43.393 33.0175 43.566C32.9915 44.261 32.9805 44.959 32.9195 45.652C32.7735 47.312 32.5825 48.967 32.4675 50.631ZM37.9105 28.607C37.5025 28.62 36.5875 28.761 35.6635 28.96C33.7935 29.1 31.9965 30.22 30.6485 31.467C28.8745 33.111 27.4915 35.199 26.4955 37.394C25.4035 39.803 22.0325 50.589 21.9045 51.073C21.7845 51.527 21.7485 52.03 21.8995 52.481C22.0365 52.889 22.4435 53.44 22.8985 53.507C23.4515 53.588 23.5385 52.976 23.6635 52.587C23.8215 52.093 24.0115 51.616 24.2115 51.138C24.4015 50.681 24.5005 50.213 24.7575 49.772C24.8105 49.747 24.8765 49.788 24.8985 49.842C24.9215 49.897 24.9125 49.959 24.9005 50.017C24.8325 50.346 24.6955 50.656 24.5685 50.967C24.2275 51.807 23.9585 52.677 23.7655 53.564C23.7195 53.774 23.6785 53.989 23.6955 54.204C23.7285 54.611 23.9685 54.973 24.2415 55.278C24.3835 55.438 24.5475 55.594 24.7555 55.644C25.4085 55.798 25.4235 54.807 25.5255 54.409C25.6975 53.74 25.9045 53.08 26.0715 52.41C26.2995 51.492 26.5785 50.588 26.8185 49.673C27.2805 47.912 27.8255 46.173 28.5115 44.486C28.5455 44.402 28.5975 44.326 28.6765 44.181C28.6855 44.469 28.6545 44.683 28.5975 44.897C28.3845 45.7 28.1225 46.488 27.8955 47.286C27.5045 48.661 27.1615 50.049 26.7845 51.428C26.5945 52.121 26.3985 52.812 26.2015 53.503C26.0375 54.079 25.6685 54.819 25.7635 55.415C25.8775 56.128 26.3395 56.698 26.9485 57.055C27.2265 57.218 27.5325 57.392 27.8895 57.198C27.9855 57.146 28.0435 57.083 28.0375 56.959C27.9755 55.76 28.1355 54.572 28.3215 53.379C28.5875 51.678 28.9695 50.007 29.4455 48.35C29.4835 48.218 29.5235 48.088 29.5635 47.957C29.9455 46.699 30.4135 45.473 30.9395 44.271C30.9265 44.755 30.9125 45.238 30.8985 45.721C30.8565 47.295 30.7865 48.867 30.7775 50.439C30.7695 51.993 30.9545 53.533 31.2255 55.063C31.2445 55.173 31.2445 55.286 31.2525 55.397C31.2645 55.468 31.2755 55.54 31.2875 55.611C31.4455 55.772 31.4285 56.005 31.5245 56.198C31.7025 56.554 31.9755 56.848 32.1335 57.212C32.1485 57.218 32.1555 57.23 32.1555 57.247C32.1935 57.28 32.2305 57.314 32.2695 57.347C32.4085 57.465 32.5365 57.616 32.7515 57.52C32.9955 57.411 32.9595 57.196 32.8925 57.022C32.6915 56.501 32.5515 55.965 32.4685 55.408C32.5875 55.74 32.8085 56.017 32.9395 56.342C33.0375 56.451 33.1755 56.529 33.1935 56.695C33.2175 56.717 33.2405 56.741 33.2635 56.763C33.5225 56.937 33.7745 56.969 34.0235 56.722C34.0225 56.364 34.0585 56.006 33.9865 55.649C33.8165 54.816 33.9345 53.921 33.9495 53.076C33.9705 51.928 34.3115 50.965 34.5565 49.881C34.8265 48.685 34.5835 47.384 34.4795 46.183C34.2235 43.236 34.7075 40.509 35.2175 37.632C35.3695 36.779 35.2145 36.454 36.1505 36.235C36.9905 36.039 40.7382 36.1433 40.7382 36.1433C40.7382 36.1433 40.9225 34.891 41.3385 34.586C41.5255 34.825 41.7461 35.7493 41.847 36.038C42.0017 36.481 44.9985 36.689 45.0925 36.2599C45.1865 35.8308 44.5495 34.208 44.2345 33.499C44.2065 33.435 44.1225 33.37 44.2045 33.271C44.6795 33.675 44.8565 34.244 45.0925 34.784C45.4975 35.705 45.4005 36.5 46.6045 36.71C47.0335 36.785 47.4885 36.796 47.8675 37.009C48.1165 37.151 48.3185 37.375 48.5885 37.471C49.1095 37.66 49.3185 37.21 49.2915 36.778C49.2365 35.901 49.1055 35.074 48.5085 34.336C47.8995 33.582 47.6815 32.813 47.9855 33.1C48.8565 33.923 49.7445 34.734 49.8715 36.038C49.9285 36.625 49.8455 37.166 49.6825 37.724C50.4885 38.178 51.0385 37.135 51.1645 36.481C51.2145 36.222 51.2435 35.972 51.2535 35.731C51.3875 32.258 47.5045 30.586 44.6465 29.719C42.4685 29.06 40.2005 28.533 37.9105 28.607Z" fill="#E252C5"/></g></g></g></g><g id="Expression" transform="translate(64 76) scale(1 1)"><g id="Expression/Excited"><g id="Group 38"><path id="Fill 1" fill-rule="evenodd" clip-rule="evenodd" d="M12.4074 9.05433C12.4884 9.20161 12.574 9.34433 12.6541 9.49051C12.7508 9.67061 12.8269 9.85557 12.9046 10.0447C12.9115 10.0646 12.9094 10.0563 12.8972 10.0188C12.9009 10.0313 12.9047 10.0437 12.9074 10.0561C12.9116 10.0736 12.9157 10.0921 12.9198 10.1097C12.9235 10.1322 12.9262 10.1546 12.9299 10.1771C12.9395 10.2384 12.9152 10.1725 12.9305 10.1611C12.9304 10.1621 12.9247 10.2168 12.9256 10.2179C12.9177 10.207 12.9541 10.1374 12.9304 10.1912C12.9122 10.2305 12.9815 10.1262 12.9338 10.1775C12.9256 10.1887 12.9165 10.1988 12.9073 10.2099C12.9275 10.1899 12.9253 10.1917 12.9007 10.2153C12.8797 10.2332 12.8596 10.2522 12.8378 10.268C12.8291 10.2751 12.7416 10.3323 12.7866 10.3058C12.7298 10.3391 12.6706 10.367 12.6097 10.3918C12.5834 10.4021 12.5572 10.4124 12.53 10.4226C12.5206 10.4257 12.4176 10.4591 12.4674 10.4442C12.4031 10.4626 12.3391 10.479 12.2751 10.4944C12.1276 10.5302 12.0016 10.6667 12.0348 10.8291C12.0659 10.9732 12.2117 11.1071 12.3696 11.0684C12.6792 10.9934 13.0018 10.8986 13.2455 10.6849C13.3704 10.5773 13.4716 10.4563 13.501 10.2914C13.5194 10.1928 13.5096 10.0852 13.4877 9.98737C13.3917 9.562 13.1461 9.1913 12.9372 8.81541C12.8612 8.67771 12.7043 8.60189 12.5523 8.67038C12.4182 8.7307 12.3303 8.91653 12.4074 9.05433" fill="#00023C" fill-opacity="0.18"/><path id="Fill 3" fill-rule="evenodd" clip-rule="evenodd" d="M10.3098 3.94982C11.2403 3.62028 10.9323 2.20735 9.94705 2.26367C9.08806 2.31415 8.02879 2.53866 7.53286 3.28692C6.62562 4.6576 9.2789 4.28691 10.2806 3.95982C10.2899 3.95678 10.3004 3.95286 10.3098 3.94982" fill="#2C2263"/><path id="Fill 5" fill-rule="evenodd" clip-rule="evenodd" d="M15.1297 4.6391C14.4015 4.24884 14.8361 3.11808 15.6446 3.28953C16.3487 3.43995 17.1969 3.76036 17.5132 4.44317C18.0908 5.69239 15.9403 5.04907 15.1525 4.65155C15.1449 4.64773 15.1372 4.64391 15.1297 4.6391" fill="#2C2263"/><path id="Fill 7" fill-rule="evenodd" clip-rule="evenodd" d="M8.49265 5.58918C8.54311 5.58745 8.59456 5.58581 8.64491 5.58507C9.48893 5.58128 10.3294 6.02255 10.9165 6.60712C11.0742 6.76245 11.1383 6.96527 11.0807 7.19752C11.0058 7.49934 10.8253 7.57992 10.6037 7.35452C10.0071 6.74482 9.26307 6.56305 8.44909 6.51068C8.04066 6.48384 7.68223 6.58392 7.34565 6.79188C7.08972 6.94999 6.84908 7.13485 6.59493 7.29516C6.41416 7.40788 6.20244 7.46104 6.03712 7.29284C5.85714 7.11103 5.91897 6.90537 6.05796 6.71184C6.61231 5.94357 7.57274 5.62623 8.49265 5.58918" fill="#2C2263"/><path id="Fill 9" fill-rule="evenodd" clip-rule="evenodd" d="M17.1029 8.12027C16.4945 7.51838 15.6861 6.8291 14.7761 7.15476C14.3028 7.32422 13.8916 7.70633 13.4106 7.83375C13.2245 7.88257 13.0145 7.89972 12.8909 7.72685C12.7621 7.54639 12.8744 7.39631 13.0004 7.23057C13.5442 6.5145 14.3747 6.25689 15.2372 6.2309C16.1358 6.20469 16.941 6.7237 17.522 7.39511C17.7479 7.87636 17.6556 8.03759 17.1029 8.12027" fill="#2C2263"/><path id="Fill 11" fill-rule="evenodd" clip-rule="evenodd" d="M13.2824 13.8136C13.5061 13.7989 13.981 13.4044 13.9272 13.2559C13.8356 13.008 13.5936 12.9665 13.3747 12.9736C12.9507 12.9894 13.2019 13.3738 13.0763 13.5255C13.0934 13.6881 13.0931 13.8249 13.2824 13.8136M12.2519 12.932C11.6927 12.9899 11.9107 13.4321 11.8813 13.7116C11.8373 14.1303 12.2094 13.9482 12.4018 13.9734C12.8472 14.0313 12.7117 13.6943 12.7133 13.3918C12.7481 13.1179 12.6725 12.8908 12.2519 12.932M10.6623 12.2703C10.6327 12.2752 10.5995 12.2848 10.5765 12.3025C10.3578 12.4796 10.4253 13.3484 10.6681 13.4875C10.7099 13.511 10.7555 13.5269 10.7988 13.5455C10.9935 13.6354 11.1931 13.8786 11.3946 13.7318C11.5886 13.5883 11.4795 13.2873 11.5194 13.0803C11.5065 12.8678 10.8318 12.2458 10.6623 12.2703M10.0902 12.4233C10.1697 11.8585 9.59544 11.3427 9.02661 11.493C8.80631 11.5513 8.74876 11.7162 8.83956 11.9429C9.0134 12.3745 9.50398 12.8443 10.0343 13.0318C10.0552 12.8037 10.0643 12.6126 10.0902 12.4233M8.42403 12.395C8.16771 12.0593 8.04789 11.6687 8.35131 11.2883C8.63621 10.9311 9.03093 10.9736 9.41131 11.076C9.87985 11.2006 10.2915 11.446 10.6734 11.7435C11.2878 12.2224 11.9686 12.489 12.7674 12.4181C13.0669 12.3913 13.3743 12.4125 13.676 12.4412C14.0603 12.4776 14.3434 12.6732 14.4358 13.0661C14.5328 13.4734 14.3028 13.7579 13.9942 13.9477C13.5547 14.2173 13.0732 14.3969 12.5347 14.4218C10.8881 14.3121 9.45942 13.7466 8.42403 12.395" fill="#2C2263"/><path id="Fill 13" fill-rule="evenodd" clip-rule="evenodd" d="M10.0345 13.0314C10.0555 12.8033 10.0645 12.6122 10.0903 12.4239C10.1699 11.8581 9.5957 11.3422 9.02687 11.4926C8.80657 11.5509 8.74902 11.7158 8.83981 11.9425C9.01366 12.3741 9.50423 12.8439 10.0345 13.0314" fill="#FDFDFD"/><path id="Fill 15" fill-rule="evenodd" clip-rule="evenodd" d="M11.5194 13.0804C11.5066 12.8679 10.8319 12.2459 10.6624 12.2704C10.6327 12.2753 10.5995 12.2849 10.5766 12.3026C10.3579 12.4797 10.4254 13.3485 10.6682 13.4876C10.71 13.5111 10.7557 13.526 10.7988 13.5456C10.9936 13.6345 11.1932 13.8787 11.3946 13.7319C11.5897 13.5885 11.4796 13.2874 11.5194 13.0804" fill="#FDFDFD"/><path id="Fill 17" fill-rule="evenodd" clip-rule="evenodd" d="M12.7135 13.3915C12.7482 13.1186 12.6726 12.8905 12.2519 12.9328C11.6929 12.9896 11.9108 13.4318 11.8815 13.7113C11.8375 14.13 12.2095 13.9479 12.402 13.9731C12.8473 14.031 12.7117 13.695 12.7135 13.3915" fill="#FDFDFD"/><path id="Fill 19" fill-rule="evenodd" clip-rule="evenodd" d="M13.0758 13.5258C13.093 13.6875 13.0926 13.8252 13.2818 13.814C13.5066 13.7994 13.9805 13.4037 13.9267 13.2563C13.8352 13.0074 13.5941 12.9669 13.3741 12.974C12.9513 12.9889 13.2014 13.3741 13.0758 13.5258" fill="#FDFDFD"/><path id="Fill 21" fill-rule="evenodd" clip-rule="evenodd" d="M8.10474 10.5946C7.80811 10.9295 7.37391 11.1382 6.92734 11.1969C6.41256 11.2634 5.8843 11.1425 5.41627 10.9174C5.11115 10.7687 4.81931 10.5701 4.62439 10.2912C4.2877 9.81134 4.34683 9.00008 4.53261 8.46658C4.64358 8.14743 4.86546 7.85401 5.1762 7.71976C5.63155 7.52026 6.10085 7.55149 6.56306 7.68855C6.97171 7.80893 7.38409 7.94176 7.73472 8.18374C8.43299 8.66738 8.7236 9.70041 8.23154 10.431C8.19323 10.4893 8.15037 10.5431 8.10474 10.5946" fill="#FF37B8" fill-opacity="0.5"/><path id="Fill 23" fill-rule="evenodd" clip-rule="evenodd" d="M5.09349 9.62216C5.04277 9.61683 4.99273 9.59548 4.95232 9.55906C4.8495 9.4658 4.84194 9.30815 4.9341 9.20622L5.68257 8.37993C5.77583 8.27712 5.93327 8.27154 6.03541 8.36171C6.13723 8.45487 6.14468 8.61352 6.05252 8.71544L5.30515 9.54084C5.24931 9.60335 5.17007 9.63021 5.09349 9.62216" fill="#FFD0F6"/><path id="Fill 25" fill-rule="evenodd" clip-rule="evenodd" d="M6.90826 10.568L6.89434 10.5665C6.75793 10.5441 6.66584 10.4158 6.68723 10.2793L6.86612 9.17998C6.88751 9.04346 7.0017 8.9519 7.15235 8.97276C7.28876 8.99514 7.38085 9.12347 7.35956 9.25899L7.18156 10.3594C7.1597 10.4908 7.03954 10.5818 6.90826 10.568" fill="#FFD0F6"/><path id="Fill 27" fill-rule="evenodd" clip-rule="evenodd" d="M5.82009 10.1709C5.7813 10.1668 5.74345 10.1538 5.70953 10.1321C5.5939 10.0556 5.56084 9.90131 5.63735 9.78568L6.33229 8.72249C6.4078 8.60675 6.56299 8.5748 6.67884 8.64932C6.79447 8.72582 6.82653 8.88002 6.75102 8.99576L6.05509 10.0588C6.00234 10.1398 5.90959 10.1803 5.82009 10.1709" fill="#FFD0F6"/><g id="Group 31"><mask id="mask01bcc2700-75ba-40ba-b2a5-0de10c999e54" mask-type="alpha" maskUnits="userSpaceOnUse" x="14" y="9" width="5" height="4" fill="#ffffff"><path id="Clip 30" fill-rule="evenodd" clip-rule="evenodd" d="M15.0791 9.11649L18.5125 9.47735L18.2007 12.4434L14.7674 12.0826L15.0791 9.11649Z" fill="#ffffff"/></mask><g mask="url(#mask01bcc2700-75ba-40ba-b2a5-0de10c999e54)"><path id="Fill 29" fill-rule="evenodd" clip-rule="evenodd" d="M15.0657 11.4548C15.2506 11.781 15.5696 12.0276 15.9255 12.1525C16.3356 12.2972 16.7899 12.2896 17.212 12.1862C17.4886 12.1187 17.7618 12.0067 17.9702 11.8124C18.3301 11.4782 18.4233 10.8022 18.3641 10.3325C18.3282 10.0522 18.1965 9.77389 17.9666 9.60795C17.628 9.36623 17.2378 9.31013 16.8353 9.34123C16.4795 9.36819 16.1185 9.40667 15.7895 9.54302C15.1322 9.81782 14.7137 10.6134 14.9905 11.2991C15.0121 11.3527 15.0368 11.4045 15.0657 11.4548" fill="#FF37B8" fill-opacity="0.5"/></g></g><path id="Fill 32" fill-rule="evenodd" clip-rule="evenodd" d="M17.6982 11.2229C17.6216 11.2149 17.5497 11.1721 17.5081 11.0994L17.0398 10.293C16.971 10.1732 17.0111 10.0205 17.1301 9.9506C17.2498 9.88274 17.4027 9.92093 17.4724 10.0419L17.9406 10.8492C18.0096 10.9681 17.9694 11.1207 17.8494 11.1906C17.8023 11.2178 17.7489 11.2283 17.6982 11.2229" fill="#FFD0F6"/><path id="Fill 34" fill-rule="evenodd" clip-rule="evenodd" d="M16.0463 11.6807C15.915 11.6669 15.8164 11.553 15.8224 11.4199L15.8691 10.4876C15.8755 10.3495 15.9923 10.2432 16.1314 10.2497C16.2709 10.2614 16.3746 10.3749 16.3681 10.5129L16.3225 11.4443C16.3151 11.5822 16.1983 11.6886 16.0602 11.6822L16.0463 11.6807Z" fill="#FFD0F6"/><path id="Fill 36" fill-rule="evenodd" clip-rule="evenodd" d="M17.0069 11.546C16.9174 11.5366 16.8351 11.4777 16.8003 11.3875L16.4159 10.3959C16.3651 10.2669 16.4285 10.1227 16.5575 10.0719C16.6861 10.0251 16.8316 10.0857 16.8814 10.2146L17.2657 11.2072C17.3165 11.3362 17.2521 11.4803 17.1231 11.5311C17.0854 11.5452 17.0457 11.5501 17.0069 11.546" fill="#FFD0F6"/></g></g></g><g id="Upper Body" transform="translate(7 41) scale(1 1)"><g id="Upper Body/Holding Coffee 1"><g id="Group 89"><g id="Group 17"><path id="Fill 1" fill-rule="evenodd" clip-rule="evenodd" d="M70.5601 64.9056C72.4431 62.3406 76.2951 62.1546 78.7741 64.5086L82.1191 67.6876C87.9161 74.6596 94.3281 81.3266 100.769 87.4786C111.728 77.9696 119.136 70.4596 120.448 69.1246C121.249 68.1886 122.316 66.8406 122.399 66.2066C122.534 65.1816 123.302 62.5956 123.992 62.3116C124.682 62.0276 124.976 64.6336 124.976 64.6336C124.976 64.6336 129.582 59.9996 129.834 60.4426C130.086 60.8856 127.107 64.4456 127.107 64.4456C127.107 64.4456 131.072 60.5596 131.3 61.0316C131.528 61.5026 127.79 65.9046 127.79 65.9046C127.79 65.9046 131.942 62.3636 131.855 62.8116C131.768 63.2596 129.517 66.1886 129.517 66.1886C130.683 65.3486 131.669 64.8926 131.494 65.4006C130.798 67.4276 125.869 71.3026 124.792 72.1316L124.798 72.1366C120.586 80.4006 114.97 88.0416 108.821 94.8936C107.392 96.4906 105.932 98.0446 104.455 99.5526C101.984 102.077 97.9681 102.232 95.3011 99.9166C93.7251 98.5476 92.2131 97.1906 90.7721 95.8616C81.3281 87.1436 74.9161 79.5816 73.0081 77.1346C68.3311 71.1216 70.5601 64.9056 70.5601 64.9056" fill="#9f91ca"/><path id="Fill 3" fill-rule="evenodd" clip-rule="evenodd" d="M134.234 63.4456C133.613 64.9206 130.031 67.7856 129.184 68.8336C128.337 69.8756 124.564 72.1526 124.564 72.1526L121.358 69.4266C121.358 69.4266 120.846 68.6106 121.939 65.6966C123.026 62.7826 124.917 57.8816 125.791 57.9196C126.636 57.9596 126.272 61.6306 126.168 62.4086L126.156 62.4816C126.15 62.5266 126.173 62.5246 126.23 62.4876C126.859 62.0386 131.349 56.3686 132.139 56.8016C132.377 56.9366 132.7 57.4076 133.021 58.0446C133.043 58.0876 133.065 58.1316 133.086 58.1806C133.317 58.6536 133.547 59.2076 133.746 59.7796C133.767 59.8286 133.783 59.8776 133.797 59.9306C133.99 60.5026 134.152 61.0916 134.252 61.6306C134.26 61.6886 134.269 61.7426 134.278 61.7956C134.391 62.4746 134.397 63.0686 134.234 63.4456" fill="#9f91ca"/><path id="Fill 5" fill-rule="evenodd" clip-rule="evenodd" d="M126.034 66.8216C126.033 66.8206 126.031 66.8206 126.03 66.8206C125.992 66.8116 125.967 66.7736 125.975 66.7356C126.35 65.0266 126.091 62.5166 126.088 62.4916C126.084 62.4526 126.112 62.4176 126.151 62.4136C126.189 62.4086 126.225 62.4376 126.229 62.4766C126.232 62.5026 126.494 65.0346 126.115 66.7656C126.107 66.8026 126.071 66.8266 126.034 66.8216" fill="#9f91ca"/><path id="Fill 7" fill-rule="evenodd" clip-rule="evenodd" d="M133.086 58.1809L128.263 63.0289C128.244 63.0419 128.225 63.0509 128.203 63.0469C128.186 63.0449 128.176 63.0369 128.161 63.0239C128.136 62.9959 128.136 62.9559 128.164 62.9259L133.021 58.0439C133.043 58.0869 133.065 58.1309 133.086 58.1809" fill="#9f91ca"/><path id="Fill 9" fill-rule="evenodd" clip-rule="evenodd" d="M133.797 59.9309L129.506 64.0219C129.493 64.0359 129.468 64.0439 129.446 64.0409C129.435 64.0389 129.419 64.0309 129.408 64.0239C129.379 63.9909 129.38 63.9509 129.407 63.9199L133.746 59.7799C133.767 59.8279 133.782 59.8769 133.797 59.9309" fill="#9f91ca"/><path id="Fill 11" fill-rule="evenodd" clip-rule="evenodd" d="M134.279 61.7952L130.513 65.3982C130.494 65.4122 130.47 65.4202 130.453 65.4172C130.436 65.4142 130.42 65.4062 130.411 65.3942C130.386 65.3662 130.382 65.3192 130.414 65.2962L134.253 61.6302C134.261 61.6892 134.27 61.7422 134.279 61.7952" fill="#9f91ca"/><path id="Fill 13" fill-rule="evenodd" clip-rule="evenodd" d="M56.4912 102.927L81.4122 99.05C80.9242 95.731 79.3932 89.327 80.0272 85.836C80.7152 82.049 83.6052 81.095 83.9132 75.29C84.2212 69.483 80.1392 65.656 78.3472 64.156C77.0642 63.082 70.4622 57.807 69.2862 56.431L61.2512 54.873C60.3842 56.422 57.6862 60.593 54.2012 61.019C52.6172 61.212 51.1232 61.952 50.0882 63.221C48.6412 64.992 47.5742 68.178 49.0922 73.832C52.0072 84.693 56.0442 95.96 56.4912 102.927" fill="#9f91ca"/><path id="Fill 15" fill-rule="evenodd" clip-rule="evenodd" d="M81.103 96.0589C80.833 94.7809 80.621 93.4879 80.424 92.2029C80.129 90.2709 79.764 88.0119 80.361 86.1009C81.517 82.3999 85.681 77.5429 84.292 71.9149C82.905 66.2879 69.287 56.4309 69.287 56.4309L76.969 65.1309C76.969 65.1309 67.023 66.9049 64.711 68.1379L57.541 59.8119L55.074 60.6599L60.008 69.4489C60.008 69.4489 60.085 85.4839 51.065 80.7049C51.065 80.7049 51.949 89.3569 52.936 94.7359C51.967 95.6589 51.002 96.7879 49.723 98.0629C45.486 102.285 44.715 112.099 40 115.767C40.623 119.646 44.338 122.519 48.226 123.086C52.112 123.655 56.058 122.308 59.458 120.341C60.438 119.775 61.447 119.137 62.578 119.094C64.124 119.034 65.463 120.082 66.905 120.644C71.151 122.294 75.764 119.634 79.453 116.959C83.141 114.285 87.412 111.32 91.848 112.357C91.192 112.204 90.177 110.91 89.676 110.448C88.91 109.742 88.161 109.015 87.445 108.258C86.083 106.818 84.82 105.266 83.811 103.555C82.441 101.231 81.654 98.6729 81.103 96.0589" fill="#432C82"/></g><g id="Group 63"><g id="Group 20"><mask id="mask0b0c22831-b6ab-4252-8bc2-4721e8f1b40f" mask-type="alpha" maskUnits="userSpaceOnUse" x="40" y="56" width="52" height="68" fill="#ffffff"><path id="Clip 19" fill-rule="evenodd" clip-rule="evenodd" d="M76.969 65.1305C76.969 65.1305 67.023 66.9045 64.711 68.1365V68.1365L57.541 59.8105L55.074 60.6595L60.008 69.4465C60.008 69.4465 60.085 85.4835 51.066 80.7035V80.7035C51.066 80.7035 51.949 89.3565 52.937 94.7355V94.7355C51.967 95.6585 51.003 96.7875 49.723 98.0625V98.0625C45.486 102.285 44.715 112.099 40 115.767V115.767C40.623 119.646 44.339 122.52 48.226 123.087V123.087C52.112 123.655 56.058 122.308 59.459 120.342V120.342C60.439 119.775 61.447 119.137 62.578 119.094V119.094C64.125 119.034 65.463 120.082 66.906 120.643V120.643C71.152 122.295 75.764 119.634 79.452 116.959V116.959C83.141 114.284 87.412 111.32 91.848 112.358V112.358C91.193 112.204 90.178 110.909 89.677 110.448V110.448C88.91 109.742 88.162 109.015 87.445 108.258V108.258C86.083 106.818 84.82 105.267 83.812 103.556V103.556C82.441 101.231 81.654 98.6725 81.103 96.0595V96.0595C80.834 94.7805 80.622 93.4885 80.424 92.2025V92.2025C80.129 90.2705 79.764 88.0125 80.361 86.1005V86.1005C81.518 82.3995 85.68 77.5435 84.294 71.9145V71.9145C82.906 66.2875 69.287 56.4305 69.287 56.4305V56.4305" fill="#ffffff"/></mask><g mask="url(#mask0b0c22831-b6ab-4252-8bc2-4721e8f1b40f)"><path id="Fill 18" fill-rule="evenodd" clip-rule="evenodd" d="M85.3866 94.2708C84.6316 93.9578 83.8906 93.5208 83.2666 92.9858C81.7556 91.6888 81.2626 90.1408 81.8816 88.6268C82.0056 88.3268 82.1206 88.0478 82.2286 87.7898C83.4956 84.7318 83.6286 84.4138 82.5426 80.0528C82.1996 78.6808 82.3616 77.5108 83.0186 76.5818C83.4616 75.9538 84.0716 75.5138 84.6796 75.2078C84.6676 75.3468 84.6566 75.4878 84.6436 75.6308C84.1446 75.9098 83.6626 76.2838 83.3076 76.7868C82.7126 77.6298 82.5706 78.7008 82.8866 79.9678C84.0006 84.4398 83.8356 84.8358 82.5546 87.9258C82.4486 88.1848 82.3326 88.4608 82.2106 88.7618C81.4596 90.5968 82.6946 92.0268 83.4996 92.7158C84.0356 93.1768 84.6726 93.5658 85.3286 93.8578V93.8598C85.3476 93.9968 85.3656 94.1328 85.3866 94.2708" fill="#F376DA"/></g></g><g id="Group 23"><mask id="mask1b0c22831-b6ab-4252-8bc2-4721e8f1b40f" mask-type="alpha" maskUnits="userSpaceOnUse" x="40" y="56" width="52" height="68" fill="#ffffff"><path id="Clip 22" fill-rule="evenodd" clip-rule="evenodd" d="M76.969 65.1305C76.969 65.1305 67.023 66.9045 64.711 68.1365V68.1365L57.541 59.8105L55.074 60.6595L60.008 69.4465C60.008 69.4465 60.085 85.4835 51.066 80.7035V80.7035C51.066 80.7035 51.949 89.3565 52.937 94.7355V94.7355C51.967 95.6585 51.003 96.7875 49.723 98.0625V98.0625C45.486 102.285 44.715 112.099 40 115.767V115.767C40.623 119.646 44.339 122.52 48.226 123.087V123.087C52.112 123.655 56.058 122.308 59.459 120.342V120.342C60.439 119.775 61.447 119.137 62.578 119.094V119.094C64.125 119.034 65.463 120.082 66.906 120.643V120.643C71.152 122.295 75.764 119.634 79.452 116.959V116.959C83.141 114.284 87.412 111.32 91.848 112.358V112.358C91.193 112.204 90.178 110.909 89.677 110.448V110.448C88.91 109.742 88.162 109.015 87.445 108.258V108.258C86.083 106.818 84.82 105.267 83.812 103.556V103.556C82.441 101.231 81.654 98.6725 81.103 96.0595V96.0595C80.834 94.7805 80.622 93.4885 80.424 92.2025V92.2025C80.129 90.2705 79.764 88.0125 80.361 86.1005V86.1005C81.518 82.3995 85.68 77.5435 84.294 71.9145V71.9145C82.906 66.2875 69.287 56.4305 69.287 56.4305V56.4305" fill="#ffffff"/></mask><g mask="url(#mask1b0c22831-b6ab-4252-8bc2-4721e8f1b40f)"><path id="Fill 21" fill-rule="evenodd" clip-rule="evenodd" d="M56.4423 97.0588C55.6643 98.2588 54.2483 99.1148 52.4013 99.1148C51.6483 99.1148 50.8223 98.9728 49.9373 98.6528C49.9233 98.5158 49.9093 98.3838 49.8973 98.2588C52.8443 99.3878 55.1123 98.4598 56.1443 96.8658C57.1373 95.3298 56.8483 93.5228 55.4443 92.4698C53.5393 91.0408 54.0423 89.8718 54.5753 88.6368C55.1003 87.4208 55.6433 86.1638 54.3413 84.2768C53.5833 83.1758 52.6423 82.5168 51.5463 82.3198C50.8803 82.1998 50.2283 82.2648 49.6543 82.4028C49.6613 82.2788 49.6683 82.1548 49.6733 82.0308C50.2603 81.8998 50.9213 81.8468 51.6073 81.9708C52.8003 82.1838 53.8193 82.8918 54.6323 84.0748C56.0453 86.1248 55.4103 87.5938 54.9023 88.7768C54.3843 89.9768 53.9753 90.9248 55.6573 92.1868C57.3973 93.4918 57.3693 95.6248 56.4423 97.0588" fill="#F376DA"/></g></g><g id="Group 26"><mask id="mask2b0c22831-b6ab-4252-8bc2-4721e8f1b40f" mask-type="alpha" maskUnits="userSpaceOnUse" x="40" y="56" width="52" height="68" fill="#ffffff"><path id="Clip 25" fill-rule="evenodd" clip-rule="evenodd" d="M76.969 65.1305C76.969 65.1305 67.023 66.9045 64.711 68.1365V68.1365L57.541 59.8105L55.074 60.6595L60.008 69.4465C60.008 69.4465 60.085 85.4835 51.066 80.7035V80.7035C51.066 80.7035 51.949 89.3565 52.937 94.7355V94.7355C51.967 95.6585 51.003 96.7875 49.723 98.0625V98.0625C45.486 102.285 44.715 112.099 40 115.767V115.767C40.623 119.646 44.339 122.52 48.226 123.087V123.087C52.112 123.655 56.058 122.308 59.459 120.342V120.342C60.439 119.775 61.447 119.137 62.578 119.094V119.094C64.125 119.034 65.463 120.082 66.906 120.643V120.643C71.152 122.295 75.764 119.634 79.452 116.959V116.959C83.141 114.284 87.412 111.32 91.848 112.358V112.358C91.193 112.204 90.178 110.909 89.677 110.448V110.448C88.91 109.742 88.162 109.015 87.445 108.258V108.258C86.083 106.818 84.82 105.267 83.812 103.556V103.556C82.441 101.231 81.654 98.6725 81.103 96.0595V96.0595C80.834 94.7805 80.622 93.4885 80.424 92.2025V92.2025C80.129 90.2705 79.764 88.0125 80.361 86.1005V86.1005C81.518 82.3995 85.68 77.5435 84.294 71.9145V71.9145C82.906 66.2875 69.287 56.4305 69.287 56.4305V56.4305" fill="#ffffff"/></mask><g mask="url(#mask2b0c22831-b6ab-4252-8bc2-4721e8f1b40f)"><path id="Fill 24" fill-rule="evenodd" clip-rule="evenodd" d="M72.8875 95.131C72.3795 96.67 70.7875 97.694 69.1015 97.566C66.6645 97.379 63.1455 95.622 61.4775 93.005C60.3375 91.216 60.1525 89.265 60.9275 87.203C61.4705 85.76 61.8665 84.411 62.1165 83.159C62.4315 81.579 62.5115 80.16 62.3545 78.913C62.2145 77.803 62.7855 76.798 63.8105 76.352C64.2955 76.141 64.8015 76.09 65.2775 76.185C65.8105 76.291 66.3045 76.581 66.6855 77.037L66.8115 77.193C68.8255 79.674 68.4105 81.796 68.0105 83.849C67.5875 86.011 67.1875 88.055 70.1175 89.9C72.4485 91.369 73.4845 93.323 72.8875 95.131M70.3055 89.599C67.5825 87.885 67.9405 86.045 68.3575 83.918C68.7545 81.885 69.2035 79.58 67.0875 76.969C67.0435 76.915 67.0005 76.863 66.9565 76.811C66.1355 75.823 64.8455 75.517 63.6675 76.027C62.4965 76.536 61.8425 77.687 62.0025 78.956C62.2735 81.104 61.7875 83.912 60.5955 87.079C59.7905 89.22 59.9925 91.335 61.1775 93.194C62.7135 95.605 65.7625 97.31 68.1935 97.794C68.4975 97.856 68.7935 97.897 69.0745 97.918C70.9205 98.059 72.6655 96.934 73.2245 95.241C73.8765 93.27 72.7845 91.161 70.3055 89.599" fill="#F376DA"/></g></g><g id="Group 29"><mask id="mask3b0c22831-b6ab-4252-8bc2-4721e8f1b40f" mask-type="alpha" maskUnits="userSpaceOnUse" x="40" y="56" width="52" height="68" fill="#ffffff"><path id="Clip 28" fill-rule="evenodd" clip-rule="evenodd" d="M76.969 65.1305C76.969 65.1305 67.023 66.9045 64.711 68.1365V68.1365L57.541 59.8105L55.074 60.6595L60.008 69.4465C60.008 69.4465 60.085 85.4835 51.066 80.7035V80.7035C51.066 80.7035 51.949 89.3565 52.937 94.7355V94.7355C51.967 95.6585 51.003 96.7875 49.723 98.0625V98.0625C45.486 102.285 44.715 112.099 40 115.767V115.767C40.623 119.646 44.339 122.52 48.226 123.087V123.087C52.112 123.655 56.058 122.308 59.459 120.342V120.342C60.439 119.775 61.447 119.137 62.578 119.094V119.094C64.125 119.034 65.463 120.082 66.906 120.643V120.643C71.152 122.295 75.764 119.634 79.452 116.959V116.959C83.141 114.284 87.412 111.32 91.848 112.358V112.358C91.193 112.204 90.178 110.909 89.677 110.448V110.448C88.91 109.742 88.162 109.015 87.445 108.258V108.258C86.083 106.818 84.82 105.267 83.812 103.556V103.556C82.441 101.231 81.654 98.6725 81.103 96.0595V96.0595C80.834 94.7805 80.622 93.4885 80.424 92.2025V92.2025C80.129 90.2705 79.764 88.0125 80.361 86.1005V86.1005C81.518 82.3995 85.68 77.5435 84.294 71.9145V71.9145C82.906 66.2875 69.287 56.4305 69.287 56.4305V56.4305" fill="#ffffff"/></mask><g mask="url(#mask3b0c22831-b6ab-4252-8bc2-4721e8f1b40f)"><path id="Fill 27" fill-rule="evenodd" clip-rule="evenodd" d="M80.5589 73.3605C78.3399 72.9105 76.4529 71.3005 76.2469 70.1615C76.1859 69.8305 76.2839 69.5905 76.5439 69.4275C78.8899 67.9665 79.5749 66.0935 79.1639 62.2675C79.0659 61.3525 79.2789 60.5905 79.7949 60.0045C79.8199 59.9775 79.8429 59.9505 79.8679 59.9235C79.7419 59.8885 79.6159 59.8535 79.4899 59.8165C78.9339 60.4755 78.7049 61.3115 78.8109 62.3065C79.2049 65.9675 78.5609 67.7535 76.3569 69.1265C75.9759 69.3635 75.8119 69.7545 75.8969 70.2245C76.1219 71.4785 78.0649 73.2165 80.4879 73.7085C80.8389 73.7785 81.2649 73.8355 81.7379 73.8355C82.6719 73.8355 83.7929 73.6195 84.9029 72.8785C84.9209 72.7165 84.9379 72.5605 84.9559 72.4055C83.3059 73.6315 81.5919 73.5695 80.5589 73.3605" fill="#F376DA"/></g></g><g id="Group 32"><mask id="mask4b0c22831-b6ab-4252-8bc2-4721e8f1b40f" mask-type="alpha" maskUnits="userSpaceOnUse" x="40" y="56" width="52" height="68" fill="#ffffff"><path id="Clip 31" fill-rule="evenodd" clip-rule="evenodd" d="M76.969 65.1305C76.969 65.1305 67.023 66.9045 64.711 68.1365V68.1365L57.541 59.8105L55.074 60.6595L60.008 69.4465C60.008 69.4465 60.085 85.4835 51.066 80.7035V80.7035C51.066 80.7035 51.949 89.3565 52.937 94.7355V94.7355C51.967 95.6585 51.003 96.7875 49.723 98.0625V98.0625C45.486 102.285 44.715 112.099 40 115.767V115.767C40.623 119.646 44.339 122.52 48.226 123.087V123.087C52.112 123.655 56.058 122.308 59.459 120.342V120.342C60.439 119.775 61.447 119.137 62.578 119.094V119.094C64.125 119.034 65.463 120.082 66.906 120.643V120.643C71.152 122.295 75.764 119.634 79.452 116.959V116.959C83.141 114.284 87.412 111.32 91.848 112.358V112.358C91.193 112.204 90.178 110.909 89.677 110.448V110.448C88.91 109.742 88.162 109.015 87.445 108.258V108.258C86.083 106.818 84.82 105.267 83.812 103.556V103.556C82.441 101.231 81.654 98.6725 81.103 96.0595V96.0595C80.834 94.7805 80.622 93.4885 80.424 92.2025V92.2025C80.129 90.2705 79.764 88.0125 80.361 86.1005V86.1005C81.518 82.3995 85.68 77.5435 84.294 71.9145V71.9145C82.906 66.2875 69.287 56.4305 69.287 56.4305V56.4305" fill="#ffffff"/></mask><g mask="url(#mask4b0c22831-b6ab-4252-8bc2-4721e8f1b40f)"><path id="Fill 30" fill-rule="evenodd" clip-rule="evenodd" d="M72.4374 75.4006C72.0864 75.9906 71.2194 76.2516 70.4224 76.0046C69.3624 75.6806 68.7794 74.6296 68.8624 73.1976C68.9744 71.3076 67.8004 70.6116 66.8574 70.0496C66.0074 69.5446 65.3924 69.1796 65.6544 68.1796C65.8704 67.3576 66.4694 66.8826 67.4324 66.7726C67.5524 66.7586 67.6744 66.7516 67.7974 66.7516C68.8374 66.7516 69.8674 67.2516 70.5514 68.1076C71.9324 69.8316 73.6654 73.3376 72.4374 75.4006M70.8284 67.8856C69.9754 66.8186 68.6924 66.2726 67.3914 66.4206C66.2854 66.5476 65.5654 67.1256 65.3124 68.0906C64.9824 69.3476 65.8444 69.8606 66.6774 70.3546C67.6254 70.9206 68.6064 71.5036 68.5094 73.1756C68.4144 74.7836 69.0904 75.9676 70.3194 76.3446C70.5604 76.4186 70.8044 76.4556 71.0424 76.4556C71.7564 76.4556 72.4124 76.1356 72.7424 75.5816C74.0624 73.3656 72.2694 69.6846 70.8284 67.8856" fill="#F376DA"/></g></g><g id="Group 35"><mask id="mask5b0c22831-b6ab-4252-8bc2-4721e8f1b40f" mask-type="alpha" maskUnits="userSpaceOnUse" x="40" y="56" width="52" height="68" fill="#ffffff"><path id="Clip 34" fill-rule="evenodd" clip-rule="evenodd" d="M76.969 65.1305C76.969 65.1305 67.023 66.9045 64.711 68.1365V68.1365L57.541 59.8105L55.074 60.6595L60.008 69.4465C60.008 69.4465 60.085 85.4835 51.066 80.7035V80.7035C51.066 80.7035 51.949 89.3565 52.937 94.7355V94.7355C51.967 95.6585 51.003 96.7875 49.723 98.0625V98.0625C45.486 102.285 44.715 112.099 40 115.767V115.767C40.623 119.646 44.339 122.52 48.226 123.087V123.087C52.112 123.655 56.058 122.308 59.459 120.342V120.342C60.439 119.775 61.447 119.137 62.578 119.094V119.094C64.125 119.034 65.463 120.082 66.906 120.643V120.643C71.152 122.295 75.764 119.634 79.452 116.959V116.959C83.141 114.284 87.412 111.32 91.848 112.358V112.358C91.193 112.204 90.178 110.909 89.677 110.448V110.448C88.91 109.742 88.162 109.015 87.445 108.258V108.258C86.083 106.818 84.82 105.267 83.812 103.556V103.556C82.441 101.231 81.654 98.6725 81.103 96.0595V96.0595C80.834 94.7805 80.622 93.4885 80.424 92.2025V92.2025C80.129 90.2705 79.764 88.0125 80.361 86.1005V86.1005C81.518 82.3995 85.68 77.5435 84.294 71.9145V71.9145C82.906 66.2875 69.287 56.4305 69.287 56.4305V56.4305" fill="#ffffff"/></mask><g mask="url(#mask5b0c22831-b6ab-4252-8bc2-4721e8f1b40f)"><path id="Fill 33" fill-rule="evenodd" clip-rule="evenodd" d="M79.4359 88.8294C78.3789 89.7944 77.2189 90.1684 76.6109 89.7384C76.0659 89.3574 76.0679 88.3884 76.6139 87.0804C77.4399 85.1034 76.1049 84.1844 74.9289 83.3744C73.9819 82.7224 73.0889 82.1064 73.2709 81.0144C73.4029 80.2214 73.9609 79.7784 74.9769 79.6554C75.1249 79.6384 75.2719 79.6294 75.4189 79.6294C76.2329 79.6294 77.0169 79.8944 77.6689 80.3614C78.3209 80.8274 78.8379 81.4924 79.1199 82.2894C80.2949 85.6214 80.4069 87.9434 79.4359 88.8294M79.4549 82.1714C78.7869 80.2764 76.8849 79.0724 74.9359 79.3054C73.7749 79.4434 73.0779 80.0144 72.9199 80.9574C72.7029 82.2694 73.7319 82.9784 74.7279 83.6654C75.8979 84.4714 77.0019 85.2314 76.2879 86.9414C75.6709 88.4184 75.7159 89.5444 76.4049 90.0294C76.6359 90.1904 76.9149 90.2684 77.2279 90.2684C77.9469 90.2684 78.8379 89.8534 79.6749 89.0924C80.2329 88.5834 80.4459 87.7614 80.4459 86.8024C80.4459 85.3754 79.9729 83.6404 79.4549 82.1714" fill="#F376DA"/></g></g><g id="Group 38"><mask id="mask6b0c22831-b6ab-4252-8bc2-4721e8f1b40f" mask-type="alpha" maskUnits="userSpaceOnUse" x="40" y="56" width="52" height="68" fill="#ffffff"><path id="Clip 37" fill-rule="evenodd" clip-rule="evenodd" d="M76.969 65.1305C76.969 65.1305 67.023 66.9045 64.711 68.1365V68.1365L57.541 59.8105L55.074 60.6595L60.008 69.4465C60.008 69.4465 60.085 85.4835 51.066 80.7035V80.7035C51.066 80.7035 51.949 89.3565 52.937 94.7355V94.7355C51.967 95.6585 51.003 96.7875 49.723 98.0625V98.0625C45.486 102.285 44.715 112.099 40 115.767V115.767C40.623 119.646 44.339 122.52 48.226 123.087V123.087C52.112 123.655 56.058 122.308 59.459 120.342V120.342C60.439 119.775 61.447 119.137 62.578 119.094V119.094C64.125 119.034 65.463 120.082 66.906 120.643V120.643C71.152 122.295 75.764 119.634 79.452 116.959V116.959C83.141 114.284 87.412 111.32 91.848 112.358V112.358C91.193 112.204 90.178 110.909 89.677 110.448V110.448C88.91 109.742 88.162 109.015 87.445 108.258V108.258C86.083 106.818 84.82 105.267 83.812 103.556V103.556C82.441 101.231 81.654 98.6725 81.103 96.0595V96.0595C80.834 94.7805 80.622 93.4885 80.424 92.2025V92.2025C80.129 90.2705 79.764 88.0125 80.361 86.1005V86.1005C81.518 82.3995 85.68 77.5435 84.294 71.9145V71.9145C82.906 66.2875 69.287 56.4305 69.287 56.4305V56.4305" fill="#ffffff"/></mask><g mask="url(#mask6b0c22831-b6ab-4252-8bc2-4721e8f1b40f)"><path id="Fill 36" fill-rule="evenodd" clip-rule="evenodd" d="M89.407 105.611C87.723 105.422 87.317 106.431 86.853 107.585C86.438 108.61 85.97 109.774 84.483 110.47C82.668 111.321 80.719 110.44 79.73 109.131C78.992 108.152 78.599 106.657 79.705 105.387C80.222 104.792 80.456 104.262 80.419 103.765C80.364 103.056 79.761 102.547 79.177 102.053C78.42 101.414 77.704 100.809 77.941 99.7865C78.138 98.9425 78.716 98.3435 79.57 98.0965C79.871 98.0095 80.189 97.9695 80.517 97.9695C81.848 97.9695 83.352 98.6575 84.577 99.8715C86.061 101.346 87.654 101.773 88.797 101.855C88.78 101.735 88.76 101.614 88.742 101.497C87.674 101.407 86.204 100.99 84.825 99.6195C83.211 98.0175 81.111 97.2855 79.473 97.7565C78.489 98.0405 77.823 98.7315 77.597 99.7065C77.31 100.941 78.181 101.676 78.948 102.325C79.501 102.791 80.022 103.232 80.065 103.794C80.095 104.189 79.891 104.634 79.437 105.154C78.395 106.349 78.401 107.956 79.448 109.343C80.226 110.377 81.557 111.162 82.986 111.162C83.53 111.162 84.086 111.048 84.634 110.792C86.247 110.035 86.764 108.75 87.181 107.716C87.647 106.56 87.968 105.763 89.469 105.974C89.449 105.852 89.428 105.731 89.407 105.611" fill="#F376DA"/></g></g><g id="Group 41"><mask id="mask7b0c22831-b6ab-4252-8bc2-4721e8f1b40f" mask-type="alpha" maskUnits="userSpaceOnUse" x="40" y="56" width="52" height="68" fill="#ffffff"><path id="Clip 40" fill-rule="evenodd" clip-rule="evenodd" d="M76.969 65.1305C76.969 65.1305 67.023 66.9045 64.711 68.1365V68.1365L57.541 59.8105L55.074 60.6595L60.008 69.4465C60.008 69.4465 60.085 85.4835 51.066 80.7035V80.7035C51.066 80.7035 51.949 89.3565 52.937 94.7355V94.7355C51.967 95.6585 51.003 96.7875 49.723 98.0625V98.0625C45.486 102.285 44.715 112.099 40 115.767V115.767C40.623 119.646 44.339 122.52 48.226 123.087V123.087C52.112 123.655 56.058 122.308 59.459 120.342V120.342C60.439 119.775 61.447 119.137 62.578 119.094V119.094C64.125 119.034 65.463 120.082 66.906 120.643V120.643C71.152 122.295 75.764 119.634 79.452 116.959V116.959C83.141 114.284 87.412 111.32 91.848 112.358V112.358C91.193 112.204 90.178 110.909 89.677 110.448V110.448C88.91 109.742 88.162 109.015 87.445 108.258V108.258C86.083 106.818 84.82 105.267 83.812 103.556V103.556C82.441 101.231 81.654 98.6725 81.103 96.0595V96.0595C80.834 94.7805 80.622 93.4885 80.424 92.2025V92.2025C80.129 90.2705 79.764 88.0125 80.361 86.1005V86.1005C81.518 82.3995 85.68 77.5435 84.294 71.9145V71.9145C82.906 66.2875 69.287 56.4305 69.287 56.4305V56.4305" fill="#ffffff"/></mask><g mask="url(#mask7b0c22831-b6ab-4252-8bc2-4721e8f1b40f)"><path id="Fill 39" fill-rule="evenodd" clip-rule="evenodd" d="M68.0298 102.65C67.0728 103.136 65.4368 102.758 64.0508 101.727C63.4628 101.291 62.9248 101.134 62.3998 101.134C61.7708 101.134 61.1588 101.356 60.4958 101.598C59.3488 102.019 58.0458 102.494 56.1128 102.064C54.1118 101.621 53.4398 99.9676 53.6668 98.6216C53.8648 97.4216 54.8338 96.2156 56.4908 96.3996C57.8078 96.5486 58.7218 96.9946 59.6068 97.4236C60.9648 98.0876 62.2478 98.7116 64.6488 98.0536C65.6288 97.7846 66.4668 97.8756 67.1378 98.3226C68.4398 99.1946 68.7428 101.145 68.7678 101.313C68.7728 101.94 68.5168 102.401 68.0298 102.65M69.2178 101.27C69.2068 101.177 68.9168 98.9696 67.3918 97.9496C66.6068 97.4216 65.6428 97.3116 64.5288 97.6166C62.2928 98.2296 61.1408 97.6696 59.8058 97.0166C58.9278 96.5916 57.9368 96.1076 56.5428 95.9516C54.5918 95.7316 53.4538 97.1436 53.2178 98.5466C52.9598 100.097 53.7248 101.999 56.0148 102.507C58.0768 102.964 59.5048 102.442 60.6528 102.023C61.8338 101.591 62.6888 101.279 63.7798 102.091C64.8478 102.885 66.0338 103.316 67.0338 103.316C67.4828 103.316 67.8898 103.229 68.2358 103.053C68.8808 102.722 69.2318 102.098 69.2198 101.295C69.2198 101.286 69.2178 101.279 69.2178 101.27" fill="#F376DA"/></g></g><g id="Group 44"><mask id="mask8b0c22831-b6ab-4252-8bc2-4721e8f1b40f" mask-type="alpha" maskUnits="userSpaceOnUse" x="40" y="56" width="52" height="68" fill="#ffffff"><path id="Clip 43" fill-rule="evenodd" clip-rule="evenodd" d="M76.969 65.1305C76.969 65.1305 67.023 66.9045 64.711 68.1365V68.1365L57.541 59.8105L55.074 60.6595L60.008 69.4465C60.008 69.4465 60.085 85.4835 51.066 80.7035V80.7035C51.066 80.7035 51.949 89.3565 52.937 94.7355V94.7355C51.967 95.6585 51.003 96.7875 49.723 98.0625V98.0625C45.486 102.285 44.715 112.099 40 115.767V115.767C40.623 119.646 44.339 122.52 48.226 123.087V123.087C52.112 123.655 56.058 122.308 59.459 120.342V120.342C60.439 119.775 61.447 119.137 62.578 119.094V119.094C64.125 119.034 65.463 120.082 66.906 120.643V120.643C71.152 122.295 75.764 119.634 79.452 116.959V116.959C83.141 114.284 87.412 111.32 91.848 112.358V112.358C91.193 112.204 90.178 110.909 89.677 110.448V110.448C88.91 109.742 88.162 109.015 87.445 108.258V108.258C86.083 106.818 84.82 105.267 83.812 103.556V103.556C82.441 101.231 81.654 98.6725 81.103 96.0595V96.0595C80.834 94.7805 80.622 93.4885 80.424 92.2025V92.2025C80.129 90.2705 79.764 88.0125 80.361 86.1005V86.1005C81.518 82.3995 85.68 77.5435 84.294 71.9145V71.9145C82.906 66.2875 69.287 56.4305 69.287 56.4305V56.4305" fill="#ffffff"/></mask><g mask="url(#mask8b0c22831-b6ab-4252-8bc2-4721e8f1b40f)"><path id="Fill 42" fill-rule="evenodd" clip-rule="evenodd" d="M44.6133 114.228C45.3473 113.498 46.2613 112.59 45.7203 110.766C45.4553 109.87 44.9283 109.213 44.1543 108.815C43.0253 108.232 41.6073 108.317 40.6133 108.491C40.6273 108.608 40.6413 108.726 40.6573 108.845C41.0593 108.776 41.5343 108.719 42.0293 108.719C42.6953 108.719 43.3943 108.822 43.9913 109.13C44.6763 109.483 45.1433 110.068 45.3813 110.868C45.8613 112.487 45.0983 113.244 44.3633 113.976C43.5623 114.774 42.8053 115.525 44.3043 117.127C45.7823 118.707 45.7583 120.805 44.8813 121.919C44.4253 122.498 43.8003 122.779 43.0663 122.756C43.0963 122.85 43.1283 122.939 43.1583 123.024C43.2133 123.05 43.2663 123.077 43.3213 123.102C44.0563 123.057 44.6913 122.733 45.1593 122.139C46.1303 120.906 46.1713 118.604 44.5633 116.884C43.3003 115.534 43.8223 115.014 44.6133 114.228" fill="#F376DA"/></g></g><g id="Group 47"><mask id="mask9b0c22831-b6ab-4252-8bc2-4721e8f1b40f" mask-type="alpha" maskUnits="userSpaceOnUse" x="40" y="56" width="52" height="68" fill="#ffffff"><path id="Clip 46" fill-rule="evenodd" clip-rule="evenodd" d="M76.969 65.1305C76.969 65.1305 67.023 66.9045 64.711 68.1365V68.1365L57.541 59.8105L55.074 60.6595L60.008 69.4465C60.008 69.4465 60.085 85.4835 51.066 80.7035V80.7035C51.066 80.7035 51.949 89.3565 52.937 94.7355V94.7355C51.967 95.6585 51.003 96.7875 49.723 98.0625V98.0625C45.486 102.285 44.715 112.099 40 115.767V115.767C40.623 119.646 44.339 122.52 48.226 123.087V123.087C52.112 123.655 56.058 122.308 59.459 120.342V120.342C60.439 119.775 61.447 119.137 62.578 119.094V119.094C64.125 119.034 65.463 120.082 66.906 120.643V120.643C71.152 122.295 75.764 119.634 79.452 116.959V116.959C83.141 114.284 87.412 111.32 91.848 112.358V112.358C91.193 112.204 90.178 110.909 89.677 110.448V110.448C88.91 109.742 88.162 109.015 87.445 108.258V108.258C86.083 106.818 84.82 105.267 83.812 103.556V103.556C82.441 101.231 81.654 98.6725 81.103 96.0595V96.0595C80.834 94.7805 80.622 93.4885 80.424 92.2025V92.2025C80.129 90.2705 79.764 88.0125 80.361 86.1005V86.1005C81.518 82.3995 85.68 77.5435 84.294 71.9145V71.9145C82.906 66.2875 69.287 56.4305 69.287 56.4305V56.4305" fill="#ffffff"/></mask><g mask="url(#mask9b0c22831-b6ab-4252-8bc2-4721e8f1b40f)"><path id="Fill 45" fill-rule="evenodd" clip-rule="evenodd" d="M84.1849 115.433C83.2929 114.87 82.1479 114.811 80.7799 115.259C78.9969 115.846 78.3059 116.812 77.7509 117.588C76.9449 118.713 76.4589 119.394 73.1339 118.098C69.5519 116.704 67.0209 117.493 66.1849 118.816C65.5589 119.807 65.7859 121.053 66.7799 122.239C66.9409 122.244 67.1009 122.249 67.2629 122.251C66.1989 121.115 65.9079 119.922 66.4859 119.006C66.9559 118.261 68.0369 117.712 69.5949 117.712C70.5589 117.712 71.7069 117.923 73.0069 118.43C76.4199 119.759 77.1109 119.091 78.0399 117.793C78.5909 117.021 79.2189 116.147 80.8919 115.596C82.1519 115.183 83.1959 115.227 83.9939 115.731C84.9489 116.333 85.3209 117.456 85.4469 117.991C85.5549 117.93 85.6609 117.868 85.7679 117.804C85.6099 117.188 85.1949 116.073 84.1849 115.433" fill="#F376DA"/></g></g><g id="Group 50"><mask id="mask10b0c22831-b6ab-4252-8bc2-4721e8f1b40f" mask-type="alpha" maskUnits="userSpaceOnUse" x="40" y="56" width="52" height="68" fill="#ffffff"><path id="Clip 49" fill-rule="evenodd" clip-rule="evenodd" d="M76.969 65.1305C76.969 65.1305 67.023 66.9045 64.711 68.1365V68.1365L57.541 59.8105L55.074 60.6595L60.008 69.4465C60.008 69.4465 60.085 85.4835 51.066 80.7035V80.7035C51.066 80.7035 51.949 89.3565 52.937 94.7355V94.7355C51.967 95.6585 51.003 96.7875 49.723 98.0625V98.0625C45.486 102.285 44.715 112.099 40 115.767V115.767C40.623 119.646 44.339 122.52 48.226 123.087V123.087C52.112 123.655 56.058 122.308 59.459 120.342V120.342C60.439 119.775 61.447 119.137 62.578 119.094V119.094C64.125 119.034 65.463 120.082 66.906 120.643V120.643C71.152 122.295 75.764 119.634 79.452 116.959V116.959C83.141 114.284 87.412 111.32 91.848 112.358V112.358C91.193 112.204 90.178 110.909 89.677 110.448V110.448C88.91 109.742 88.162 109.015 87.445 108.258V108.258C86.083 106.818 84.82 105.267 83.812 103.556V103.556C82.441 101.231 81.654 98.6725 81.103 96.0595V96.0595C80.834 94.7805 80.622 93.4885 80.424 92.2025V92.2025C80.129 90.2705 79.764 88.0125 80.361 86.1005V86.1005C81.518 82.3995 85.68 77.5435 84.294 71.9145V71.9145C82.906 66.2875 69.287 56.4305 69.287 56.4305V56.4305" fill="#ffffff"/></mask><g mask="url(#mask10b0c22831-b6ab-4252-8bc2-4721e8f1b40f)"><path id="Fill 48" fill-rule="evenodd" clip-rule="evenodd" d="M54.7372 120.244C54.5242 121.153 53.2832 122.144 52.0092 122.059C49.4452 121.884 48.4332 119.95 48.0342 118.356C47.4402 115.981 47.6562 114.667 48.7802 113.826C48.9502 113.747 50.5842 113.016 51.7522 113.495C52.2312 113.691 52.5732 114.073 52.7702 114.631C53.1422 115.687 52.9572 116.401 52.8102 116.975C52.5942 117.814 52.5302 118.356 53.8912 118.919C54.5812 119.202 54.8732 119.661 54.7372 120.244M54.0262 118.591C52.8812 118.117 52.9662 117.788 53.1542 117.064C53.3052 116.477 53.5122 115.672 53.1032 114.513C52.8722 113.856 52.4632 113.403 51.8872 113.167C50.5152 112.603 48.6882 113.477 48.6122 113.515C48.6012 113.518 48.5922 113.525 48.5832 113.53C47.0092 114.695 47.2242 116.579 47.6902 118.443C48.2932 120.855 49.8192 122.265 51.9862 122.412C52.0472 122.417 52.1092 122.419 52.1692 122.419C53.5692 122.419 54.8432 121.348 55.0832 120.324C55.2582 119.572 54.8732 118.939 54.0262 118.591" fill="#F376DA"/></g></g><g id="Group 53"><mask id="mask11b0c22831-b6ab-4252-8bc2-4721e8f1b40f" mask-type="alpha" maskUnits="userSpaceOnUse" x="40" y="56" width="52" height="68" fill="#ffffff"><path id="Clip 52" fill-rule="evenodd" clip-rule="evenodd" d="M76.969 65.1305C76.969 65.1305 67.023 66.9045 64.711 68.1365V68.1365L57.541 59.8105L55.074 60.6595L60.008 69.4465C60.008 69.4465 60.085 85.4835 51.066 80.7035V80.7035C51.066 80.7035 51.949 89.3565 52.937 94.7355V94.7355C51.967 95.6585 51.003 96.7875 49.723 98.0625V98.0625C45.486 102.285 44.715 112.099 40 115.767V115.767C40.623 119.646 44.339 122.52 48.226 123.087V123.087C52.112 123.655 56.058 122.308 59.459 120.342V120.342C60.439 119.775 61.447 119.137 62.578 119.094V119.094C64.125 119.034 65.463 120.082 66.906 120.643V120.643C71.152 122.295 75.764 119.634 79.452 116.959V116.959C83.141 114.284 87.412 111.32 91.848 112.358V112.358C91.193 112.204 90.178 110.909 89.677 110.448V110.448C88.91 109.742 88.162 109.015 87.445 108.258V108.258C86.083 106.818 84.82 105.267 83.812 103.556V103.556C82.441 101.231 81.654 98.6725 81.103 96.0595V96.0595C80.834 94.7805 80.622 93.4885 80.424 92.2025V92.2025C80.129 90.2705 79.764 88.0125 80.361 86.1005V86.1005C81.518 82.3995 85.68 77.5435 84.294 71.9145V71.9145C82.906 66.2875 69.287 56.4305 69.287 56.4305V56.4305" fill="#ffffff"/></mask><g mask="url(#mask11b0c22831-b6ab-4252-8bc2-4721e8f1b40f)"><path id="Fill 51" fill-rule="evenodd" clip-rule="evenodd" d="M88.0943 116.177C87.2493 115.535 86.7903 114.752 86.7313 113.845C86.6443 112.488 87.4613 111.108 88.1223 110.226C88.0913 110.072 88.0583 109.917 88.0293 109.761C87.3123 110.655 86.2743 112.246 86.3783 113.867C86.4403 114.867 86.9353 115.729 87.8433 116.427C87.9403 116.355 88.0373 116.281 88.1313 116.205C88.1193 116.197 88.1063 116.186 88.0943 116.177" fill="#F376DA"/></g></g><g id="Group 56"><mask id="mask12b0c22831-b6ab-4252-8bc2-4721e8f1b40f" mask-type="alpha" maskUnits="userSpaceOnUse" x="40" y="56" width="52" height="68" fill="#ffffff"><path id="Clip 55" fill-rule="evenodd" clip-rule="evenodd" d="M76.969 65.1305C76.969 65.1305 67.023 66.9045 64.711 68.1365V68.1365L57.541 59.8105L55.074 60.6595L60.008 69.4465C60.008 69.4465 60.085 85.4835 51.066 80.7035V80.7035C51.066 80.7035 51.949 89.3565 52.937 94.7355V94.7355C51.967 95.6585 51.003 96.7875 49.723 98.0625V98.0625C45.486 102.285 44.715 112.099 40 115.767V115.767C40.623 119.646 44.339 122.52 48.226 123.087V123.087C52.112 123.655 56.058 122.308 59.459 120.342V120.342C60.439 119.775 61.447 119.137 62.578 119.094V119.094C64.125 119.034 65.463 120.082 66.906 120.643V120.643C71.152 122.295 75.764 119.634 79.452 116.959V116.959C83.141 114.284 87.412 111.32 91.848 112.358V112.358C91.193 112.204 90.178 110.909 89.677 110.448V110.448C88.91 109.742 88.162 109.015 87.445 108.258V108.258C86.083 106.818 84.82 105.267 83.812 103.556V103.556C82.441 101.231 81.654 98.6725 81.103 96.0595V96.0595C80.834 94.7805 80.622 93.4885 80.424 92.2025V92.2025C80.129 90.2705 79.764 88.0125 80.361 86.1005V86.1005C81.518 82.3995 85.68 77.5435 84.294 71.9145V71.9145C82.906 66.2875 69.287 56.4305 69.287 56.4305V56.4305" fill="#ffffff"/></mask><g mask="url(#mask12b0c22831-b6ab-4252-8bc2-4721e8f1b40f)"><path id="Fill 54" fill-rule="evenodd" clip-rule="evenodd" d="M76.2305 108.397C77.5655 109.317 78.0995 111.133 77.5025 112.714C76.6385 115.001 73.9625 117.883 70.9815 118.749C68.9445 119.339 67.0205 118.969 65.2595 117.646C64.0265 116.719 62.8445 115.959 61.7135 115.367C60.2865 114.621 58.9465 114.145 57.7055 113.945C56.6005 113.766 55.7965 112.936 55.6565 111.827C55.5915 111.302 55.6845 110.803 55.9095 110.373C56.1615 109.89 56.5785 109.499 57.1235 109.261C57.1845 109.236 57.2455 109.209 57.3075 109.184C60.2555 107.95 62.1755 108.944 64.0325 109.906C65.9885 110.918 67.8375 111.877 70.4315 109.584C72.4975 107.76 74.6645 107.316 76.2305 108.397M70.1955 109.319C67.7855 111.45 66.1205 110.589 64.1965 109.591C62.3565 108.639 60.2715 107.56 57.1705 108.856C57.1065 108.883 57.0445 108.911 56.9815 108.938C55.8035 109.447 55.1465 110.6 55.3045 111.873C55.4635 113.14 56.3845 114.091 57.6485 114.294C59.7845 114.638 62.3435 115.895 65.0475 117.929C66.8755 119.303 68.9615 119.705 71.0795 119.09C73.8245 118.293 76.3175 115.847 77.4665 113.65C77.6105 113.376 77.7325 113.103 77.8335 112.839C78.4865 111.108 77.8975 109.118 76.4315 108.104C74.7225 106.924 72.3925 107.379 70.1955 109.319" fill="#F376DA"/></g></g><g id="Group 59"><mask id="mask13b0c22831-b6ab-4252-8bc2-4721e8f1b40f" mask-type="alpha" maskUnits="userSpaceOnUse" x="40" y="56" width="52" height="68" fill="#ffffff"><path id="Clip 58" fill-rule="evenodd" clip-rule="evenodd" d="M76.969 65.1305C76.969 65.1305 67.023 66.9045 64.711 68.1365V68.1365L57.541 59.8105L55.074 60.6595L60.008 69.4465C60.008 69.4465 60.085 85.4835 51.066 80.7035V80.7035C51.066 80.7035 51.949 89.3565 52.937 94.7355V94.7355C51.967 95.6585 51.003 96.7875 49.723 98.0625V98.0625C45.486 102.285 44.715 112.099 40 115.767V115.767C40.623 119.646 44.339 122.52 48.226 123.087V123.087C52.112 123.655 56.058 122.308 59.459 120.342V120.342C60.439 119.775 61.447 119.137 62.578 119.094V119.094C64.125 119.034 65.463 120.082 66.906 120.643V120.643C71.152 122.295 75.764 119.634 79.452 116.959V116.959C83.141 114.284 87.412 111.32 91.848 112.358V112.358C91.193 112.204 90.178 110.909 89.677 110.448V110.448C88.91 109.742 88.162 109.015 87.445 108.258V108.258C86.083 106.818 84.82 105.267 83.812 103.556V103.556C82.441 101.231 81.654 98.6725 81.103 96.0595V96.0595C80.834 94.7805 80.622 93.4885 80.424 92.2025V92.2025C80.129 90.2705 79.764 88.0125 80.361 86.1005V86.1005C81.518 82.3995 85.68 77.5435 84.294 71.9145V71.9145C82.906 66.2875 69.287 56.4305 69.287 56.4305V56.4305" fill="#ffffff"/></mask><g mask="url(#mask13b0c22831-b6ab-4252-8bc2-4721e8f1b40f)"><path id="Fill 57" fill-rule="evenodd" clip-rule="evenodd" d="M57.1668 105.227C57.6348 105.73 57.6408 106.634 57.1808 107.331C56.5708 108.256 55.3978 108.521 54.0478 108.038C52.2658 107.4 51.2678 108.33 50.4628 109.077C49.7388 109.75 49.2158 110.239 48.3308 109.706C47.6018 109.267 47.3148 108.558 47.4798 107.604C47.4998 107.484 47.5278 107.365 47.5628 107.248C47.8548 106.249 48.6238 105.402 49.6378 104.986C51.6808 104.146 55.5328 103.468 57.1668 105.227M49.5028 104.658C48.2388 105.176 47.3538 106.254 47.1298 107.543C46.9408 108.641 47.2928 109.494 48.1488 110.009C49.2628 110.679 49.9958 109.996 50.7048 109.335C51.5138 108.584 52.3498 107.806 53.9278 108.371C55.4438 108.915 56.7708 108.597 57.4778 107.525C57.6158 107.314 57.7198 107.09 57.7868 106.862C57.9878 106.176 57.8658 105.457 57.4258 104.985C55.6708 103.095 51.6348 103.781 49.5028 104.658" fill="#F376DA"/></g></g><g id="Group 62"><mask id="mask14b0c22831-b6ab-4252-8bc2-4721e8f1b40f" mask-type="alpha" maskUnits="userSpaceOnUse" x="40" y="56" width="52" height="68" fill="#ffffff"><path id="Clip 61" fill-rule="evenodd" clip-rule="evenodd" d="M76.969 65.1305C76.969 65.1305 67.023 66.9045 64.711 68.1365V68.1365L57.541 59.8105L55.074 60.6595L60.008 69.4465C60.008 69.4465 60.085 85.4835 51.066 80.7035V80.7035C51.066 80.7035 51.949 89.3565 52.937 94.7355V94.7355C51.967 95.6585 51.003 96.7875 49.723 98.0625V98.0625C45.486 102.285 44.715 112.099 40 115.767V115.767C40.623 119.646 44.339 122.52 48.226 123.087V123.087C52.112 123.655 56.058 122.308 59.459 120.342V120.342C60.439 119.775 61.447 119.137 62.578 119.094V119.094C64.125 119.034 65.463 120.082 66.906 120.643V120.643C71.152 122.295 75.764 119.634 79.452 116.959V116.959C83.141 114.284 87.412 111.32 91.848 112.358V112.358C91.193 112.204 90.178 110.909 89.677 110.448V110.448C88.91 109.742 88.162 109.015 87.445 108.258V108.258C86.083 106.818 84.82 105.267 83.812 103.556V103.556C82.441 101.231 81.654 98.6725 81.103 96.0595V96.0595C80.834 94.7805 80.622 93.4885 80.424 92.2025V92.2025C80.129 90.2705 79.764 88.0125 80.361 86.1005V86.1005C81.518 82.3995 85.68 77.5435 84.294 71.9145V71.9145C82.906 66.2875 69.287 56.4305 69.287 56.4305V56.4305" fill="#ffffff"/></mask><g mask="url(#mask14b0c22831-b6ab-4252-8bc2-4721e8f1b40f)"><path id="Fill 60" fill-rule="evenodd" clip-rule="evenodd" d="M61.6667 58.262C61.5557 58.311 61.4417 58.357 61.3237 58.404C61.9677 59.155 62.2717 60.195 62.1237 61.228C61.8137 63.415 60.4467 67.079 58.1037 67.599C57.4337 67.747 56.6497 67.294 56.2827 66.544C55.7927 65.549 56.1577 64.406 57.2587 63.485C58.7107 62.272 58.4147 60.94 58.1777 59.868C58.1377 59.686 58.0997 59.513 58.0707 59.349C57.9567 59.369 57.8397 59.392 57.7207 59.411C57.7517 59.587 57.7917 59.768 57.8317 59.946C58.0707 61.024 58.3177 62.139 57.0317 63.213C55.7967 64.244 55.3967 65.549 55.9637 66.702C56.0767 66.927 56.2167 67.131 56.3797 67.304C56.8697 67.825 57.5497 68.083 58.1817 67.945C60.6997 67.387 62.1507 63.56 62.4747 61.277C62.6337 60.164 62.3357 59.082 61.6667 58.262" fill="#F376DA"/></g></g></g><g id="Group 88"><path id="Fill 64" fill-rule="evenodd" clip-rule="evenodd" d="M52.1251 61.6301C52.1251 61.6301 54.8981 68.3611 58.1901 68.5431L59.8901 70.3691C66.3781 79.2321 73.8671 87.7171 81.2511 95.3101C89.2241 95.2051 97.1951 94.8491 105.145 94.2331C107.611 94.0411 110.732 93.0351 113.106 93.1501C115.168 93.2481 116.855 94.6181 116.367 96.7311C115.816 99.1091 111.882 99.9011 110.041 100.566C104.023 102.739 97.7931 104.303 91.4931 105.402C87.3661 106.132 83.2501 106.648 79.2191 107.002C77.0711 107.191 74.9401 106.461 73.3631 104.99C69.7101 101.583 66.4001 98.2201 63.4891 95.0801C56.3141 87.3231 51.5741 80.9381 50.0571 78.7161C46.9311 74.1291 46.5551 64.3661 52.1251 61.6301" fill="#9f91ca"/><path id="Fill 66" fill-rule="evenodd" clip-rule="evenodd" d="M125.451 61.2669C125.675 61.1459 125.943 61.0349 126.175 61.1389C126.376 61.2299 126.479 61.4549 126.53 61.6699C126.76 62.6449 126.262 63.6319 125.737 64.4839C125.251 65.2719 124.716 66.0479 123.992 66.6239C123.559 66.9679 122.899 67.2219 122.486 66.8549C122.141 66.5469 122.194 66.0029 122.275 65.5479C122.621 63.6049 123.675 62.2319 125.451 61.2669" fill="#9f91ca"/><path id="Fill 68" fill-rule="evenodd" clip-rule="evenodd" d="M125.957 97.0597C124.739 97.8457 120.593 98.1627 119.423 98.5127C118.257 98.8607 114.269 98.6387 114.269 98.6387L113.26 94.9597C113.26 94.9597 113.294 94.0877 115.601 92.4637C117.904 90.8357 121.823 88.1327 122.458 88.6087C123.071 89.0697 120.922 91.6327 120.447 92.1627L120.401 92.2107C120.374 92.2407 120.392 92.2507 120.454 92.2527C121.153 92.2377 127.413 90.2867 127.782 91.0137C127.892 91.2367 127.894 91.7537 127.809 92.3947C127.803 92.4387 127.797 92.4827 127.788 92.5307C127.719 93.0027 127.608 93.5357 127.465 94.0647C127.456 94.1127 127.442 94.1567 127.426 94.2057C127.279 94.7307 127.099 95.2537 126.898 95.7087C126.874 95.7567 126.853 95.8017 126.833 95.8457C126.571 96.4127 126.271 96.8597 125.957 97.0597" fill="#9f91ca"/><path id="Fill 70" fill-rule="evenodd" clip-rule="evenodd" d="M118.093 95.3977L118.09 95.3947C118.066 95.3697 118.067 95.3287 118.093 95.3037C119.246 94.2147 120.335 92.2037 120.345 92.1827C120.362 92.1517 120.402 92.1397 120.432 92.1577C120.463 92.1727 120.475 92.2127 120.459 92.2447C120.448 92.2647 119.35 94.2947 118.181 95.3977C118.156 95.4207 118.118 95.4207 118.093 95.3977" fill="#9f91ca"/><path id="Fill 72" fill-rule="evenodd" clip-rule="evenodd" d="M127.787 92.5305L121.699 93.6965C121.678 93.6975 121.659 93.6945 121.644 93.6795C121.633 93.6695 121.629 93.6585 121.624 93.6405C121.62 93.6075 121.641 93.5785 121.677 93.5695L127.808 92.3945C127.802 92.4385 127.796 92.4825 127.787 92.5305" fill="#9f91ca"/><path id="Fill 74" fill-rule="evenodd" clip-rule="evenodd" d="M127.425 94.2053L122.123 95.0753C122.105 95.0803 122.083 95.0733 122.068 95.0593C122.06 95.0523 122.052 95.0383 122.048 95.0263C122.043 94.9873 122.064 94.9573 122.1 94.9483L127.464 94.0643C127.455 94.1123 127.442 94.1563 127.425 94.2053" fill="#9f91ca"/><path id="Fill 76" fill-rule="evenodd" clip-rule="evenodd" d="M126.833 95.8459L122.173 96.6199C122.151 96.6199 122.129 96.6149 122.118 96.6039C122.106 96.5929 122.099 96.5779 122.098 96.5639C122.093 96.5319 122.114 96.4939 122.15 96.4929L126.897 95.7089C126.874 95.7569 126.853 95.8019 126.833 95.8459" fill="#9f91ca"/><path id="Fill 78" fill-rule="evenodd" clip-rule="evenodd" d="M128.036 71.8216L134.573 69.1456L129.446 54.0936L121.139 57.4936L128.036 71.8216Z" fill="#8C87EF"/><path id="Fill 80" fill-rule="evenodd" clip-rule="evenodd" d="M125.985 68.6731L133.83 65.4631L130.766 56.6591L121.998 60.2481L125.985 68.6731Z" fill="#6856C8"/><path id="Fill 82" fill-rule="evenodd" clip-rule="evenodd" d="M126.659 63.3694C126.995 64.1894 127.932 64.5824 128.752 64.2464C129.573 63.9104 129.966 62.9734 129.63 62.1534C129.294 61.3334 128.357 60.9394 127.536 61.2754C126.716 61.6114 126.324 62.5494 126.659 63.3694" fill="#EFF2F9"/><path id="Fill 84" fill-rule="evenodd" clip-rule="evenodd" d="M120.738 58.0734L130.14 54.2244L129.704 53.1584L120.301 57.0064L120.738 58.0734Z" fill="#2A0952"/><path id="Fill 86" fill-rule="evenodd" clip-rule="evenodd" d="M121.135 56.8665L129.009 53.6435L128.336 52.0005L122.106 54.5505C121.198 54.9215 120.763 55.9585 121.135 56.8665" fill="#2A0952"/></g></g></g></g></g></g><g id="Desk"><g id="Plant"><path id="Fill 185" fill-rule="evenodd" clip-rule="evenodd" d="M89.1964 156.91C89.0954 155.719 88.9934 154.017 88.9294 152.823C88.8244 150.837 88.7414 148.848 88.6644 146.86C88.6364 146.158 88.8664 145.923 89.5684 145.802C90.4144 145.654 91.2714 145.59 92.1264 145.535C92.6584 145.5 93.1844 145.39 93.7174 145.373C93.8774 145.368 94.4214 145.369 94.5474 145.487C94.6084 145.545 94.5714 146.036 94.5344 146.037C93.3584 146.068 92.1774 145.958 91.0094 146.175C90.7844 146.217 90.4454 146.207 90.4094 146.433C90.3594 146.742 90.7494 146.666 90.9304 146.785C90.9804 146.817 91.0544 146.813 91.1174 146.824C92.7764 147.099 94.4364 147.371 96.1274 147.207C97.3384 147.089 98.5424 146.929 99.7304 146.665C99.9274 146.622 100.216 146.563 100.196 146.304C100.17 145.976 99.8524 146.043 99.6314 146.042C98.1944 146.035 96.7574 146.04 95.3204 146.04C95.2114 145.88 95.2224 145.709 95.2754 145.534C96.1244 145.218 96.9744 145.554 97.8224 145.53C98.5674 145.576 99.3124 145.629 100.058 145.663C102.563 145.778 100.965 156.068 100.896 156.876L89.1964 156.91Z" fill="#FF67FF"/><path id="Fill 187" fill-rule="evenodd" clip-rule="evenodd" d="M94.5347 146.037C94.6057 146.242 94.5977 146.451 94.5727 146.664C94.5407 146.941 94.7067 147.038 94.9517 147.054C95.2227 147.072 95.3397 146.931 95.3367 146.674C95.3357 146.463 95.3267 146.252 95.3207 146.041C96.7577 146.04 98.1947 146.035 99.6317 146.042C99.8527 146.043 100.171 145.976 100.197 146.305C100.217 146.563 99.9277 146.622 99.7307 146.665C98.5427 146.929 97.3387 147.089 96.1277 147.207C94.4357 147.371 92.7767 147.099 91.1177 146.824C91.0547 146.813 90.9807 146.817 90.9307 146.785C90.7497 146.666 90.3597 146.742 90.4097 146.433C90.4457 146.207 90.7847 146.217 91.0097 146.175C92.1777 145.958 93.3587 146.068 94.5347 146.037" fill="#503890"/><path id="Fill 189" fill-rule="evenodd" clip-rule="evenodd" d="M95.2527 141.008C94.9497 141.444 94.7157 141.908 94.5907 142.426L94.5697 142.452C93.9757 141.862 93.9687 141.126 94.0477 140.366C94.0637 140.221 94.1287 140.127 94.2617 140.078C94.9917 139.811 95.2997 139.146 95.6787 138.555C95.8077 138.354 96.0297 138.085 95.7657 137.865C95.5137 137.656 95.2387 137.832 94.9997 137.987C94.7207 138.169 94.5667 138.507 94.2277 138.647C94.1097 137.613 94.1667 137.502 94.9797 137.064C95.4167 136.828 95.8317 136.563 96.1317 136.153C96.2697 135.964 96.3197 135.763 96.1997 135.552C96.0847 135.35 95.8807 135.388 95.6877 135.369C95.3247 135.335 95.1017 135.679 94.7247 135.726C94.7647 135.081 95.0217 134.574 95.3407 134.089C95.6617 133.603 95.9167 133.081 96.0907 132.528C96.1597 132.31 96.1877 132.035 95.9087 131.909C95.6487 131.792 95.5237 132.012 95.3857 132.173C94.9597 132.672 94.7777 133.295 94.5277 133.928C94.3177 133.726 94.2887 133.485 94.1957 133.274C94.0587 132.96 93.9167 132.648 93.7557 132.346C93.6607 132.168 93.5027 132.024 93.2837 132.133C93.0937 132.229 93.1207 132.43 93.1757 132.591C93.3227 133.015 93.3557 133.5 93.6567 133.845C94.3967 134.687 94.1687 135.557 93.7947 136.574C93.5387 136.07 93.3087 135.665 92.9687 135.34C92.8097 135.188 92.6277 135.128 92.4427 135.197C92.2197 135.281 92.2177 135.526 92.2677 135.698C92.3817 136.097 92.4257 136.508 92.8037 136.822C93.1317 137.096 93.5487 137.393 93.5757 137.884C93.6227 138.747 93.3607 139.595 93.4697 140.472C93.1907 140.253 93.0187 140 92.7897 139.819C92.3217 139.448 92.1777 138.996 92.2297 138.41C92.2777 137.858 92.2467 137.291 92.0827 136.751C91.9967 136.471 91.9167 136.119 91.5117 136.174C91.0997 136.23 91.0377 136.556 91.0697 136.904C91.1167 137.4 91.1747 137.894 91.2317 138.425C90.6427 138.242 90.4277 137.96 90.4797 137.361C90.5297 136.776 90.4127 136.164 90.1207 135.617C90.0067 135.406 89.8437 135.279 89.6017 135.326C89.3537 135.375 89.3627 135.598 89.3387 135.787C89.2597 136.397 89.3257 137.029 89.4057 137.636C89.0287 137.755 87.8257 137.106 87.6737 137.8C87.6147 138.074 87.8387 138.171 88.0227 138.272C88.4387 138.499 88.8957 138.426 89.3427 138.438C89.6727 138.446 90.0457 138.559 90.1597 138.829C90.2857 139.13 89.8777 139.166 89.6787 139.296C89.5147 139.403 89.3487 139.529 89.4147 139.757C89.4677 139.944 89.6377 140.002 89.8167 140.022C90.3077 140.075 90.7997 140.125 91.2767 139.949C91.5967 139.832 91.8607 139.897 92.0867 140.145C93.0857 141.233 93.8167 142.465 94.1427 143.918C94.0957 143.971 94.0477 144.024 94.0017 144.076C93.4907 143.797 93.1947 143.25 92.6657 142.998C92.3977 142.871 92.0727 142.703 91.8417 142.984C91.6037 143.275 91.9197 143.503 92.0867 143.694C92.6757 144.362 93.4387 144.785 94.2447 145.136C94.7427 145.307 94.4907 145.719 94.5347 146.036C94.6057 146.241 94.5977 146.45 94.5727 146.663C94.5407 146.941 94.7067 147.037 94.9507 147.053C95.2227 147.071 95.3387 146.93 95.3367 146.673C95.3357 146.462 95.3267 146.251 95.3207 146.039C95.2107 145.879 95.2217 145.708 95.2757 145.533C95.3347 145.341 95.1667 144.923 95.1337 144.723C95.0827 144.414 95.0377 144.101 95.0597 143.788C95.1057 143.144 95.5027 142.61 95.8177 142.067C95.9577 141.824 96.3027 141.238 96.1857 140.945C96.0107 140.508 95.4447 140.733 95.2527 141.008" fill="#C664E9"/><path id="Fill 191" fill-rule="evenodd" clip-rule="evenodd" d="M93.2091 152.638C93.2081 152.602 92.8441 152.33 92.7961 152.248C92.7131 152.104 92.6791 151.945 92.6971 151.78C92.7471 151.331 93.0171 151.147 93.4081 151.027C93.9021 150.876 93.7541 150.159 94.2661 149.94C94.6871 149.759 95.1661 149.985 95.4521 150.302C95.8131 150.363 96.1991 150.074 96.5691 150.325C96.7871 150.473 96.9151 150.677 96.9601 150.945C97.0021 151.194 96.8571 151.42 96.9061 151.672C96.9641 151.79 97.0791 151.867 97.1731 151.961C97.6671 152.462 97.4141 153.305 96.7501 153.397C96.7021 153.404 96.6551 153.411 96.6411 153.413C96.3401 153.459 96.2211 154.139 95.9871 154.315C95.8391 154.426 95.6731 154.522 95.4901 154.547C95.0301 154.611 94.9561 154.201 94.6241 154.032C94.4811 154.073 94.3211 154.121 94.1591 154.166C93.7221 154.285 93.4331 154.133 93.2731 153.71C93.1821 153.469 93.0991 153.237 93.2101 152.973C93.2491 152.881 93.2111 152.758 93.2091 152.638" fill="#4DDEFF"/><path id="Fill 193" fill-rule="evenodd" clip-rule="evenodd" d="M95.5963 152.395C95.5963 152.69 95.3573 152.929 95.0623 152.929C94.7663 152.929 94.5273 152.69 94.5273 152.395C94.5273 152.099 94.7663 151.86 95.0623 151.86C95.3573 151.86 95.5963 152.099 95.5963 152.395" fill="#EFF2F9"/></g><path id="Fill 167" fill-rule="evenodd" clip-rule="evenodd" d="M179.254 156.472H129.377C129.265 156.472 129.175 156.382 129.175 156.271C129.175 154.722 130.43 153.467 131.979 153.467H179.254C179.365 153.467 179.455 153.557 179.455 153.668V156.271C179.455 156.382 179.365 156.472 179.254 156.472" fill="#8A60E2"/><path id="Fill 169" fill-rule="evenodd" clip-rule="evenodd" d="M195.907 128.912L189.681 155.242C189.515 155.944 188.889 156.439 188.168 156.439H149.818C148.814 156.439 148.074 155.503 148.304 154.526L154.53 128.197C154.696 127.495 155.322 127 156.043 127H194.393C195.397 127 196.138 127.936 195.907 128.912" fill="#432C82"/><path id="Fill 171" fill-rule="evenodd" clip-rule="evenodd" d="M188.729 153.785H154.429C154.273 153.785 154.147 153.66 154.147 153.505C154.147 153.349 154.273 153.223 154.429 153.223H188.729C188.884 153.223 189.01 153.349 189.01 153.505C189.01 153.66 188.884 153.785 188.729 153.785" fill="#FF67FF"/><path id="Fill 173" fill-rule="evenodd" clip-rule="evenodd" d="M170.515 141.986C170.556 143.934 173.858 146.375 173.858 146.375C173.858 146.375 177.692 143.934 178.158 141.986C178.663 139.874 176.251 139.225 174.464 140.818C173.025 139.225 170.471 139.874 170.515 141.986" fill="#FF67FF"/><path id="Fill 175" fill-rule="evenodd" clip-rule="evenodd" d="M157.562 127L150.934 156.439H149.817C148.813 156.439 148.073 155.503 148.304 154.526L154.529 128.197C154.695 127.495 155.321 127 156.042 127H157.562Z" fill="#8A60E2"/><path id="Fill 177" fill-rule="evenodd" clip-rule="evenodd" d="M192.867 158.557V160.583C192.867 161.749 192.162 162.694 191.293 162.694H81.7839C80.9149 162.694 80.2109 161.749 80.2109 160.583V158.557C80.2109 157.391 80.9149 156.447 81.7839 156.447H191.293C192.162 156.447 192.867 157.391 192.867 158.557" fill="#FFB700"/><path id="Fill 179" fill-rule="evenodd" clip-rule="evenodd" d="M185.178 167.902H91.0367C88.1467 167.902 85.8037 165.559 85.8037 162.67H190.411C190.411 165.559 188.068 167.902 185.178 167.902" fill="#EA9800"/><path id="Fill 181" fill-rule="evenodd" clip-rule="evenodd" d="M86.259 241.797L104.082 167.902H97.822L80 241.797H86.259Z" fill="#FFB700"/><path id="Fill 183" fill-rule="evenodd" clip-rule="evenodd" d="M191.468 241.797L173.646 167.902H179.905L197.727 241.797H191.468Z" fill="#FFB700"/></g></g></svg>