<svg width="50" height="50" viewBox="0 0 50 50" fill="none" xmlns="http://www.w3.org/2000/svg">
<rect width="50" height="50" rx="25" fill="url(#paint0_linear)"/>
<path d="M25.0012 10.0145C18.8569 10.0145 13.0223 9.46835 10.7937 15.1831C9.87315 17.5434 10.0068 20.6087 10.0068 24.9979C10.0068 28.8494 9.8833 32.4693 10.7937 34.811C13.0172 40.5291 18.8992 39.9813 24.9978 39.9813C30.8815 39.9813 36.948 40.5934 39.2037 34.811C40.1259 32.427 39.9905 29.4074 39.9905 24.9979C39.9905 19.1445 40.3137 15.3657 37.4726 12.5286C34.5959 9.65433 30.7055 10.0145 24.9944 10.0145H25.0012ZM23.6576 12.7146C36.4742 12.6943 38.1054 11.2707 37.2052 31.0474C36.8854 38.042 31.555 37.2744 25.0029 37.2744C13.0561 37.2744 12.7126 36.9329 12.7126 24.9911C12.7126 12.9107 13.6602 12.7214 23.6576 12.7112V12.7146ZM33.0052 15.2017C32.0119 15.2017 31.2064 16.0065 31.2064 16.9989C31.2064 17.9914 32.0119 18.7962 33.0052 18.7962C33.9985 18.7962 34.804 17.9914 34.804 16.9989C34.804 16.0065 33.9985 15.2017 33.0052 15.2017ZM25.0012 17.3033C20.7488 17.3033 17.3018 20.749 17.3018 24.9979C17.3018 29.2467 20.7488 32.6908 25.0012 32.6908C29.2537 32.6908 32.6989 29.2467 32.6989 24.9979C32.6989 20.749 29.2537 17.3033 25.0012 17.3033ZM25.0012 20.0034C31.6092 20.0034 31.6176 29.9924 25.0012 29.9924C18.395 29.9924 18.3848 20.0034 25.0012 20.0034Z" fill="white"/>
<defs>
<linearGradient id="paint0_linear" x1="3.35708" y1="46.7425" x2="49.6855" y2="6.63794" gradientUnits="userSpaceOnUse">
<stop stop-color="#FFDD55"/>
<stop offset="0.5" stop-color="#FF543E"/>
<stop offset="1" stop-color="#C837AB"/>
</linearGradient>
</defs>
</svg>
