<svg width="76" height="78" viewBox="0 0 76 78" fill="none" xmlns="http://www.w3.org/2000/svg">
<path fill-rule="evenodd" clip-rule="evenodd" d="M60.6522 10.2318C42.6522 -7.54863 27.32 0.537678 24.6522 14.0838C21.9843 27.63 -2.79876 30.3347 0.261187 46.3347C3.32114 62.3347 36.6522 52.8347 36.6522 67.3347C36.6522 81.8347 75.1896 81.3347 75.1896 62.3347C75.1896 43.3347 78.6522 28.0122 60.6522 10.2318Z" fill="#F7F7FA"/>
<path d="M51 45V63C51 65.208 49.208 67 47 67H19C16.792 67 15 65.208 15 63V15C15 12.792 16.792 11 19 11H47C49.208 11 51 12.792 51 15V26.314" stroke="#205B90" stroke-width="3" stroke-linecap="round" stroke-linejoin="round"/>
<path d="M15 61H51" stroke="#205B90" stroke-width="3" stroke-linecap="round" stroke-linejoin="round"/>
<path d="M29 17H37" stroke="#205B90" stroke-width="3" stroke-linecap="round" stroke-linejoin="round"/>
<path fill-rule="evenodd" clip-rule="evenodd" d="M57 27H37C34.792 27 33 28.792 33 31V41C33 43.208 34.792 45 37 45H39V53L47 45H57C59.208 45 61 43.208 61 41V31C61 28.792 59.208 27 57 27Z" stroke="#E54A66" stroke-width="3" stroke-linecap="round" stroke-linejoin="round"/>
</svg>
