<svg width="50" height="50" viewBox="0 0 50 50" fill="none" xmlns="http://www.w3.org/2000/svg">
<path d="M25 50C38.8071 50 50 38.8071 50 25C50 11.1929 38.8071 0 25 0C11.1929 0 0 11.1929 0 25C0 38.8071 11.1929 50 25 50Z" fill="#55ACEE"/>
<path d="M40.3135 17.9668C39.2421 18.4419 38.0897 18.7632 36.8811 18.9067C38.1151 18.1673 39.0621 16.9975 39.5091 15.6013C38.3544 16.2862 37.0749 16.7831 35.7144 17.051C34.6243 15.8901 33.0712 15.1646 31.3515 15.1646C28.0519 15.1646 25.3758 17.8407 25.3758 21.1403C25.3758 21.6086 25.4288 22.0645 25.5313 22.5022C20.565 22.253 16.1615 19.8742 13.214 16.2577C12.6997 17.1401 12.4047 18.1673 12.4047 19.2623C12.4047 21.335 13.4605 23.1648 15.063 24.2362C14.0839 24.2054 13.1619 23.9367 12.3566 23.4879C12.3561 23.5133 12.3561 23.5387 12.3561 23.5637C12.3561 26.4591 14.4168 28.874 17.15 29.4226C16.6491 29.5599 16.1201 29.6325 15.576 29.6325C15.19 29.6325 14.8161 29.5955 14.4516 29.526C15.2119 31.8995 17.4183 33.6273 20.0338 33.6759C17.9883 35.2789 15.412 36.2339 12.6115 36.2339C12.1302 36.2339 11.6534 36.2059 11.1868 36.1501C13.8299 37.8463 16.9717 38.8352 20.3462 38.8352C31.3377 38.8352 37.3486 29.7297 37.3486 21.8323C37.3486 21.5734 37.3428 21.3154 37.3312 21.0596C38.4997 20.2173 39.5126 19.1651 40.3135 17.9668Z" fill="#F1F2F2"/>
</svg>
