<svg xmlns="http://www.w3.org/2000/svg" xmlns:xlink="http://www.w3.org/1999/xlink" width="500" zoomAndPan="magnify" viewBox="0 0 375 374.999991" height="500" preserveAspectRatio="xMidYMid meet" version="1.0"><defs><g><g id="id1"/></g><clipPath id="id2"><path d="M 110.949219 93.941406 L 236.105469 93.941406 L 236.105469 218.234375 L 110.949219 218.234375 Z M 110.949219 93.941406 " clip-rule="nonzero"/></clipPath><clipPath id="id3"><path d="M 125.289062 127 L 235.585938 127 L 235.585938 218.234375 L 125.289062 218.234375 Z M 125.289062 127 " clip-rule="nonzero"/></clipPath><clipPath id="id4"><path d="M 114 93.734375 L 235 93.734375 L 235 217 L 114 217 Z M 114 93.734375 " clip-rule="nonzero"/></clipPath><clipPath id="id5"><path d="M 110.511719 99 L 237 99 L 237 217 L 110.511719 217 Z M 110.511719 99 " clip-rule="nonzero"/></clipPath><clipPath id="id6"><path d="M 152 121 L 241.761719 121 L 241.761719 218 L 152 218 Z M 152 121 " clip-rule="nonzero"/></clipPath></defs><g clip-path="url(#id2)"><path fill="rgb(59.999084%, 43.528748%, 21.958923%)" d="M 215.746094 206.058594 C 215.394531 206.011719 214.996094 205.910156 214.84375 205.589844 C 214.722656 205.34375 214.796875 205.050781 214.878906 204.789062 C 215.761719 202.058594 217.875 199.757812 219.011719 197.1875 C 219.421875 200.296875 219.832031 203.410156 220.246094 206.519531 C 218.800781 206.089844 217.242188 206.253906 215.746094 206.058594 Z M 234.480469 118.726562 C 234.070312 117.402344 233.660156 116.074219 233.246094 114.75 C 234.496094 110.867188 235.441406 106.871094 234.910156 102.867188 C 234.792969 101.988281 234.59375 101.089844 234.070312 100.378906 C 233.550781 99.664062 232.632812 99.179688 231.777344 99.390625 C 231.253906 99.519531 230.824219 99.882812 230.421875 100.234375 C 227.5 102.773438 224.734375 105.484375 222.132812 108.351562 C 220.125 107.136719 217.921875 106.234375 215.640625 105.691406 C 213.753906 105.238281 211.816406 105.027344 209.882812 105.085938 C 209.441406 104.332031 208.929688 103.613281 208.398438 102.925781 C 206.941406 101.039062 205.28125 99.28125 204.191406 97.164062 C 203.78125 96.367188 203.445312 95.511719 202.84375 94.847656 C 202.246094 94.179688 201.289062 93.734375 200.449219 94.042969 C 199.859375 94.257812 199.449219 94.796875 199.128906 95.335938 C 197.476562 98.128906 197.367188 101.550781 197.421875 104.796875 C 197.46875 107.851562 197.621094 110.898438 197.871094 113.945312 C 196.632812 115.683594 195.472656 117.476562 194.535156 119.390625 C 193.238281 122.042969 192.375 124.980469 192.445312 127.921875 C 192.453125 128.296875 192.476562 128.671875 192.519531 129.046875 C 192.679688 130.601562 193.152344 132.144531 193.90625 133.515625 C 193.515625 133.867188 193.089844 134.199219 192.652344 134.523438 C 190.78125 135.882812 188.578125 137.074219 187.226562 138.90625 C 186.207031 140.292969 185.722656 142.003906 184.847656 143.488281 C 183.078125 146.480469 179.945312 148.269531 176.847656 149.910156 C 176.441406 150.125 176.03125 150.339844 175.625 150.550781 C 169.335938 153.878906 163.246094 157.8125 158.554688 163.171875 C 155.039062 167.1875 152.507812 171.976562 151 177.082031 C 148.507812 185.5 148.792969 194.789062 152.007812 202.933594 C 149.832031 202.777344 147.640625 202.644531 145.449219 202.558594 C 142.15625 202.425781 138.867188 202.394531 135.613281 202.574219 C 134.535156 202.628906 133.460938 202.710938 132.394531 202.816406 C 131.28125 202.921875 130.175781 203.0625 129.078125 203.230469 C 124.667969 203.914062 120.382812 205.109375 116.34375 207.082031 C 116.070312 207.214844 115.792969 207.351562 115.519531 207.492188 C 114.0625 208.25 112.605469 209.148438 111.707031 210.523438 C 110.804688 211.898438 110.613281 213.863281 111.65625 215.132812 C 112.316406 215.9375 113.242188 216.28125 114.265625 216.363281 C 115.574219 216.472656 117.046875 216.148438 118.339844 215.820312 C 121.210938 215.09375 124.140625 214.597656 127.089844 214.335938 C 128.632812 214.195312 130.175781 214.121094 131.722656 214.113281 C 132.863281 214.101562 134.003906 214.132812 135.144531 214.191406 C 136.84375 214.285156 138.53125 214.453125 140.214844 214.703125 C 144.03125 215.265625 147.84375 216.226562 151.691406 216 C 153.785156 215.878906 155.929688 215.328125 157.742188 214.300781 C 159.0625 214.964844 160.34375 215.75 161.734375 216.238281 C 163.101562 216.71875 164.546875 216.90625 165.984375 217.09375 C 167.386719 217.273438 168.789062 217.449219 170.191406 217.632812 C 172.574219 217.9375 174.964844 218.242188 177.367188 218.242188 C 179.449219 218.242188 181.527344 218.011719 183.554688 217.558594 C 184.984375 217.234375 186.464844 216.753906 187.441406 215.65625 C 187.734375 215.324219 187.960938 214.917969 188.101562 214.492188 C 191.777344 215.058594 195.640625 214.457031 198.953125 212.769531 C 200.429688 215.011719 202.246094 217.449219 204.902344 217.734375 C 205.585938 217.808594 206.300781 217.722656 206.898438 217.386719 C 208.257812 216.636719 208.691406 214.859375 208.609375 213.304688 C 208.605469 213.277344 208.605469 213.25 208.601562 213.21875 C 209.117188 213.316406 209.636719 213.265625 210.074219 212.992188 C 210.535156 212.699219 210.84375 212.199219 211.328125 211.957031 C 211.742188 211.75 212.230469 211.757812 212.695312 211.773438 C 213.78125 211.808594 214.871094 211.839844 215.960938 211.875 C 217.273438 211.914062 218.632812 211.949219 219.867188 211.492188 C 220.101562 211.40625 220.332031 211.292969 220.550781 211.167969 C 221.335938 213.070312 222.332031 214.902344 224.035156 215.976562 C 226.175781 217.328125 229.722656 216.589844 230.195312 214.097656 C 230.386719 213.085938 230.042969 212.058594 229.769531 211.0625 C 228.40625 206.09375 228.820312 200.832031 229.242188 195.695312 C 229.433594 193.339844 229.628906 190.988281 229.824219 188.632812 C 229.914062 187.589844 229.996094 186.550781 230.082031 185.507812 C 230.394531 181.71875 230.710938 177.914062 231.527344 174.203125 C 232.222656 171.058594 233.277344 167.957031 233.34375 164.738281 C 233.390625 162.503906 232.957031 160.273438 233.15625 158.050781 C 233.34375 155.914062 234.113281 153.863281 234.3125 151.730469 C 234.523438 149.4375 234.066406 147.152344 233.640625 144.871094 C 233.222656 142.640625 232.835938 140.414062 233.117188 138.179688 C 233.457031 135.53125 234.71875 133.085938 235.484375 130.527344 C 235.707031 129.777344 235.886719 129.019531 235.988281 128.238281 C 236.40625 125.03125 235.4375 121.816406 234.480469 118.726562 " fill-opacity="1" fill-rule="nonzero"/></g><g clip-path="url(#id3)"><path fill="rgb(94.898987%, 93.728638%, 94.509888%)" d="M 129.078125 203.230469 C 128.9375 203.480469 128.769531 203.722656 128.605469 203.945312 C 127.621094 205.28125 126.773438 206.71875 126.078125 208.230469 C 125.710938 209.03125 125.378906 209.890625 125.453125 210.765625 C 125.5625 212.027344 126.46875 213.046875 127.023438 214.183594 C 127.046875 214.234375 127.070312 214.28125 127.089844 214.335938 C 128.632812 214.195312 130.175781 214.121094 131.722656 214.113281 C 131.316406 212.90625 130.898438 211.695312 130.878906 210.4375 C 130.835938 207.839844 132.492188 205.355469 132.394531 202.816406 C 131.28125 202.921875 130.175781 203.0625 129.078125 203.230469 Z M 220.246094 206.519531 C 219.832031 203.410156 219.421875 200.296875 219.011719 197.1875 C 217.875 199.757812 215.761719 202.058594 214.878906 204.789062 C 214.796875 205.050781 214.722656 205.34375 214.84375 205.589844 C 214.996094 205.910156 215.394531 206.011719 215.746094 206.058594 C 217.242188 206.253906 218.800781 206.089844 220.246094 206.519531 Z M 235.484375 130.527344 C 234.71875 133.085938 233.457031 135.53125 233.117188 138.179688 C 232.835938 140.414062 233.222656 142.640625 233.640625 144.871094 C 233.203125 145.945312 232.539062 146.960938 231.785156 147.804688 C 229.835938 149.980469 227.277344 151.632812 225.753906 154.125 C 224.363281 156.394531 223.96875 159.253906 224.703125 161.816406 C 225.289062 163.875 226.539062 165.667969 227.355469 167.648438 C 228.4375 170.285156 228.722656 173.246094 228.167969 176.042969 C 227.648438 178.640625 226.421875 181.128906 226.507812 183.777344 C 226.574219 185.863281 227.980469 188.097656 229.824219 188.632812 C 229.628906 190.988281 229.433594 193.339844 229.242188 195.695312 C 228.820312 200.832031 228.40625 206.09375 229.769531 211.0625 C 230.042969 212.058594 230.386719 213.085938 230.195312 214.097656 C 229.722656 216.589844 226.175781 217.328125 224.035156 215.976562 C 222.332031 214.902344 221.335938 213.070312 220.550781 211.167969 C 220.332031 211.292969 220.101562 211.40625 219.867188 211.492188 C 218.632812 211.949219 217.273438 211.914062 215.960938 211.875 C 214.871094 211.839844 213.78125 211.808594 212.695312 211.773438 C 212.230469 211.757812 211.742188 211.75 211.328125 211.957031 C 210.84375 212.199219 210.535156 212.699219 210.074219 212.992188 C 209.636719 213.265625 209.117188 213.316406 208.601562 213.21875 C 208.605469 213.25 208.605469 213.277344 208.609375 213.304688 C 208.691406 214.859375 208.257812 216.636719 206.898438 217.386719 C 206.300781 217.722656 205.585938 217.808594 204.902344 217.734375 C 202.246094 217.449219 200.429688 215.011719 198.953125 212.769531 C 195.640625 214.457031 191.777344 215.058594 188.101562 214.492188 C 187.960938 214.917969 187.734375 215.324219 187.441406 215.65625 C 186.464844 216.753906 184.984375 217.234375 183.554688 217.558594 C 181.527344 218.011719 179.449219 218.242188 177.367188 218.242188 C 174.964844 218.242188 172.574219 217.9375 170.191406 217.632812 C 168.789062 217.449219 167.386719 217.273438 165.984375 217.09375 C 164.546875 216.90625 163.101562 216.71875 161.734375 216.238281 C 160.34375 215.75 159.0625 214.964844 157.742188 214.300781 C 155.929688 215.328125 153.785156 215.878906 151.691406 216 C 147.84375 216.226562 144.03125 215.265625 140.214844 214.703125 C 138.53125 214.453125 136.84375 214.285156 135.144531 214.191406 C 135.339844 213.375 135.371094 212.519531 135.226562 211.695312 C 135.785156 211.890625 136.335938 212.1875 136.890625 212.402344 C 137.859375 212.769531 139.171875 212.773438 139.679688 211.871094 C 139.941406 211.394531 139.898438 210.792969 140.183594 210.328125 C 140.890625 209.167969 142.742188 209.839844 143.96875 209.253906 C 145.089844 208.71875 145.40625 207.28125 145.488281 206.035156 C 145.5625 204.875 145.550781 203.714844 145.449219 202.558594 C 147.640625 202.644531 149.832031 202.777344 152.007812 202.933594 C 148.792969 194.789062 148.507812 185.5 151 177.082031 C 152.546875 178.738281 154.496094 180.050781 156.488281 181.167969 C 159.046875 182.601562 161.882812 183.8125 164.804688 183.585938 C 167.726562 183.359375 170.675781 181.28125 171.023438 178.367188 C 171.21875 176.773438 170.640625 175.195312 170.371094 173.613281 C 170.101562 172.027344 170.253906 170.164062 171.507812 169.167969 C 172.429688 168.433594 173.609375 168.394531 174.816406 168.507812 C 175.511719 168.570312 176.222656 168.6875 176.894531 168.746094 C 181.070312 169.125 185.367188 166.894531 187.472656 163.261719 C 188.335938 161.773438 189.566406 159.757812 191.164062 160.375 C 192.160156 160.761719 192.507812 162.015625 193.351562 162.667969 C 194.597656 163.625 196.546875 162.898438 197.390625 161.570312 C 198.234375 160.242188 198.25 158.5625 198.148438 156.988281 C 197.898438 153.039062 197.058594 149.128906 195.675781 145.417969 C 194.351562 141.867188 192.492188 138.226562 192.652344 134.523438 C 193.089844 134.199219 193.515625 133.867188 193.90625 133.515625 C 193.152344 132.144531 192.679688 130.601562 192.519531 129.046875 C 192.476562 128.671875 192.453125 128.296875 192.445312 127.921875 C 193.542969 127.53125 194.585938 127.277344 195.359375 128.039062 C 196.214844 128.886719 195.875 130.320312 196.21875 131.472656 C 196.738281 133.253906 198.902344 134.109375 200.726562 133.804688 C 202.550781 133.496094 204.101562 132.339844 205.574219 131.21875 C 207.082031 130.066406 208.683594 128.773438 209.554688 127.144531 C 212.875 127.675781 216.007812 129.382812 218.230469 131.921875 C 219.710938 133.609375 221.207031 135.847656 223.445312 135.757812 C 225.847656 135.660156 227.195312 132.796875 227.121094 130.382812 C 227.109375 130.015625 227.078125 129.632812 227.191406 129.277344 C 227.433594 128.53125 228.28125 128.121094 229.066406 128.136719 C 229.847656 128.152344 230.582031 128.5 231.285156 128.847656 C 232.632812 129.519531 234.027344 130.234375 235.484375 130.527344 " fill-opacity="1" fill-rule="nonzero"/></g><g clip-path="url(#id4)"><path fill="rgb(98.039246%, 76.078796%, 39.219666%)" d="M 116.34375 207.082031 C 116.429688 208.835938 116.867188 210.730469 116.351562 212.386719 C 115.984375 213.566406 115.15625 214.539062 114.582031 215.628906 C 114.460938 215.859375 114.351562 216.105469 114.265625 216.363281 C 115.574219 216.472656 117.046875 216.148438 118.339844 215.820312 C 121.210938 215.09375 124.140625 214.597656 127.089844 214.335938 C 127.070312 214.28125 127.046875 214.234375 127.023438 214.183594 C 126.46875 213.046875 125.5625 212.027344 125.453125 210.765625 C 125.378906 209.890625 125.710938 209.03125 126.078125 208.230469 C 126.773438 206.71875 127.621094 205.28125 128.605469 203.945312 C 128.769531 203.722656 128.9375 203.480469 129.078125 203.230469 C 124.667969 203.914062 120.382812 205.109375 116.34375 207.082031 Z M 132.394531 202.816406 C 132.492188 205.355469 130.835938 207.839844 130.878906 210.4375 C 130.898438 211.695312 131.316406 212.90625 131.722656 214.113281 C 132.863281 214.101562 134.003906 214.132812 135.144531 214.191406 C 135.339844 213.375 135.371094 212.519531 135.226562 211.695312 C 135.171875 211.394531 135.097656 211.097656 134.992188 210.804688 C 134.84375 210.378906 134.648438 209.964844 134.613281 209.515625 C 134.492188 207.964844 136.28125 206.953125 136.734375 205.460938 C 137.0625 204.398438 136.539062 203.160156 135.613281 202.574219 C 134.535156 202.628906 133.460938 202.710938 132.394531 202.816406 Z M 176.847656 149.910156 C 176.441406 150.125 176.03125 150.339844 175.625 150.550781 C 169.335938 153.878906 163.246094 157.8125 158.554688 163.171875 C 155.039062 167.1875 152.507812 171.976562 151 177.082031 C 152.546875 178.738281 154.496094 180.050781 156.488281 181.167969 C 159.046875 182.601562 161.882812 183.8125 164.804688 183.585938 C 167.726562 183.359375 170.675781 181.28125 171.023438 178.367188 C 171.21875 176.773438 170.640625 175.195312 170.371094 173.613281 C 170.101562 172.027344 170.253906 170.164062 171.507812 169.167969 C 172.429688 168.433594 173.609375 168.394531 174.816406 168.507812 C 174.695312 167.59375 175.074219 166.5 175.644531 165.71875 C 176.539062 164.484375 177.824219 163.382812 177.996094 161.863281 C 178.125 160.734375 177.597656 159.644531 177.199219 158.574219 C 176.191406 155.816406 176.078125 152.742188 176.847656 149.910156 Z M 209.882812 105.085938 C 209.441406 104.332031 208.929688 103.613281 208.398438 102.925781 C 206.941406 101.039062 205.28125 99.28125 204.191406 97.164062 C 203.78125 96.367188 203.445312 95.511719 202.84375 94.847656 C 202.246094 94.179688 201.289062 93.734375 200.449219 94.042969 C 199.859375 94.257812 199.449219 94.796875 199.128906 95.335938 C 197.476562 98.128906 197.367188 101.550781 197.421875 104.796875 C 197.46875 107.851562 197.621094 110.898438 197.871094 113.945312 C 196.632812 115.683594 195.472656 117.476562 194.535156 119.390625 C 193.238281 122.042969 192.375 124.980469 192.445312 127.921875 C 193.542969 127.53125 194.585938 127.277344 195.359375 128.039062 C 196.214844 128.886719 195.875 130.320312 196.21875 131.472656 C 196.738281 133.253906 198.902344 134.109375 200.726562 133.804688 C 202.550781 133.496094 204.101562 132.339844 205.574219 131.21875 C 207.082031 130.066406 208.683594 128.773438 209.554688 127.144531 C 209.851562 126.59375 210.0625 126.003906 210.160156 125.367188 C 210.402344 123.8125 209.902344 122.230469 209.992188 120.65625 C 210.152344 117.722656 212.269531 115.335938 213.664062 112.746094 C 214.828125 110.578125 215.5 108.148438 215.640625 105.691406 C 213.753906 105.238281 211.816406 105.027344 209.882812 105.085938 Z M 233.640625 144.871094 C 234.066406 147.152344 234.523438 149.4375 234.3125 151.730469 C 234.113281 153.863281 233.34375 155.914062 233.15625 158.050781 C 232.957031 160.273438 233.390625 162.503906 233.34375 164.738281 C 233.277344 167.957031 232.222656 171.058594 231.527344 174.203125 C 230.710938 177.914062 230.394531 181.71875 230.082031 185.507812 C 229.996094 186.550781 229.914062 187.589844 229.824219 188.632812 C 227.980469 188.097656 226.574219 185.863281 226.507812 183.777344 C 226.421875 181.128906 227.648438 178.640625 228.167969 176.042969 C 228.722656 173.246094 228.4375 170.285156 227.355469 167.648438 C 226.539062 165.667969 225.289062 163.875 224.703125 161.816406 C 223.96875 159.253906 224.363281 156.394531 225.753906 154.125 C 227.277344 151.632812 229.835938 149.980469 231.785156 147.804688 C 232.539062 146.960938 233.203125 145.945312 233.640625 144.871094 " fill-opacity="1" fill-rule="nonzero"/></g><g clip-path="url(#id5)"><path fill="rgb(59.999084%, 43.528748%, 21.958923%)" d="M 115.519531 207.492188 C 114.0625 208.25 112.605469 209.148438 111.707031 210.523438 C 110.804688 211.898438 110.613281 213.863281 111.65625 215.132812 C 112.316406 215.9375 113.242188 216.28125 114.265625 216.363281 C 114.351562 216.105469 114.460938 215.859375 114.582031 215.628906 C 115.15625 214.539062 115.984375 213.566406 116.351562 212.386719 C 116.867188 210.730469 116.429688 208.835938 116.34375 207.082031 C 116.070312 207.214844 115.792969 207.351562 115.519531 207.492188 Z M 135.613281 202.574219 C 136.539062 203.160156 137.0625 204.398438 136.734375 205.460938 C 136.28125 206.953125 134.492188 207.964844 134.613281 209.515625 C 134.648438 209.964844 134.84375 210.378906 134.992188 210.804688 C 135.097656 211.097656 135.171875 211.394531 135.226562 211.695312 C 135.785156 211.890625 136.335938 212.1875 136.890625 212.402344 C 137.859375 212.769531 139.171875 212.773438 139.679688 211.871094 C 139.941406 211.394531 139.898438 210.792969 140.183594 210.328125 C 140.890625 209.167969 142.742188 209.839844 143.96875 209.253906 C 145.089844 208.71875 145.40625 207.28125 145.488281 206.035156 C 145.5625 204.875 145.550781 203.714844 145.449219 202.558594 C 142.15625 202.425781 138.867188 202.394531 135.613281 202.574219 Z M 195.675781 145.417969 C 194.351562 141.867188 192.492188 138.226562 192.652344 134.523438 C 190.78125 135.882812 188.578125 137.074219 187.226562 138.90625 C 186.207031 140.292969 185.722656 142.003906 184.847656 143.488281 C 183.078125 146.480469 179.945312 148.269531 176.847656 149.910156 C 176.078125 152.742188 176.191406 155.816406 177.199219 158.574219 C 177.597656 159.644531 178.125 160.734375 177.996094 161.863281 C 177.824219 163.382812 176.539062 164.484375 175.644531 165.71875 C 175.074219 166.5 174.695312 167.59375 174.816406 168.507812 C 175.511719 168.570312 176.222656 168.6875 176.894531 168.746094 C 181.070312 169.125 185.367188 166.894531 187.472656 163.261719 C 188.335938 161.773438 189.566406 159.757812 191.164062 160.375 C 192.160156 160.761719 192.507812 162.015625 193.351562 162.667969 C 194.597656 163.625 196.546875 162.898438 197.390625 161.570312 C 198.234375 160.242188 198.25 158.5625 198.148438 156.988281 C 197.898438 153.039062 197.058594 149.128906 195.675781 145.417969 Z M 234.480469 118.726562 C 235.4375 121.816406 236.40625 125.03125 235.988281 128.238281 C 235.886719 129.019531 235.707031 129.777344 235.484375 130.527344 C 234.027344 130.234375 232.632812 129.519531 231.285156 128.847656 C 230.582031 128.5 229.847656 128.152344 229.066406 128.136719 C 228.28125 128.121094 227.433594 128.53125 227.191406 129.277344 C 227.078125 129.632812 227.109375 130.015625 227.121094 130.382812 C 227.195312 132.796875 225.847656 135.660156 223.445312 135.757812 C 221.207031 135.847656 219.710938 133.609375 218.230469 131.921875 C 216.007812 129.382812 212.875 127.675781 209.554688 127.144531 C 209.851562 126.59375 210.0625 126.003906 210.160156 125.367188 C 210.402344 123.8125 209.902344 122.230469 209.992188 120.65625 C 210.152344 117.722656 212.269531 115.335938 213.664062 112.746094 C 214.828125 110.578125 215.5 108.148438 215.640625 105.691406 C 217.921875 106.234375 220.125 107.136719 222.132812 108.351562 C 224.734375 105.484375 227.5 102.773438 230.421875 100.234375 C 230.824219 99.882812 231.253906 99.519531 231.777344 99.390625 C 232.632812 99.179688 233.550781 99.664062 234.070312 100.378906 C 234.59375 101.089844 234.792969 101.988281 234.90625 102.867188 C 235.441406 106.871094 234.496094 110.867188 233.246094 114.75 C 233.660156 116.074219 234.070312 117.402344 234.480469 118.726562 " fill-opacity="1" fill-rule="nonzero"/></g><path fill="rgb(96.469116%, 54.899597%, 39.219666%)" d="M 232.074219 112.546875 C 232.683594 110.78125 233.089844 108.949219 233.28125 107.089844 C 233.335938 106.546875 233.375 105.984375 233.222656 105.460938 C 233.066406 104.9375 232.683594 104.449219 232.15625 104.3125 C 231.269531 104.089844 230.476562 104.882812 229.90625 105.601562 C 228.890625 106.871094 227.875 108.136719 226.859375 109.402344 C 226.320312 110.070312 226.535156 111.0625 227.300781 111.453125 C 228.238281 111.925781 229.125 112.5 229.945312 113.160156 C 230.679688 113.746094 231.765625 113.441406 232.074219 112.546875 Z M 204.292969 107.792969 C 203.402344 108.34375 202.554688 108.96875 201.769531 109.660156 C 200.933594 110.394531 199.632812 109.859375 199.539062 108.75 C 199.367188 106.625 199.34375 104.488281 199.46875 102.359375 C 199.519531 101.550781 199.742188 100.554688 200.527344 100.367188 C 201.316406 100.175781 201.964844 100.972656 202.378906 101.675781 C 203.21875 103.101562 204.019531 104.558594 204.769531 106.039062 C 205.085938 106.660156 204.886719 107.425781 204.292969 107.792969 " fill-opacity="1" fill-rule="nonzero"/><path fill="rgb(98.039246%, 76.078796%, 39.219666%)" d="M 224.800781 117.078125 C 224.804688 118.191406 223.195312 117.9375 221.210938 117.945312 C 219.226562 117.953125 217.617188 118.21875 217.613281 117.109375 C 217.609375 115.996094 219.214844 115.085938 221.199219 115.078125 C 223.1875 115.070312 224.796875 115.96875 224.800781 117.078125 " fill-opacity="1" fill-rule="nonzero"/><path fill="rgb(59.999084%, 43.528748%, 21.958923%)" d="M 206.398438 117.09375 C 206.398438 118.207031 204.789062 117.945312 202.804688 117.945312 C 200.820312 117.945312 199.210938 118.207031 199.210938 117.09375 C 199.210938 115.980469 200.820312 115.078125 202.804688 115.078125 C 204.789062 115.078125 206.398438 115.980469 206.398438 117.09375 " fill-opacity="1" fill-rule="nonzero"/><g clip-path="url(#id6)"><path fill="rgb(24.308777%, 22.349548%, 22.749329%)" d="M 227.4375 138.007812 C 228.238281 137.503906 227.53125 136.535156 226.789062 136.996094 C 221.679688 140.179688 216.019531 143.53125 209.757812 142.625 C 206.722656 142.1875 203.90625 140.859375 201.394531 139.132812 C 200.039062 138.203125 198.785156 137.148438 197.554688 136.058594 C 197.535156 136.039062 197.511719 136.019531 197.492188 136 C 198.21875 135.355469 198.960938 134.730469 199.722656 134.132812 C 201.015625 133.113281 202.527344 132.253906 203.714844 131.121094 C 203.949219 130.894531 203.597656 130.65625 203.371094 130.738281 C 201.664062 131.347656 200.078125 132.597656 198.652344 133.703125 C 197.996094 134.210938 197.359375 134.742188 196.738281 135.292969 C 195.957031 134.542969 195.183594 133.769531 194.289062 133.183594 C 194.164062 133.101562 193.777344 133.191406 193.90625 133.402344 C 194.460938 134.328125 195.246094 135.152344 196.039062 135.929688 C 195.574219 136.367188 195.109375 136.808594 194.660156 137.261719 C 192.046875 139.910156 189.800781 142.882812 187.960938 146.125 C 187.660156 146.652344 188.636719 146.816406 188.898438 146.382812 C 190.792969 143.257812 193.035156 140.34375 195.621094 137.761719 C 196 137.382812 196.386719 137.015625 196.777344 136.648438 C 196.875 136.746094 196.972656 136.839844 197.070312 136.933594 C 198.308594 138.152344 199.644531 139.28125 201.066406 140.277344 C 203.570312 142.03125 206.472656 143.324219 209.507812 143.773438 C 216.09375 144.75 222.070312 141.402344 227.4375 138.007812 Z M 217.851562 131.953125 C 217.542969 132.019531 217.671875 132.429688 217.964844 132.386719 C 221.640625 131.8125 225.289062 132.894531 228.417969 134.824219 C 231.523438 136.738281 233.980469 139.398438 236.804688 141.667969 C 237.070312 141.878906 237.617188 141.542969 237.355469 141.226562 C 232.746094 135.679688 225.4375 130.25 217.851562 131.953125 Z M 241.183594 134.5625 C 235.109375 128.871094 226.125 127.203125 218.289062 129.78125 C 217.75 129.960938 218.136719 130.546875 218.609375 130.410156 C 226.105469 128.234375 234.347656 130.238281 240.335938 135.164062 C 240.746094 135.5 241.667969 135.011719 241.183594 134.5625 Z M 179.066406 138.121094 C 185.84375 132.652344 194.179688 129.738281 202.902344 130.324219 C 203.476562 130.363281 203.679688 129.589844 203.039062 129.53125 C 194.210938 128.722656 184.996094 131.605469 178.425781 137.632812 C 178.039062 137.988281 178.738281 138.386719 179.066406 138.121094 Z M 202.214844 213.566406 C 202.140625 213.527344 202.003906 213.5625 201.984375 213.65625 C 201.902344 214.039062 202.066406 214.46875 202.023438 214.871094 C 201.976562 215.28125 201.675781 215.6875 201.789062 216.085938 C 201.832031 216.242188 202.097656 216.277344 202.21875 216.226562 C 203.117188 215.84375 203.082031 213.984375 202.214844 213.566406 Z M 224.164062 212.882812 C 224.539062 213.976562 224.390625 214.972656 224.355469 216.09375 C 224.347656 216.429688 224.945312 216.394531 225.058594 216.160156 C 225.585938 215.058594 225.292969 213.726562 224.746094 212.6875 C 224.601562 212.410156 224.050781 212.546875 224.164062 212.882812 Z M 227.738281 211.351562 C 227.519531 211.148438 226.984375 211.359375 227.230469 211.65625 C 227.730469 212.253906 228.0625 212.921875 228.246094 213.679688 C 228.386719 214.261719 228.332031 214.910156 228.59375 215.453125 C 228.699219 215.675781 229.082031 215.65625 229.199219 215.449219 C 229.945312 214.105469 228.703125 212.238281 227.738281 211.351562 Z M 220.371094 206.269531 C 220.363281 206.148438 220.132812 206.132812 220.113281 206.25 C 219.878906 207.875 219.726562 210.164062 220.675781 211.589844 C 220.847656 211.847656 221.414062 211.808594 221.378906 211.425781 C 221.304688 210.558594 220.902344 209.726562 220.71875 208.871094 C 220.539062 208.015625 220.425781 207.140625 220.371094 206.269531 Z M 205.40625 214.058594 C 205.960938 215.054688 205.976562 216.054688 205.882812 217.164062 C 205.851562 217.503906 206.414062 217.609375 206.539062 217.304688 C 207.027344 216.144531 206.742188 214.863281 206.078125 213.824219 C 205.886719 213.527344 205.207031 213.703125 205.40625 214.058594 Z M 181.957031 213.78125 C 181.570312 213.703125 181.300781 214.238281 181.726562 214.394531 C 183.007812 214.855469 183.707031 215.925781 184.261719 217.105469 C 184.460938 217.527344 185.261719 217.308594 185.210938 216.839844 C 185.035156 215.183594 183.476562 214.078125 181.957031 213.78125 Z M 217.914062 126.964844 C 218.652344 125.835938 219.332031 124.738281 220.535156 124.050781 C 221.976562 123.230469 223.460938 123.394531 225.011719 123.6875 C 225.328125 123.746094 225.71875 123.390625 225.355469 123.152344 C 222.441406 121.238281 217.972656 123.617188 217.289062 126.871094 C 217.210938 127.242188 217.78125 127.167969 217.914062 126.964844 Z M 203.886719 133.363281 C 203.652344 134.160156 204.554688 134.75 205.214844 135.007812 C 206.066406 135.335938 206.996094 135.277344 207.84375 134.960938 C 208.894531 134.5625 209.730469 133.804688 210.355469 132.882812 C 210.957031 133.910156 211.890625 134.746094 213.007812 135.105469 C 214.398438 135.554688 216.363281 135.300781 217.03125 133.828125 C 217.113281 133.648438 216.875 133.515625 216.726562 133.617188 C 215.429688 134.488281 213.949219 134.515625 212.703125 133.519531 C 212.003906 132.960938 211.550781 132.230469 211.105469 131.488281 C 211.144531 131.394531 211.179688 131.300781 211.21875 131.207031 L 212.0625 130.796875 C 214.027344 129.84375 213.351562 126.882812 211.171875 126.882812 L 209.25 126.882812 C 207.070312 126.882812 206.394531 129.84375 208.355469 130.796875 L 209.316406 131.261719 C 209.460938 131.332031 209.613281 131.382812 209.769531 131.417969 C 209.347656 132.203125 208.875 132.949219 208.167969 133.5 C 207.382812 134.113281 206.46875 134.375 205.507812 134.0625 C 204.964844 133.886719 204.597656 133.46875 204.058594 133.296875 C 204 133.277344 203.90625 133.289062 203.886719 133.363281 Z M 201.285156 128.6875 C 202.453125 128.6875 203.402344 127.011719 203.402344 124.945312 C 203.402344 124.078125 203.234375 123.285156 202.957031 122.652344 C 203.492188 122.980469 203.875 123.445312 204.335938 123.882812 C 204.523438 124.058594 205.027344 124 204.976562 123.664062 C 204.660156 121.472656 201.355469 120.394531 199.6875 121.683594 C 199.394531 121.914062 199.527344 122.203125 199.792969 122.292969 C 199.410156 122.96875 199.171875 123.90625 199.171875 124.945312 C 199.171875 127.011719 200.117188 128.6875 201.285156 128.6875 Z M 179.71875 206.921875 C 175.503906 205.59375 167.011719 205.746094 166.390625 199.921875 C 166.367188 199.683594 165.96875 199.722656 165.953125 199.953125 C 165.613281 205.105469 172.152344 206.367188 175.902344 207.257812 C 178.265625 207.816406 180.675781 208.457031 182.660156 209.929688 C 184.753906 211.484375 186.050781 213.78125 186.945312 216.191406 C 187.15625 216.761719 188.160156 216.609375 188.09375 215.96875 C 187.640625 211.410156 183.855469 208.222656 179.71875 206.921875 Z M 214.40625 205.617188 C 213.566406 206.832031 212.945312 208.175781 212.054688 209.363281 C 211.117188 210.617188 210.003906 211.699219 208.8125 212.707031 C 208.761719 209.90625 208.472656 207.101562 208.398438 204.304688 C 208.3125 200.945312 208.292969 197.589844 208.347656 194.230469 C 208.394531 191.34375 208.390625 188.417969 208.640625 185.535156 C 208.734375 184.445312 208.894531 183.339844 209.222656 182.292969 C 209.652344 180.917969 210.476562 179.949219 211.246094 178.777344 C 211.332031 178.644531 211.125 178.554688 211.027344 178.617188 C 209.117188 179.789062 208.199219 182.265625 207.847656 184.378906 C 207.355469 187.335938 207.410156 190.429688 207.34375 193.417969 C 207.277344 196.597656 207.269531 199.777344 207.328125 202.957031 C 207.386719 206.414062 207.308594 209.972656 207.710938 213.410156 C 207.757812 213.828125 208.425781 213.851562 208.703125 213.589844 C 208.75 213.582031 208.796875 213.570312 208.835938 213.546875 C 211.476562 211.953125 214.625 208.96875 215.152344 205.765625 C 215.226562 205.332031 214.585938 205.359375 214.40625 205.617188 Z M 219.988281 183.808594 C 221.347656 180.816406 224.726562 178.84375 224.960938 175.351562 C 224.976562 175.109375 224.542969 175.144531 224.484375 175.339844 C 223.382812 179.070312 219.515625 181.007812 218.335938 184.71875 C 217.710938 186.691406 217.699219 188.785156 217.765625 190.835938 C 217.804688 191.976562 217.859375 193.121094 217.90625 194.261719 C 217.957031 195.476562 217.882812 196.769531 218.152344 197.957031 C 218.28125 198.53125 219.277344 198.398438 219.34375 197.851562 C 219.636719 195.441406 219.15625 192.828125 219.078125 190.398438 C 219.003906 188.179688 219.054688 185.863281 219.988281 183.808594 Z M 193.957031 188.292969 C 193.625 184.316406 193.660156 180.492188 191.894531 176.824219 C 190.929688 174.816406 189.824219 172.929688 189.1875 170.78125 C 188.582031 168.75 188.3125 166.648438 188.296875 164.527344 C 188.296875 164.34375 187.933594 164.335938 187.910156 164.511719 C 187.414062 168.386719 188.25 172.039062 189.945312 175.527344 C 190.921875 177.539062 191.832031 179.464844 192.191406 181.695312 C 192.527344 183.800781 192.539062 185.949219 192.699219 188.070312 C 193.347656 196.507812 195.277344 205.140625 198.71875 212.886719 C 198.960938 213.429688 200.1875 213.050781 199.957031 212.46875 C 196.851562 204.648438 194.65625 196.714844 193.957031 188.292969 Z M 156.597656 211.769531 C 156.753906 212.164062 156.144531 212.359375 155.902344 212.109375 C 153.492188 209.636719 152.121094 205.140625 152.398438 201.742188 C 152.425781 201.371094 153.058594 201.40625 153.136719 201.730469 C 153.570312 203.472656 153.871094 205.234375 154.449219 206.9375 C 155.023438 208.625 155.9375 210.128906 156.597656 211.769531 " fill-opacity="1" fill-rule="nonzero"/></g><g fill="rgb(0%, 29.019165%, 67.83905%)" fill-opacity="1"><g transform="translate(26.585599, 265.46153)"><g><path d="M 22.359375 -7.921875 L 33.515625 -33.421875 L 38.671875 -33.421875 L 40.53125 0 L 35.390625 0 L 34.03125 -28.71875 L 33.828125 -28.71875 L 21.109375 0 L 20.390625 0 L 7.921875 -27.5625 L 7.71875 -27.5625 L 6.359375 0 L 4.140625 0 L 6 -33.421875 L 10.703125 -33.421875 Z M 22.359375 -7.921875 "/></g></g></g><g fill="rgb(0%, 29.019165%, 67.83905%)" fill-opacity="1"><g transform="translate(71.455854, 265.46153)"><g><path d="M 4.546875 0 L 4.546875 -33.421875 L 24.78125 -33.421875 L 24.28125 -30.03125 L 14.890625 -31.609375 C 13.242188 -31.609375 11.425781 -31.320312 9.4375 -30.75 L 9.4375 -18.484375 L 20.640625 -18.484375 L 20.640625 -16.5625 L 9.4375 -16.5625 L 9.4375 -1.8125 L 25.09375 -3.375 L 24.578125 0 Z M 4.546875 0 "/></g></g></g><g fill="rgb(0%, 29.019165%, 67.83905%)" fill-opacity="1"><g transform="translate(99.821533, 265.46153)"><g><path d="M 19.734375 -34.03125 C 24.109375 -34.03125 27.726562 -32.585938 30.59375 -29.703125 C 33.457031 -26.828125 34.890625 -22.832031 34.890625 -17.71875 C 34.890625 -14.414062 34.316406 -11.523438 33.171875 -9.046875 C 32.023438 -6.578125 30.523438 -4.671875 28.671875 -3.328125 C 25.066406 -0.703125 21.09375 0.609375 16.75 0.609375 C 12.414062 0.609375 8.828125 -0.84375 5.984375 -3.75 C 3.140625 -6.664062 1.71875 -10.679688 1.71875 -15.796875 C 1.71875 -18.460938 2.09375 -20.863281 2.84375 -23 C 3.601562 -25.132812 4.597656 -26.875 5.828125 -28.21875 C 7.054688 -29.5625 8.476562 -30.691406 10.09375 -31.609375 C 13.0625 -33.222656 16.273438 -34.03125 19.734375 -34.03125 Z M 9.59375 -5.75 C 10.46875 -4.269531 11.644531 -3.117188 13.125 -2.296875 C 14.601562 -1.472656 16.3125 -1.0625 18.25 -1.0625 C 20.1875 -1.0625 21.910156 -1.546875 23.421875 -2.515625 C 24.941406 -3.492188 26.117188 -4.773438 26.953125 -6.359375 C 28.671875 -9.523438 29.53125 -12.925781 29.53125 -16.5625 C 29.53125 -21.03125 28.640625 -24.628906 26.859375 -27.359375 C 24.867188 -30.421875 21.585938 -31.953125 17.015625 -31.953125 C 13.742188 -30.804688 11.265625 -28.835938 9.578125 -26.046875 C 7.898438 -23.253906 7.0625 -20.09375 7.0625 -16.5625 C 7.0625 -12.25 7.90625 -8.644531 9.59375 -5.75 Z M 9.59375 -5.75 "/></g></g></g><g fill="rgb(0%, 29.019165%, 67.83905%)" fill-opacity="1"><g transform="translate(136.414266, 265.46153)"><g><path d="M 40.1875 -33.421875 L 42.703125 -33.421875 L 30.1875 0.75 L 29.375 0.75 L 21.65625 -19.9375 L 14.078125 0.75 L 13.28125 0.75 L 0.5 -33.421875 L 6 -33.421875 L 14.890625 -6.0625 L 20.546875 -22.921875 L 16.609375 -33.421875 L 22.109375 -33.421875 L 31 -6.0625 Z M 40.1875 -33.421875 "/></g></g></g><g fill="rgb(0%, 29.019165%, 67.83905%)" fill-opacity="1"><g transform="translate(179.618925, 265.46153)"><g><path d="M 9.4375 -18.484375 L 20.140625 -18.484375 L 20.140625 -16.5625 L 9.4375 -16.5625 L 9.4375 0 L 4.546875 0 L 4.546875 -33.421875 L 24.28125 -33.421875 L 24.28125 -30.03125 L 14.9375 -31.609375 C 13.257812 -31.609375 11.425781 -31.320312 9.4375 -30.75 Z M 9.4375 -18.484375 "/></g></g></g><g fill="rgb(0%, 29.019165%, 67.83905%)" fill-opacity="1"><g transform="translate(203.896306, 265.46153)"><g><path d="M 9.1875 -33.421875 L 9.1875 0 L 4.546875 0 L 4.546875 -33.421875 Z M 9.1875 -33.421875 "/></g></g></g><g fill="rgb(0%, 29.019165%, 67.83905%)" fill-opacity="1"><g transform="translate(217.624889, 265.46153)"><g><path d="M 29.9375 0.5625 L 29.078125 0.5625 L 6.96875 -27.109375 L 6.765625 -27.109375 L 6.765625 0 L 4.546875 0 L 4.546875 -33.421875 L 8.28125 -33.421875 L 27.515625 -9.140625 L 27.71875 -9.140625 L 27.71875 -33.421875 L 29.9375 -33.421875 Z M 29.9375 0.5625 "/></g></g></g><g fill="rgb(0%, 29.019165%, 67.83905%)" fill-opacity="1"><g transform="translate(252.097776, 265.46153)"><g><path d="M 4.546875 0 L 4.546875 -33.421875 L 14.078125 -33.421875 C 18.054688 -33.421875 21.644531 -32.578125 24.84375 -30.890625 C 26.550781 -30.015625 28.046875 -28.921875 29.328125 -27.609375 C 30.609375 -26.296875 31.632812 -24.617188 32.40625 -22.578125 C 33.1875 -20.546875 33.578125 -18.285156 33.578125 -15.796875 C 33.578125 -12.234375 32.679688 -9.222656 30.890625 -6.765625 C 27.628906 -2.253906 22.347656 0 15.046875 0 Z M 14.03125 -1.71875 C 18.3125 -1.71875 21.742188 -2.976562 24.328125 -5.5 C 26.921875 -8.03125 28.21875 -11.734375 28.21875 -16.609375 C 28.21875 -20.378906 27.191406 -23.601562 25.140625 -26.28125 C 23.085938 -28.957031 20.429688 -30.734375 17.171875 -31.609375 C 14.234375 -31.609375 11.671875 -31.253906 9.484375 -30.546875 L 9.484375 -2.171875 C 10.566406 -1.867188 12.082031 -1.71875 14.03125 -1.71875 Z M 14.03125 -1.71875 "/></g></g></g><g fill="rgb(0%, 29.019165%, 67.83905%)" fill-opacity="1"><g transform="translate(287.832477, 265.46153)"><g><path d="M 4.546875 0 L 4.546875 -33.421875 L 24.78125 -33.421875 L 24.28125 -30.03125 L 14.890625 -31.609375 C 13.242188 -31.609375 11.425781 -31.320312 9.4375 -30.75 L 9.4375 -18.484375 L 20.640625 -18.484375 L 20.640625 -16.5625 L 9.4375 -16.5625 L 9.4375 -1.8125 L 25.09375 -3.375 L 24.578125 0 Z M 4.546875 0 "/></g></g></g><g fill="rgb(0%, 29.019165%, 67.83905%)" fill-opacity="1"><g transform="translate(316.198144, 265.46153)"><g><path d="M 9.484375 -15.953125 L 9.484375 0 L 4.546875 0 L 4.546875 -33.421875 L 15.453125 -33.421875 C 18.847656 -33.421875 21.628906 -32.660156 23.796875 -31.140625 C 25.972656 -29.628906 27.0625 -27.632812 27.0625 -25.15625 C 27.0625 -22.6875 26.191406 -20.738281 24.453125 -19.3125 C 22.722656 -17.882812 20.378906 -16.898438 17.421875 -16.359375 L 30.953125 0 L 25.09375 0.703125 L 13.375 -15.953125 Z M 9.484375 -17.46875 L 12.71875 -17.46875 C 18.78125 -17.46875 21.8125 -19.859375 21.8125 -24.640625 C 21.8125 -25.441406 21.609375 -26.347656 21.203125 -27.359375 C 20.429688 -29.484375 18.78125 -30.878906 16.25 -31.546875 C 13.96875 -31.546875 11.710938 -31.257812 9.484375 -30.6875 Z M 9.484375 -17.46875 "/></g></g></g></svg>