<svg xmlns="http://www.w3.org/2000/svg" xmlns:xlink="http://www.w3.org/1999/xlink" width="250" zoomAndPan="magnify" viewBox="0 0 187.5 112.499997" height="150" preserveAspectRatio="xMidYMid meet" version="1.0"><defs><g><g id="id1"/><g id="id2"/><g id="id3"/><g id="id4"/><g id="id5"/><g id="id6"/><g id="id7"/><g id="id8"/><g id="id9"/><g id="id10"/><g id="id11"/></g><clipPath id="id12"><path d="M 80.507812 28.042969 L 107.460938 28.042969 L 107.460938 67.722656 L 80.507812 67.722656 Z M 80.507812 28.042969 " clip-rule="nonzero"/></clipPath></defs><g clip-path="url(#id12)"><path fill="rgb(1.959229%, 3.919983%, 18.818665%)" d="M 92.367188 67.703125 C 91.335938 67.648438 90.316406 67.496094 89.3125 67.25 C 87.683594 66.847656 85.910156 66.039062 84.671875 65.148438 C 83.09375 64.007812 81.875 62.445312 81.144531 60.652344 C 80.871094 59.941406 80.683594 59.195312 80.59375 58.445312 C 80.558594 58.121094 80.515625 57.390625 80.515625 57.15625 C 80.515625 56.539062 80.632812 55.9375 80.855469 55.363281 C 81.042969 54.84375 81.207031 54.5 81.359375 54.296875 C 81.535156 54.078125 81.726562 53.863281 81.929688 53.671875 C 82.46875 53.152344 82.980469 52.851562 83.535156 52.722656 C 83.6875 52.6875 83.847656 52.675781 84.007812 52.679688 C 84.179688 52.675781 84.351562 52.6875 84.527344 52.714844 C 85.363281 52.824219 86.113281 53.296875 86.5625 54.003906 C 86.605469 54.0625 86.644531 54.117188 86.644531 54.125 C 86.644531 53.878906 86.636719 53.625 86.609375 53.378906 C 86.574219 52.914062 86.484375 52.449219 86.339844 52.003906 C 86.070312 51.257812 85.738281 50.527344 85.355469 49.828125 C 85.09375 49.328125 84.5 48.125 84.359375 47.816406 C 84.082031 47.207031 83.855469 46.578125 83.679688 45.925781 C 83.605469 45.632812 83.472656 44.953125 83.425781 44.640625 C 83.308594 43.902344 83.25 43.160156 83.246094 42.414062 C 83.230469 41.710938 83.265625 41.011719 83.335938 40.316406 C 83.480469 38.910156 83.917969 37.195312 84.347656 36.296875 C 84.457031 36.066406 84.589844 35.839844 84.734375 35.625 L 84.808594 35.515625 L 84.78125 35.339844 C 84.65625 34.605469 84.691406 33.984375 84.898438 33.066406 C 85.046875 32.382812 85.28125 31.71875 85.585938 31.089844 C 85.898438 30.445312 86.300781 29.851562 86.761719 29.304688 C 86.847656 29.207031 87.144531 28.890625 87.429688 28.613281 C 87.996094 28.066406 88.023438 28.042969 88.164062 28.042969 C 88.210938 28.042969 88.265625 28.058594 88.308594 28.085938 C 88.433594 28.160156 88.472656 28.25 88.558594 28.722656 C 88.867188 30.355469 89.070312 31.300781 89.1875 31.726562 L 89.207031 31.808594 L 89.636719 31.792969 L 89.679688 31.683594 C 89.878906 31.246094 90.128906 30.828125 90.421875 30.4375 C 90.753906 30.007812 91.132812 29.609375 91.554688 29.261719 C 91.804688 29.0625 91.875 29.03125 91.976562 29.03125 C 92.164062 29.042969 92.304688 29.207031 92.28125 29.386719 C 92.277344 29.417969 92.269531 29.5 92.261719 29.5625 C 92.253906 29.625 92.234375 29.78125 92.214844 29.90625 C 92.125 30.425781 92.054688 30.945312 92.027344 31.472656 L 92 32.0625 C 91.984375 32.320312 91.972656 32.527344 91.957031 32.601562 C 91.957031 32.617188 92.007812 32.664062 92.097656 32.726562 C 92.496094 33.03125 92.859375 33.390625 93.164062 33.800781 C 93.355469 34.066406 93.507812 34.355469 93.632812 34.65625 C 93.660156 34.722656 93.714844 34.914062 93.757812 35.078125 C 93.800781 35.238281 93.839844 35.386719 93.855469 35.414062 C 93.882812 35.457031 93.917969 35.484375 93.953125 35.511719 C 94.125 35.652344 94.277344 35.824219 94.382812 36.023438 C 94.472656 36.214844 94.492188 36.425781 94.449219 36.625 C 94.4375 36.679688 94.402344 36.8125 94.375 36.914062 C 94.347656 37.015625 94.292969 37.195312 94.265625 37.316406 C 94.171875 37.671875 94.089844 37.863281 93.953125 38 L 93.882812 38.070312 L 93.898438 38.171875 C 93.917969 38.296875 93.917969 38.425781 93.890625 38.550781 C 93.847656 38.769531 93.773438 38.863281 93.507812 39.0625 C 93.355469 39.179688 93.183594 39.28125 93.011719 39.363281 L 92.890625 39.417969 L 92.960938 39.5 C 93.066406 39.628906 93.203125 39.726562 93.355469 39.78125 C 93.453125 39.820312 93.550781 39.855469 93.648438 39.875 C 93.875 39.929688 94.722656 40.035156 95.515625 40.101562 C 96.292969 40.164062 97.070312 40.273438 97.832031 40.4375 C 99 40.683594 100.40625 41.226562 101.375 41.800781 C 102.90625 42.703125 104.210938 43.957031 105.277344 45.542969 C 106.023438 46.652344 106.488281 47.597656 106.839844 48.730469 C 107.195312 49.855469 107.394531 51.019531 107.421875 52.195312 C 107.449219 52.722656 107.449219 53.25 107.414062 53.769531 C 107.375 54.589844 107.269531 55.40625 107.109375 56.210938 C 107.007812 56.773438 106.855469 57.320312 106.648438 57.855469 C 106.40625 58.585938 106.101562 59.292969 105.753906 59.984375 C 105.332031 60.824219 104.839844 61.632812 104.285156 62.40625 C 103.988281 62.808594 103.65625 63.191406 103.289062 63.542969 C 103.058594 63.769531 102.375 64.351562 101.984375 64.65625 C 100.898438 65.492188 99.695312 66.171875 98.40625 66.667969 C 96.957031 67.246094 95.425781 67.59375 93.867188 67.6875 C 93.605469 67.722656 92.664062 67.722656 92.367188 67.703125 Z M 93.570312 67.15625 C 95.003906 67.101562 96.3125 66.847656 97.796875 66.3125 C 99.214844 65.820312 100.53125 65.09375 101.710938 64.179688 C 102.167969 63.816406 102.609375 63.425781 103.023438 63.015625 C 103.328125 62.726562 103.601562 62.417969 103.847656 62.085938 C 104.578125 61.070312 105.191406 59.984375 105.691406 58.839844 C 105.898438 58.355469 105.996094 58.09375 106.265625 57.308594 C 106.433594 56.828125 106.460938 56.738281 106.515625 56.402344 C 106.542969 56.238281 106.585938 56.007812 106.605469 55.878906 C 106.773438 54.953125 106.839844 54.351562 106.902344 53.1875 C 106.980469 51.65625 106.765625 50.113281 106.273438 48.65625 C 105.980469 47.792969 105.582031 46.964844 105.082031 46.199219 C 103.9375 44.386719 102.457031 42.976562 100.773438 42.082031 C 99.851562 41.609375 98.875 41.253906 97.863281 41.011719 C 97.046875 40.835938 96.222656 40.71875 95.394531 40.65625 C 94.691406 40.59375 93.847656 40.492188 93.585938 40.4375 C 93.335938 40.375 93.101562 40.28125 92.878906 40.15625 C 92.746094 40.066406 92.636719 39.964844 92.539062 39.84375 C 92.457031 39.746094 92.449219 39.734375 92.402344 39.734375 C 92.277344 39.734375 92.171875 39.636719 92.164062 39.515625 C 92.164062 39.507812 92.164062 39.507812 92.164062 39.5 C 92.164062 39.316406 92.316406 39.179688 92.808594 38.925781 C 92.949219 38.855469 93.078125 38.773438 93.210938 38.6875 C 93.398438 38.550781 93.40625 38.527344 93.382812 38.324219 C 93.378906 38.253906 93.371094 38.136719 93.371094 38.078125 C 93.371094 37.933594 93.390625 37.886719 93.53125 37.742188 C 93.648438 37.617188 93.6875 37.523438 93.773438 37.195312 C 93.800781 37.070312 93.855469 36.894531 93.882812 36.796875 C 93.917969 36.703125 93.9375 36.597656 93.945312 36.496094 C 93.960938 36.425781 93.945312 36.351562 93.910156 36.289062 C 93.847656 36.175781 93.765625 36.078125 93.660156 35.988281 C 93.40625 35.777344 93.371094 35.707031 93.253906 35.277344 C 93.21875 35.132812 93.167969 34.960938 93.148438 34.90625 C 93.039062 34.613281 92.878906 34.339844 92.691406 34.09375 C 92.449219 33.785156 92.171875 33.503906 91.867188 33.257812 C 91.488281 32.957031 91.0625 32.710938 90.605469 32.535156 C 90.414062 32.457031 90.210938 32.410156 90.011719 32.390625 C 89.816406 32.355469 89.617188 32.347656 89.414062 32.355469 C 89.285156 32.355469 89.144531 32.355469 89.015625 32.339844 C 88.875 32.308594 88.792969 32.210938 88.722656 32.035156 C 88.625 31.773438 88.417969 30.808594 88.140625 29.363281 C 88.09375 29.105469 88.042969 28.863281 88.039062 28.84375 L 88.03125 28.796875 L 87.71875 29.070312 C 86.597656 30.136719 85.8125 31.507812 85.460938 33.003906 C 85.351562 33.4375 85.273438 33.882812 85.246094 34.328125 C 85.234375 34.53125 85.234375 34.738281 85.246094 34.941406 C 85.289062 34.902344 85.328125 34.859375 85.355469 34.8125 C 85.765625 34.257812 86.132812 33.839844 86.882812 33.082031 C 87.304688 32.65625 87.53125 32.410156 87.628906 32.285156 C 87.691406 32.210938 87.691406 32.175781 87.621094 31.84375 C 87.59375 31.707031 87.558594 31.5 87.546875 31.382812 L 87.519531 31.171875 L 87.476562 31.246094 C 87.457031 31.289062 87.351562 31.480469 87.253906 31.671875 C 87.019531 32.128906 86.957031 32.203125 86.804688 32.203125 C 86.632812 32.203125 86.542969 32.039062 86.605469 31.84375 C 86.632812 31.761719 86.976562 31.070312 87.128906 30.800781 C 87.332031 30.445312 87.484375 30.253906 87.585938 30.199219 C 87.703125 30.152344 87.835938 30.179688 87.925781 30.269531 C 87.980469 30.34375 87.996094 30.410156 88.015625 30.753906 C 88.039062 31.097656 88.078125 31.429688 88.15625 31.765625 C 88.246094 32.203125 88.238281 32.347656 88.101562 32.539062 C 87.855469 32.835938 87.601562 33.113281 87.332031 33.375 C 86.394531 34.320312 85.988281 34.804688 85.503906 35.53125 C 85.335938 35.769531 85.191406 36.015625 85.050781 36.269531 L 84.769531 36.796875 C 84.664062 36.976562 84.574219 37.167969 84.519531 37.359375 C 84.199219 38.371094 83.980469 39.410156 83.867188 40.464844 C 83.8125 41.027344 83.785156 41.59375 83.792969 42.164062 C 83.777344 42.847656 83.820312 43.53125 83.910156 44.207031 C 83.957031 44.613281 84 44.839844 84.089844 45.28125 C 84.207031 45.886719 84.386719 46.480469 84.625 47.046875 C 84.804688 47.5 84.90625 47.726562 85.199219 48.316406 C 85.351562 48.617188 85.496094 48.917969 85.523438 48.972656 C 85.550781 49.035156 85.683594 49.285156 85.820312 49.539062 C 86.085938 50.039062 86.269531 50.421875 86.480469 50.882812 C 86.625 51.1875 86.75 51.503906 86.851562 51.824219 C 87.011719 52.304688 87.117188 52.796875 87.152344 53.296875 C 87.179688 53.5625 87.1875 53.660156 87.214844 55.144531 C 87.21875 55.542969 87.199219 55.9375 87.164062 56.335938 C 87.152344 56.601562 87.101562 56.863281 87.027344 57.121094 C 86.914062 57.457031 86.8125 57.546875 86.375 57.726562 C 86.1875 57.800781 86.085938 57.863281 86.042969 57.9375 C 85.980469 58.066406 85.9375 58.195312 85.90625 58.335938 C 85.898438 58.402344 85.898438 58.402344 85.953125 58.449219 C 86.035156 58.519531 86.125 58.566406 86.230469 58.601562 C 86.421875 58.648438 86.625 58.683594 86.824219 58.710938 C 87.289062 58.765625 88.425781 58.746094 88.625 58.675781 C 88.804688 58.585938 88.964844 58.457031 89.097656 58.300781 C 89.179688 58.167969 89.269531 57.847656 89.339844 57.429688 C 89.4375 56.78125 89.636719 56.144531 89.929688 55.546875 C 90.023438 55.335938 90.148438 55.136719 90.296875 54.945312 C 90.601562 54.542969 90.71875 54.332031 90.773438 54.058594 C 90.785156 54.007812 90.808594 53.859375 90.820312 53.734375 L 90.890625 53.167969 C 91.070312 51.6875 91.363281 50.628906 91.882812 49.5 C 92.28125 48.664062 92.78125 47.875 93.363281 47.152344 C 93.648438 46.796875 93.875 46.535156 93.953125 46.496094 C 94.050781 46.417969 94.195312 46.441406 94.265625 46.535156 C 94.320312 46.609375 94.324219 46.714844 94.269531 46.789062 C 94.222656 46.871094 94.160156 46.945312 94.105469 47.019531 C 93.902344 47.269531 93.425781 47.9375 93.191406 48.289062 C 92.941406 48.648438 92.710938 49.035156 92.511719 49.421875 C 92.101562 50.246094 91.796875 51.113281 91.617188 52.011719 C 91.542969 52.394531 91.410156 53.242188 91.425781 53.261719 C 91.425781 53.261719 91.488281 53.1875 91.5625 53.085938 C 92.039062 52.449219 92.863281 51.628906 93.714844 50.929688 C 94.152344 50.582031 94.617188 50.25 95.09375 49.957031 C 95.449219 49.753906 95.820312 49.558594 96.195312 49.390625 C 96.277344 49.347656 96.375 49.355469 96.445312 49.410156 C 96.515625 49.457031 96.550781 49.539062 96.535156 49.621094 C 96.523438 49.71875 96.472656 49.765625 96.328125 49.839844 C 96.140625 49.9375 95.269531 50.457031 94.992188 50.640625 C 94.320312 51.085938 93.695312 51.59375 93.121094 52.152344 C 92.34375 52.898438 91.859375 53.488281 91.457031 54.179688 C 91.402344 54.269531 91.292969 54.445312 91.203125 54.570312 C 91.113281 54.691406 90.980469 54.886719 90.910156 54.988281 C 90.84375 55.089844 90.738281 55.246094 90.675781 55.335938 C 90.542969 55.527344 90.425781 55.726562 90.335938 55.9375 C 90.109375 56.4375 89.957031 56.972656 89.871094 57.511719 C 89.832031 57.773438 89.777344 58.027344 89.691406 58.277344 C 89.671875 58.328125 89.664062 58.375 89.664062 58.421875 C 89.6875 58.476562 89.929688 58.691406 90.144531 58.839844 C 90.449219 59.046875 90.773438 59.230469 91.105469 59.382812 C 91.515625 59.601562 91.957031 59.757812 92.414062 59.851562 C 92.898438 59.960938 93.398438 60.023438 93.890625 60.023438 C 94.929688 60.066406 96.015625 59.960938 96.804688 59.742188 C 97.527344 59.550781 98.210938 59.257812 98.847656 58.867188 C 99.609375 58.410156 100.289062 57.828125 100.863281 57.15625 C 101.238281 56.707031 101.570312 56.210938 101.847656 55.699219 C 102 55.410156 102.472656 54.453125 102.527344 54.324219 C 102.601562 54.132812 102.707031 54.058594 102.839844 54.089844 C 102.898438 54.105469 102.957031 54.144531 102.984375 54.199219 C 103.046875 54.308594 103.019531 54.40625 102.753906 55.015625 C 102.375 55.933594 101.855469 56.789062 101.21875 57.546875 C 100.90625 57.890625 100.582031 58.21875 100.226562 58.519531 C 99.734375 58.9375 99.195312 59.292969 98.621094 59.59375 C 97.898438 59.96875 97.125 60.238281 96.320312 60.386719 C 95.515625 60.523438 94.707031 60.578125 93.890625 60.542969 C 93.300781 60.539062 92.71875 60.460938 92.152344 60.320312 C 91.707031 60.214844 91.277344 60.050781 90.871094 59.847656 C 90.488281 59.667969 90.121094 59.457031 89.777344 59.21875 C 89.71875 59.175781 89.625 59.113281 89.554688 59.074219 C 89.484375 59.03125 89.414062 58.984375 89.359375 58.9375 L 89.292969 58.867188 L 89.230469 58.914062 C 89.078125 59.050781 88.894531 59.148438 88.695312 59.203125 C 88.34375 59.273438 87.351562 59.292969 86.820312 59.238281 C 86.285156 59.183594 85.9375 59.085938 85.722656 58.929688 C 85.363281 58.675781 85.300781 58.464844 85.476562 57.972656 C 85.613281 57.554688 85.753906 57.425781 86.203125 57.238281 C 86.292969 57.203125 86.375 57.164062 86.453125 57.109375 C 86.617188 56.953125 86.714844 55.945312 86.605469 55.4375 C 86.515625 55.042969 86.367188 54.664062 86.160156 54.316406 C 85.945312 53.980469 85.648438 53.695312 85.292969 53.496094 C 84.898438 53.296875 84.464844 53.1875 84.011719 53.1875 C 83.722656 53.1875 83.4375 53.257812 83.183594 53.394531 C 82.550781 53.714844 82.03125 54.214844 81.6875 54.832031 C 81.570312 55.054688 81.472656 55.28125 81.394531 55.519531 C 81.203125 56.0625 81.140625 56.347656 81.113281 56.789062 C 81.070312 57.566406 81.125 58.347656 81.285156 59.113281 C 81.679688 60.984375 82.773438 62.789062 84.347656 64.164062 C 85.335938 65.027344 86.699219 65.785156 88.300781 66.355469 C 89.582031 66.8125 91.132812 67.09375 92.648438 67.148438 C 93.101562 67.164062 93.167969 67.164062 93.570312 67.15625 Z M 103.011719 53.421875 C 102.929688 53.394531 102.867188 53.332031 102.84375 53.257812 C 102.824219 53.1875 102.824219 53.121094 102.851562 53.058594 C 102.886719 52.921875 102.984375 52.386719 103.011719 52.179688 C 103.058594 51.703125 103.058594 51.214844 103.003906 50.730469 C 102.976562 50.558594 102.984375 50.457031 103.019531 50.410156 C 103.082031 50.3125 103.203125 50.277344 103.308594 50.328125 C 103.433594 50.375 103.476562 50.519531 103.542969 51.074219 C 103.585938 51.4375 103.585938 51.796875 103.550781 52.160156 C 103.503906 52.523438 103.425781 52.894531 103.335938 53.25 C 103.300781 53.332031 103.234375 53.394531 103.144531 53.425781 L 103.074219 53.449219 Z M 94.679688 45.722656 C 94.570312 45.671875 94.519531 45.542969 94.570312 45.433594 C 94.570312 45.433594 94.570312 45.425781 94.574219 45.425781 C 94.636719 45.304688 95.101562 44.84375 95.234375 44.769531 C 95.273438 44.742188 95.324219 44.730469 95.371094 44.734375 C 95.484375 44.742188 95.566406 44.824219 95.574219 44.933594 C 95.578125 45.023438 95.546875 45.085938 95.40625 45.222656 C 95.34375 45.28125 95.242188 45.394531 95.179688 45.46875 C 95.046875 45.617188 94.996094 45.667969 94.894531 45.714844 C 94.824219 45.753906 94.75 45.753906 94.679688 45.722656 Z M 86.527344 42.09375 C 86.417969 42.039062 86.367188 41.902344 86.429688 41.785156 C 86.453125 41.746094 86.484375 41.71875 86.519531 41.691406 C 86.671875 41.640625 86.832031 41.601562 86.992188 41.585938 C 87.117188 41.566406 87.261719 41.539062 88.050781 41.363281 C 88.542969 41.253906 88.742188 41.183594 89.753906 40.820312 C 90.261719 40.636719 90.441406 40.546875 91.007812 40.191406 C 91.347656 39.984375 91.367188 39.972656 91.4375 39.964844 C 91.679688 39.953125 91.777344 40.246094 91.589844 40.425781 C 91.507812 40.5 90.863281 40.890625 90.578125 41.035156 C 90.316406 41.164062 90.164062 41.226562 89.382812 41.503906 C 89.109375 41.609375 88.828125 41.695312 88.550781 41.773438 C 88.039062 41.910156 87.519531 42.011719 87 42.074219 C 86.914062 42.082031 86.8125 42.09375 86.785156 42.101562 C 86.695312 42.128906 86.609375 42.121094 86.527344 42.09375 Z M 91.464844 32.226562 C 91.472656 32.175781 91.480469 31.980469 91.488281 31.765625 C 91.492188 31.191406 91.5625 30.617188 91.695312 30.054688 L 91.75 29.796875 L 91.703125 29.835938 C 91.625 29.898438 91.230469 30.296875 91.097656 30.4375 C 90.910156 30.660156 90.738281 30.882812 90.585938 31.125 C 90.515625 31.234375 90.433594 31.355469 90.40625 31.398438 C 90.316406 31.535156 90.226562 31.679688 90.15625 31.828125 C 90.15625 31.835938 90.207031 31.847656 90.269531 31.863281 C 90.613281 31.929688 90.945312 32.039062 91.257812 32.203125 C 91.363281 32.257812 91.453125 32.300781 91.453125 32.300781 C 91.457031 32.28125 91.464844 32.253906 91.464844 32.226562 Z M 91.464844 32.226562 " fill-opacity="1" fill-rule="nonzero"/></g><g fill="rgb(1.959229%, 3.919983%, 18.818665%)" fill-opacity="1"><g transform="translate(65.433968, 54.364625)"><g><path d="M 1.921875 -1.9375 L 0.6875 -1.9375 L 0.6875 -1.3125 L 1.796875 -1.3125 L 1.796875 -0.96875 L 0.6875 -0.96875 L 0.6875 -0.34375 L 1.96875 -0.34375 L 1.96875 0 L 0.296875 0 L 0.296875 -2.28125 L 1.921875 -2.28125 Z M 1.921875 -1.9375 "/></g></g></g><g fill="rgb(1.959229%, 3.919983%, 18.818665%)" fill-opacity="1"><g transform="translate(68.135345, 54.364625)"><g><path d="M 1.046875 -2.296875 C 1.335938 -2.296875 1.601562 -2.21875 1.84375 -2.0625 L 1.6875 -1.71875 C 1.445312 -1.863281 1.222656 -1.9375 1.015625 -1.9375 C 0.898438 -1.9375 0.804688 -1.914062 0.734375 -1.875 C 0.671875 -1.832031 0.640625 -1.769531 0.640625 -1.6875 C 0.640625 -1.613281 0.671875 -1.550781 0.734375 -1.5 C 0.796875 -1.445312 0.875 -1.40625 0.96875 -1.375 C 1.0625 -1.351562 1.160156 -1.320312 1.265625 -1.28125 C 1.367188 -1.25 1.460938 -1.210938 1.546875 -1.171875 C 1.640625 -1.128906 1.71875 -1.0625 1.78125 -0.96875 C 1.84375 -0.875 1.875 -0.765625 1.875 -0.640625 C 1.875 -0.441406 1.789062 -0.28125 1.625 -0.15625 C 1.46875 -0.0390625 1.265625 0.015625 1.015625 0.015625 C 0.835938 0.015625 0.664062 -0.015625 0.5 -0.078125 C 0.34375 -0.148438 0.203125 -0.238281 0.078125 -0.34375 L 0.25 -0.671875 C 0.363281 -0.566406 0.488281 -0.484375 0.625 -0.421875 C 0.757812 -0.367188 0.890625 -0.34375 1.015625 -0.34375 C 1.148438 -0.34375 1.253906 -0.367188 1.328125 -0.421875 C 1.410156 -0.472656 1.453125 -0.539062 1.453125 -0.625 C 1.453125 -0.695312 1.421875 -0.757812 1.359375 -0.8125 C 1.296875 -0.875 1.21875 -0.914062 1.125 -0.9375 C 1.03125 -0.957031 0.929688 -0.984375 0.828125 -1.015625 C 0.722656 -1.054688 0.625 -1.097656 0.53125 -1.140625 C 0.445312 -1.179688 0.375 -1.242188 0.3125 -1.328125 C 0.25 -1.421875 0.21875 -1.53125 0.21875 -1.65625 C 0.21875 -1.851562 0.289062 -2.007812 0.4375 -2.125 C 0.59375 -2.238281 0.796875 -2.296875 1.046875 -2.296875 Z M 1.046875 -2.296875 "/></g></g></g><g fill="rgb(1.959229%, 3.919983%, 18.818665%)" fill-opacity="1"><g transform="translate(70.726471, 54.364625)"><g><path d="M 1.859375 -1.9375 L 1.125 -1.9375 L 1.125 0 L 0.75 0 L 0.75 -1.9375 L 0.03125 -1.9375 L 0.03125 -2.28125 L 1.859375 -2.28125 Z M 1.859375 -1.9375 "/></g></g></g><g fill="rgb(1.959229%, 3.919983%, 18.818665%)" fill-opacity="1"><g transform="translate(73.178163, 54.364625)"><g><path d="M 0.296875 -2.28125 L 1.234375 -2.28125 C 1.566406 -2.28125 1.84375 -2.171875 2.0625 -1.953125 C 2.289062 -1.734375 2.40625 -1.457031 2.40625 -1.125 C 2.40625 -0.800781 2.289062 -0.53125 2.0625 -0.3125 C 1.84375 -0.101562 1.5625 0 1.21875 0 L 0.296875 0 Z M 0.6875 -1.9375 L 0.6875 -0.34375 L 1.234375 -0.34375 C 1.460938 -0.34375 1.648438 -0.414062 1.796875 -0.5625 C 1.941406 -0.71875 2.015625 -0.910156 2.015625 -1.140625 C 2.015625 -1.367188 1.9375 -1.554688 1.78125 -1.703125 C 1.632812 -1.859375 1.445312 -1.9375 1.21875 -1.9375 Z M 0.6875 -1.9375 "/></g></g></g><g fill="rgb(1.959229%, 3.919983%, 18.818665%)" fill-opacity="1"><g transform="translate(112.094362, 54.364625)"><g><path d="M 0.9375 -2.296875 C 1.15625 -2.296875 1.328125 -2.242188 1.453125 -2.140625 C 1.585938 -2.035156 1.65625 -1.894531 1.65625 -1.71875 C 1.65625 -1.519531 1.519531 -1.269531 1.25 -0.96875 L 0.65625 -0.34375 L 1.765625 -0.34375 L 1.765625 0 L 0.140625 0 L 0.140625 -0.28125 L 0.984375 -1.1875 C 1.171875 -1.375 1.265625 -1.53125 1.265625 -1.65625 C 1.265625 -1.75 1.226562 -1.820312 1.15625 -1.875 C 1.09375 -1.925781 1 -1.953125 0.875 -1.953125 C 0.675781 -1.953125 0.472656 -1.859375 0.265625 -1.671875 L 0.109375 -1.96875 C 0.367188 -2.1875 0.644531 -2.296875 0.9375 -2.296875 Z M 0.9375 -2.296875 "/></g></g></g><g fill="rgb(1.959229%, 3.919983%, 18.818665%)" fill-opacity="1"><g transform="translate(114.575237, 54.364625)"><g><path d="M 1.125 -2.28125 C 1.4375 -2.28125 1.675781 -2.179688 1.84375 -1.984375 C 2.007812 -1.785156 2.09375 -1.5 2.09375 -1.125 C 2.09375 -0.757812 2.007812 -0.476562 1.84375 -0.28125 C 1.675781 -0.0820312 1.4375 0.015625 1.125 0.015625 C 0.8125 0.015625 0.570312 -0.0820312 0.40625 -0.28125 C 0.238281 -0.476562 0.15625 -0.757812 0.15625 -1.125 C 0.15625 -1.5 0.238281 -1.785156 0.40625 -1.984375 C 0.570312 -2.179688 0.8125 -2.28125 1.125 -2.28125 Z M 1.125 -1.984375 C 0.738281 -1.984375 0.546875 -1.703125 0.546875 -1.140625 C 0.546875 -0.578125 0.738281 -0.296875 1.125 -0.296875 C 1.507812 -0.296875 1.703125 -0.578125 1.703125 -1.140625 C 1.703125 -1.703125 1.507812 -1.984375 1.125 -1.984375 Z M 1.125 -1.984375 "/></g></g></g><g fill="rgb(1.959229%, 3.919983%, 18.818665%)" fill-opacity="1"><g transform="translate(117.390107, 54.364625)"><g><path d="M 0.9375 -2.296875 C 1.15625 -2.296875 1.328125 -2.242188 1.453125 -2.140625 C 1.585938 -2.035156 1.65625 -1.894531 1.65625 -1.71875 C 1.65625 -1.519531 1.519531 -1.269531 1.25 -0.96875 L 0.65625 -0.34375 L 1.765625 -0.34375 L 1.765625 0 L 0.140625 0 L 0.140625 -0.28125 L 0.984375 -1.1875 C 1.171875 -1.375 1.265625 -1.53125 1.265625 -1.65625 C 1.265625 -1.75 1.226562 -1.820312 1.15625 -1.875 C 1.09375 -1.925781 1 -1.953125 0.875 -1.953125 C 0.675781 -1.953125 0.472656 -1.859375 0.265625 -1.671875 L 0.109375 -1.96875 C 0.367188 -2.1875 0.644531 -2.296875 0.9375 -2.296875 Z M 0.9375 -2.296875 "/></g></g></g><g fill="rgb(1.959229%, 3.919983%, 18.818665%)" fill-opacity="1"><g transform="translate(119.870981, 54.364625)"><g><path d="M 0.9375 -2.296875 C 1.15625 -2.296875 1.328125 -2.242188 1.453125 -2.140625 C 1.585938 -2.035156 1.65625 -1.894531 1.65625 -1.71875 C 1.65625 -1.519531 1.519531 -1.269531 1.25 -0.96875 L 0.65625 -0.34375 L 1.765625 -0.34375 L 1.765625 0 L 0.140625 0 L 0.140625 -0.28125 L 0.984375 -1.1875 C 1.171875 -1.375 1.265625 -1.53125 1.265625 -1.65625 C 1.265625 -1.75 1.226562 -1.820312 1.15625 -1.875 C 1.09375 -1.925781 1 -1.953125 0.875 -1.953125 C 0.675781 -1.953125 0.472656 -1.859375 0.265625 -1.671875 L 0.109375 -1.96875 C 0.367188 -2.1875 0.644531 -2.296875 0.9375 -2.296875 Z M 0.9375 -2.296875 "/></g></g></g><g fill="rgb(0%, 29.019165%, 67.83905%)" fill-opacity="1"><g transform="translate(67.331598, 62.190568)"><g><path d="M 3.609375 5.734375 L 2.921875 4.65625 L 6.03125 2.6875 L 2.671875 3.203125 L 2.171875 2.421875 L 4.09375 -0.390625 L 0.984375 1.5625 L 0.296875 0.46875 L 5.078125 -2.546875 L 5.921875 -1.203125 L 3.890625 1.890625 L 7.546875 1.390625 L 8.390625 2.71875 Z M 3.609375 5.734375 "/></g></g></g><g fill="rgb(0%, 29.019165%, 67.83905%)" fill-opacity="1"><g transform="translate(72.283891, 69.384355)"><g><path d="M 4.765625 -1.609375 C 5.328125 -1.097656 5.59375 -0.546875 5.5625 0.046875 C 5.53125 0.648438 5.226562 1.234375 4.65625 1.796875 L 2.390625 -0.265625 C 2.265625 -0.0234375 2.21875 0.203125 2.25 0.421875 C 2.289062 0.648438 2.410156 0.851562 2.609375 1.03125 C 2.898438 1.289062 3.253906 1.410156 3.671875 1.390625 L 3.734375 2.421875 C 3.046875 2.472656 2.410156 2.234375 1.828125 1.703125 C 1.296875 1.234375 1.007812 0.707031 0.96875 0.125 C 0.9375 -0.445312 1.144531 -0.976562 1.59375 -1.46875 C 2.039062 -1.96875 2.554688 -2.226562 3.140625 -2.25 C 3.722656 -2.269531 4.265625 -2.054688 4.765625 -1.609375 Z M 2.875 -0.828125 L 4.15625 0.328125 C 4.332031 0.140625 4.421875 -0.0625 4.421875 -0.28125 C 4.421875 -0.5 4.320312 -0.695312 4.125 -0.875 C 3.957031 -1.03125 3.757812 -1.101562 3.53125 -1.09375 C 3.3125 -1.09375 3.09375 -1.003906 2.875 -0.828125 Z M 2.875 -0.828125 "/></g></g></g><g fill="rgb(0%, 29.019165%, 67.83905%)" fill-opacity="1"><g transform="translate(76.899673, 73.392531)"><g><path d="M 4.390625 -2.59375 C 5.015625 -2.25 5.414062 -1.789062 5.59375 -1.21875 C 5.769531 -0.644531 5.691406 -0.0703125 5.359375 0.5 C 5.035156 1.082031 4.585938 1.445312 4.015625 1.59375 C 3.453125 1.738281 2.859375 1.640625 2.234375 1.296875 C 1.609375 0.953125 1.195312 0.492188 1 -0.078125 C 0.8125 -0.648438 0.878906 -1.222656 1.203125 -1.796875 C 1.535156 -2.378906 1.992188 -2.742188 2.578125 -2.890625 C 3.160156 -3.035156 3.765625 -2.9375 4.390625 -2.59375 Z M 3.859375 -1.625 C 3.609375 -1.757812 3.347656 -1.78125 3.078125 -1.6875 C 2.816406 -1.59375 2.601562 -1.398438 2.4375 -1.109375 C 2.28125 -0.816406 2.226562 -0.535156 2.28125 -0.265625 C 2.34375 0.00390625 2.5 0.207031 2.75 0.34375 C 3 0.476562 3.253906 0.5 3.515625 0.40625 C 3.773438 0.3125 3.984375 0.117188 4.140625 -0.171875 C 4.304688 -0.460938 4.363281 -0.742188 4.3125 -1.015625 C 4.257812 -1.285156 4.109375 -1.488281 3.859375 -1.625 Z M 3.859375 -1.625 "/></g></g></g><g fill="rgb(0%, 29.019165%, 67.83905%)" fill-opacity="1"><g transform="translate(82.693482, 76.574675)"><g><path d="M 5.859375 1.34375 L 4.53125 1.03125 L 4.3125 -1.84375 L 2.859375 0.65625 L 1.515625 0.34375 L 0.921875 -4.25 L 2.3125 -3.921875 L 2.515625 -0.8125 L 4.03125 -3.53125 L 5.328125 -3.234375 L 5.53125 -0.125 L 7.0625 -2.84375 L 8.390625 -2.546875 Z M 5.859375 1.34375 "/></g></g></g><g fill="rgb(0%, 29.019165%, 67.83905%)" fill-opacity="1"><g transform="translate(91.512786, 78.191275)"><g><path d="M 4.5 -4.765625 L 1.75 -4.625 L 1.828125 -3.3125 L 4.359375 -3.453125 L 4.421875 -2.328125 L 1.890625 -2.1875 L 2 -0.109375 L 0.5625 -0.03125 L 0.25 -5.65625 L 4.4375 -5.875 Z M 4.5 -4.765625 "/></g></g></g><g fill="rgb(0%, 29.019165%, 67.83905%)" fill-opacity="1"><g transform="translate(97.428038, 77.675258)"><g><path d="M -0.671875 -6.140625 C -0.566406 -6.304688 -0.410156 -6.410156 -0.203125 -6.453125 C 0.00390625 -6.503906 0.1875 -6.476562 0.34375 -6.375 C 0.507812 -6.269531 0.617188 -6.109375 0.671875 -5.890625 C 0.722656 -5.679688 0.695312 -5.492188 0.59375 -5.328125 C 0.488281 -5.171875 0.332031 -5.066406 0.125 -5.015625 C -0.0820312 -4.972656 -0.265625 -5 -0.421875 -5.09375 C -0.585938 -5.195312 -0.695312 -5.351562 -0.75 -5.5625 C -0.800781 -5.78125 -0.773438 -5.972656 -0.671875 -6.140625 Z M 1.890625 -0.4375 L 0.546875 -0.125 L -0.4375 -4.359375 L 0.90625 -4.671875 Z M 1.890625 -0.4375 "/></g></g></g><g fill="rgb(0%, 29.019165%, 67.83905%)" fill-opacity="1"><g transform="translate(100.974627, 76.88452)"><g><path d="M 1.359375 -5.40625 C 1.796875 -5.59375 2.203125 -5.601562 2.578125 -5.4375 C 2.960938 -5.28125 3.257812 -4.96875 3.46875 -4.5 L 4.5625 -2 L 3.3125 -1.453125 L 2.359375 -3.609375 C 2.265625 -3.835938 2.117188 -3.988281 1.921875 -4.0625 C 1.734375 -4.144531 1.535156 -4.140625 1.328125 -4.046875 C 1.097656 -3.941406 0.941406 -3.785156 0.859375 -3.578125 C 0.773438 -3.367188 0.773438 -3.140625 0.859375 -2.890625 L 1.78125 -0.78125 L 0.515625 -0.21875 L -1.234375 -4.203125 L 0.03125 -4.765625 L 0.3125 -4.109375 C 0.394531 -4.691406 0.742188 -5.125 1.359375 -5.40625 Z M 1.359375 -5.40625 "/></g></g></g><g fill="rgb(0%, 29.019165%, 67.83905%)" fill-opacity="1"><g transform="translate(107.094325, 74.028281)"><g><path d="M 0.21875 -7.75 L 3.890625 -3.03125 L 2.796875 -2.171875 L 2.4375 -2.625 C 2.445312 -2.09375 2.234375 -1.660156 1.796875 -1.328125 C 1.304688 -0.953125 0.785156 -0.8125 0.234375 -0.90625 C -0.304688 -1.007812 -0.78125 -1.328125 -1.1875 -1.859375 C -1.59375 -2.378906 -1.773438 -2.910156 -1.734375 -3.453125 C -1.691406 -4.003906 -1.4375 -4.46875 -0.96875 -4.84375 C -0.507812 -5.1875 -0.0234375 -5.285156 0.484375 -5.140625 L -0.875 -6.890625 Z M 0.640625 -2.203125 C 0.910156 -2.148438 1.160156 -2.210938 1.390625 -2.390625 C 1.617188 -2.566406 1.738281 -2.789062 1.75 -3.0625 C 1.769531 -3.34375 1.675781 -3.613281 1.46875 -3.875 C 1.269531 -4.132812 1.03125 -4.296875 0.75 -4.359375 C 0.476562 -4.421875 0.226562 -4.363281 0 -4.1875 C -0.226562 -4.007812 -0.347656 -3.78125 -0.359375 -3.5 C -0.367188 -3.226562 -0.269531 -2.957031 -0.0625 -2.6875 C 0.144531 -2.425781 0.378906 -2.265625 0.640625 -2.203125 Z M 0.640625 -2.203125 "/></g></g></g><g fill="rgb(0%, 29.019165%, 67.83905%)" fill-opacity="1"><g transform="translate(112.351629, 69.695279)"><g><path d="M -1.90625 -4.65625 C -1.4375 -5.25 -0.898438 -5.546875 -0.296875 -5.546875 C 0.296875 -5.554688 0.894531 -5.296875 1.5 -4.765625 L -0.40625 -2.375 C -0.15625 -2.257812 0.078125 -2.226562 0.296875 -2.28125 C 0.515625 -2.332031 0.707031 -2.457031 0.875 -2.65625 C 1.125 -2.96875 1.21875 -3.332031 1.15625 -3.75 L 2.171875 -3.890625 C 2.273438 -3.191406 2.082031 -2.535156 1.59375 -1.921875 C 1.144531 -1.367188 0.632812 -1.050781 0.0625 -0.96875 C -0.507812 -0.894531 -1.054688 -1.066406 -1.578125 -1.484375 C -2.109375 -1.910156 -2.398438 -2.410156 -2.453125 -2.984375 C -2.515625 -3.566406 -2.332031 -4.125 -1.90625 -4.65625 Z M -1 -2.828125 L 0.078125 -4.1875 C -0.128906 -4.34375 -0.34375 -4.410156 -0.5625 -4.390625 C -0.78125 -4.378906 -0.96875 -4.269531 -1.125 -4.0625 C -1.269531 -3.882812 -1.332031 -3.679688 -1.3125 -3.453125 C -1.300781 -3.234375 -1.195312 -3.023438 -1 -2.828125 Z M -1 -2.828125 "/></g></g></g><g fill="rgb(0%, 29.019165%, 67.83905%)" fill-opacity="1"><g transform="translate(115.945813, 64.906827)"><g><path d="M -2.9375 -3.75 L -2.296875 -3.40625 C -2.617188 -3.914062 -2.640625 -4.453125 -2.359375 -5.015625 L -1.25 -4.4375 C -1.457031 -4.101562 -1.546875 -3.78125 -1.515625 -3.46875 C -1.484375 -3.164062 -1.335938 -2.929688 -1.078125 -2.765625 L 0.90625 -1.734375 L 0.265625 -0.5 L -3.578125 -2.515625 Z M -2.9375 -3.75 "/></g></g></g></svg>