<svg xmlns="http://www.w3.org/2000/svg" xmlns:xlink="http://www.w3.org/1999/xlink" width="150" zoomAndPan="magnify" viewBox="0 0 112.5 112.499997" height="150" preserveAspectRatio="xMidYMid meet" version="1.0"><defs><g><g id="id1"/></g><clipPath id="id2"><path d="M 37.0625 39 L 49 39 L 49 50 L 37.0625 50 Z M 37.0625 39 " clip-rule="nonzero"/></clipPath><clipPath id="id3"><path d="M 64.933594 39.714844 L 75.304688 39.714844 L 75.304688 50.222656 L 64.933594 50.222656 Z M 64.933594 39.714844 " clip-rule="nonzero"/></clipPath><clipPath id="id4"><path d="M 47.59375 45.101562 L 65.503906 45.101562 L 65.503906 60.042969 L 47.59375 60.042969 Z M 47.59375 45.101562 " clip-rule="nonzero"/></clipPath><clipPath id="id5"><path d="M 47.75 70.5625 L 70.25 70.5625 L 70.25 71.3125 L 47.75 71.3125 Z M 47.75 70.5625 " clip-rule="nonzero"/></clipPath></defs><path fill="rgb(21.958923%, 71.369934%, 100%)" d="M 50.324219 32.425781 C 57.128906 31.472656 57.679688 43.625 51.382812 43.328125 C 46.320312 43.09375 44.410156 33.25 50.324219 32.425781 " fill-opacity="1" fill-rule="evenodd"/><path fill="rgb(21.958923%, 71.369934%, 100%)" d="M 61.261719 32.425781 C 68.757812 30.792969 67.882812 44.070312 60.910156 43.328125 C 55.390625 42.746094 56.464844 33.46875 61.261719 32.425781 " fill-opacity="1" fill-rule="evenodd"/><g clip-path="url(#id2)"><path fill="rgb(21.958923%, 71.369934%, 100%)" d="M 47.855469 47.023438 C 45.191406 52.824219 37.070312 48.726562 37.976562 42.976562 C 38.933594 36.921875 49.792969 40.011719 47.855469 47.023438 " fill-opacity="1" fill-rule="evenodd"/></g><g clip-path="url(#id3)"><path fill="rgb(21.958923%, 71.369934%, 100%)" d="M 69.90625 39.8125 C 71.660156 39.472656 73.851562 40.09375 74.667969 41.570312 C 76.925781 45.644531 72.765625 50.621094 68.671875 50.1875 C 66.421875 49.953125 65.125 48.046875 64.96875 46.320312 C 64.632812 42.625 67.277344 40.320312 69.90625 39.8125 " fill-opacity="1" fill-rule="evenodd"/></g><g clip-path="url(#id4)"><path fill="rgb(21.958923%, 71.369934%, 100%)" d="M 54.734375 45.265625 C 60.917969 44.203125 66.589844 48.644531 65.320312 56.167969 C 65.058594 57.726562 63.710938 59.929688 61.792969 60.039062 C 60.242188 60.128906 58.429688 58.625 56.5 58.632812 C 54.105469 58.644531 52.214844 60.761719 49.972656 59.6875 C 48.089844 58.785156 47.328125 55.132812 47.679688 52.476562 C 48.1875 48.644531 51.011719 45.90625 54.734375 45.265625 " fill-opacity="1" fill-rule="evenodd"/></g><g clip-path="url(#id5)"><path fill="rgb(100%, 100%, 100%)" d="M 52.890625 71.226562 L 52.984375 71.210938 C 52.675781 71.261719 52.34375 71.296875 52.007812 71.289062 C 52.375 71.3125 52.773438 71.285156 53.128906 71.226562 C 53.488281 71.164062 53.804688 71.082031 54.039062 70.988281 C 54.078125 71.003906 54.257812 70.984375 54.425781 70.960938 C 54.59375 70.9375 54.753906 70.914062 54.757812 70.90625 C 54.882812 70.878906 55.015625 70.851562 55.148438 70.835938 C 55.054688 70.847656 54.96875 70.859375 54.878906 70.878906 C 54.96875 70.859375 55.054688 70.84375 55.148438 70.835938 C 55.355469 70.804688 55.574219 70.789062 55.789062 70.796875 C 55.816406 70.796875 55.84375 70.796875 55.871094 70.800781 C 55.898438 70.804688 55.925781 70.804688 55.953125 70.808594 C 55.980469 70.808594 56.007812 70.8125 56.035156 70.816406 C 56.058594 70.820312 56.085938 70.824219 56.113281 70.828125 C 56.21875 70.84375 56.324219 70.867188 56.433594 70.894531 C 56.644531 70.953125 56.859375 71.03125 57.089844 71.105469 C 57.207031 71.140625 57.324219 71.175781 57.453125 71.207031 C 57.515625 71.222656 57.582031 71.234375 57.648438 71.246094 L 57.75 71.265625 C 57.78125 71.269531 57.816406 71.273438 57.851562 71.277344 C 58 71.296875 58.222656 71.308594 58.464844 71.300781 C 58.710938 71.292969 58.984375 71.265625 59.246094 71.226562 C 59.507812 71.1875 59.765625 71.144531 59.988281 71.105469 C 60.214844 71.066406 60.40625 71.039062 60.542969 71.023438 L 60.664062 71.011719 C 60.703125 71.003906 60.742188 71 60.78125 70.996094 C 60.648438 71.007812 60.648438 71.011719 60.515625 71.023438 C 60.679688 70.992188 60.835938 70.96875 60.988281 70.949219 C 61.144531 70.929688 61.292969 70.910156 61.441406 70.902344 C 61.390625 70.898438 61.378906 70.890625 61.253906 70.890625 C 61.304688 70.886719 61.355469 70.886719 61.40625 70.886719 C 61.476562 70.871094 61.589844 70.863281 61.707031 70.855469 C 61.820312 70.851562 61.941406 70.851562 62.015625 70.84375 C 61.984375 70.855469 62.101562 70.859375 62.207031 70.863281 L 62.164062 70.855469 C 62.367188 70.859375 62.582031 70.871094 62.789062 70.890625 C 62.996094 70.90625 63.203125 70.929688 63.378906 70.957031 C 63.425781 70.964844 63.464844 70.972656 63.484375 70.980469 C 63.597656 70.996094 63.710938 71.011719 63.824219 71.027344 C 63.792969 71.035156 64.101562 71.089844 63.9375 71.066406 C 64.195312 71.09375 64.453125 71.148438 64.710938 71.167969 C 64.929688 71.199219 65.160156 71.222656 65.398438 71.234375 C 65.632812 71.242188 65.878906 71.238281 66.117188 71.210938 C 66.59375 71.164062 67.039062 71.046875 67.472656 70.953125 L 67.449219 70.953125 C 67.753906 70.886719 68.023438 70.8125 68.414062 70.785156 C 68.550781 70.761719 68.71875 70.742188 68.867188 70.726562 C 69.015625 70.710938 69.140625 70.699219 69.199219 70.683594 C 69.28125 70.683594 69.351562 70.679688 69.414062 70.679688 C 69.476562 70.675781 69.53125 70.675781 69.589844 70.675781 C 69.703125 70.671875 69.820312 70.667969 69.976562 70.675781 C 69.9375 70.664062 70.015625 70.664062 70.082031 70.664062 C 70.152344 70.664062 70.210938 70.667969 70.132812 70.65625 C 70.027344 70.636719 69.972656 70.632812 69.917969 70.632812 C 69.867188 70.628906 69.816406 70.628906 69.726562 70.617188 L 69.734375 70.621094 C 69.308594 70.597656 68.878906 70.597656 68.449219 70.628906 C 68.234375 70.644531 68.023438 70.667969 67.808594 70.695312 C 67.597656 70.726562 67.386719 70.761719 67.179688 70.804688 C 66.910156 70.863281 66.636719 70.921875 66.355469 70.964844 C 66.214844 70.984375 66.078125 71 65.9375 71.003906 C 65.800781 71.011719 65.660156 71.015625 65.523438 71.011719 C 64.921875 70.996094 64.265625 70.871094 63.730469 70.796875 C 63.601562 70.78125 63.511719 70.757812 63.40625 70.734375 C 63.15625 70.699219 62.867188 70.667969 62.570312 70.652344 C 62.273438 70.632812 61.96875 70.628906 61.679688 70.640625 L 61.710938 70.640625 C 61.402344 70.648438 61.175781 70.648438 60.878906 70.679688 C 60.878906 70.683594 60.835938 70.691406 60.8125 70.695312 C 60.796875 70.691406 60.683594 70.703125 60.515625 70.730469 C 60.351562 70.753906 60.140625 70.796875 59.929688 70.839844 C 59.722656 70.882812 59.507812 70.925781 59.347656 70.957031 C 59.1875 70.988281 59.066406 71.003906 59.039062 71.007812 L 58.949219 71.019531 C 58.800781 71.039062 58.652344 71.046875 58.503906 71.054688 L 58.394531 71.054688 C 58.359375 71.054688 58.324219 71.054688 58.285156 71.050781 C 58.25 71.050781 58.214844 71.050781 58.179688 71.046875 C 58.140625 71.046875 58.109375 71.042969 58.074219 71.039062 C 58.003906 71.035156 57.933594 71.023438 57.867188 71.015625 C 57.851562 71.011719 57.835938 71.011719 57.816406 71.003906 C 57.800781 71.003906 57.785156 71 57.769531 70.996094 C 57.734375 70.988281 57.703125 70.984375 57.671875 70.980469 C 57.546875 70.953125 57.429688 70.917969 57.308594 70.886719 C 57.203125 70.863281 57.082031 70.835938 56.988281 70.8125 C 56.910156 70.78125 56.882812 70.789062 56.78125 70.753906 C 56.660156 70.695312 56.550781 70.660156 56.488281 70.648438 C 56.429688 70.632812 56.421875 70.640625 56.492188 70.664062 L 56.402344 70.644531 C 56.375 70.636719 56.34375 70.632812 56.316406 70.625 C 56.253906 70.613281 56.191406 70.605469 56.132812 70.597656 C 56.074219 70.589844 56.015625 70.582031 55.953125 70.574219 C 55.925781 70.574219 55.894531 70.570312 55.867188 70.570312 C 55.839844 70.566406 55.8125 70.566406 55.78125 70.566406 C 55.757812 70.566406 55.730469 70.5625 55.707031 70.566406 L 55.628906 70.570312 C 55.578125 70.570312 55.523438 70.574219 55.476562 70.578125 C 55.433594 70.582031 55.398438 70.582031 55.371094 70.582031 C 55.339844 70.582031 55.316406 70.578125 55.292969 70.574219 C 55.183594 70.585938 55.144531 70.585938 55.105469 70.589844 C 55.066406 70.589844 55.023438 70.589844 54.910156 70.601562 C 54.882812 70.601562 54.738281 70.621094 54.605469 70.652344 C 54.464844 70.683594 54.328125 70.71875 54.300781 70.722656 L 54.335938 70.710938 C 54.085938 70.757812 53.910156 70.769531 53.667969 70.820312 C 53.335938 70.882812 52.988281 70.953125 52.652344 71 C 52.484375 71.019531 52.3125 71.035156 52.148438 71.042969 C 51.988281 71.046875 51.828125 71.042969 51.679688 71.027344 C 51.675781 71.035156 51.710938 71.035156 51.742188 71.039062 C 51.777344 71.042969 51.816406 71.042969 51.816406 71.050781 C 51.457031 71.03125 51.105469 70.945312 50.742188 70.863281 C 50.679688 70.84375 50.601562 70.820312 50.574219 70.808594 C 50.457031 70.777344 50.5 70.800781 50.414062 70.78125 L 50.40625 70.765625 C 50.277344 70.75 50.226562 70.714844 50.101562 70.695312 C 50.089844 70.699219 50.046875 70.691406 50 70.683594 C 50.003906 70.667969 49.863281 70.660156 49.871094 70.648438 C 49.84375 70.644531 49.824219 70.644531 49.789062 70.636719 C 49.761719 70.632812 49.617188 70.625 49.476562 70.621094 C 49.40625 70.621094 49.335938 70.621094 49.277344 70.625 C 49.25 70.625 49.226562 70.628906 49.207031 70.628906 C 49.1875 70.628906 49.171875 70.628906 49.167969 70.628906 L 49.140625 70.628906 C 49.0625 70.625 49.03125 70.636719 49.078125 70.636719 L 48.984375 70.636719 L 48.996094 70.636719 C 48.964844 70.636719 48.929688 70.636719 48.902344 70.636719 C 48.886719 70.636719 48.867188 70.632812 48.886719 70.625 C 48.863281 70.628906 48.835938 70.632812 48.804688 70.632812 C 48.777344 70.636719 48.75 70.640625 48.722656 70.640625 C 48.871094 70.632812 49.058594 70.640625 49.207031 70.660156 C 49.175781 70.660156 49.128906 70.660156 49.085938 70.65625 C 49.042969 70.652344 48.996094 70.65625 48.964844 70.65625 C 48.929688 70.65625 48.867188 70.660156 48.796875 70.660156 C 48.726562 70.660156 48.652344 70.664062 48.585938 70.671875 C 48.554688 70.675781 48.542969 70.691406 48.476562 70.699219 C 48.4375 70.695312 48.402344 70.710938 48.347656 70.71875 C 48.359375 70.714844 48.375 70.710938 48.390625 70.707031 C 48.40625 70.699219 48.417969 70.699219 48.4375 70.695312 C 48.464844 70.691406 48.5 70.683594 48.527344 70.679688 C 48.515625 70.671875 48.375 70.699219 48.324219 70.710938 C 48.3125 70.714844 48.277344 70.726562 48.234375 70.738281 C 48.195312 70.746094 48.148438 70.761719 48.113281 70.773438 C 48.136719 70.75 48.050781 70.789062 48.003906 70.800781 C 47.957031 70.820312 47.929688 70.839844 47.953125 70.832031 C 47.953125 70.835938 47.964844 70.835938 47.980469 70.828125 C 47.988281 70.824219 47.996094 70.820312 48.007812 70.816406 C 48.015625 70.8125 48.027344 70.808594 48.039062 70.804688 C 48.082031 70.792969 48.117188 70.78125 48.089844 70.796875 C 48.078125 70.796875 48.050781 70.808594 48.019531 70.820312 C 47.988281 70.835938 47.957031 70.851562 47.933594 70.863281 C 47.941406 70.871094 47.96875 70.851562 47.945312 70.871094 C 47.933594 70.878906 47.921875 70.882812 47.90625 70.890625 C 47.898438 70.898438 47.882812 70.90625 47.875 70.914062 C 47.855469 70.929688 47.835938 70.9375 47.816406 70.945312 C 47.824219 70.9375 47.847656 70.929688 47.859375 70.921875 C 47.832031 70.9375 47.902344 70.878906 47.988281 70.828125 C 48.070312 70.78125 48.160156 70.738281 48.117188 70.757812 C 48.117188 70.753906 48.097656 70.765625 48.0625 70.78125 C 48.046875 70.792969 48.023438 70.804688 48.003906 70.8125 C 47.984375 70.828125 47.960938 70.839844 47.941406 70.851562 C 47.898438 70.875 47.859375 70.90625 47.832031 70.925781 C 47.804688 70.945312 47.792969 70.953125 47.800781 70.949219 C 47.839844 70.929688 47.789062 70.972656 47.828125 70.953125 L 47.863281 70.921875 C 47.894531 70.910156 47.914062 70.902344 47.925781 70.898438 C 47.941406 70.898438 47.945312 70.902344 47.9375 70.90625 C 47.914062 70.917969 47.917969 70.914062 47.929688 70.898438 C 47.945312 70.886719 47.976562 70.867188 48.007812 70.84375 C 48.070312 70.804688 48.140625 70.765625 48.097656 70.785156 C 48.113281 70.78125 48.125 70.777344 48.140625 70.773438 C 48.101562 70.792969 48.007812 70.832031 47.96875 70.84375 C 47.96875 70.847656 47.960938 70.855469 47.945312 70.867188 C 47.925781 70.875 47.90625 70.886719 47.890625 70.898438 L 47.878906 70.902344 C 47.84375 70.929688 47.789062 70.957031 47.820312 70.949219 C 47.929688 70.886719 47.910156 70.921875 47.890625 70.953125 C 47.871094 70.988281 47.859375 71.019531 47.957031 70.964844 C 47.859375 71.003906 47.96875 70.933594 48.0625 70.890625 C 48.074219 70.890625 48.125 70.882812 48.203125 70.855469 C 48.265625 70.835938 48.234375 70.839844 48.246094 70.832031 C 48.265625 70.828125 48.289062 70.820312 48.308594 70.816406 C 48.332031 70.8125 48.351562 70.8125 48.347656 70.816406 C 48.394531 70.792969 48.433594 70.800781 48.492188 70.789062 C 48.546875 70.773438 48.484375 70.785156 48.523438 70.773438 C 48.574219 70.769531 48.625 70.765625 48.675781 70.757812 C 48.722656 70.753906 48.769531 70.75 48.804688 70.746094 C 48.832031 70.75 48.914062 70.761719 48.859375 70.777344 C 48.730469 70.78125 48.90625 70.75 48.773438 70.765625 C 48.832031 70.777344 48.652344 70.78125 48.636719 70.800781 C 48.679688 70.800781 48.765625 70.792969 48.835938 70.785156 L 48.824219 70.78125 C 48.851562 70.78125 48.902344 70.777344 48.949219 70.773438 C 48.996094 70.773438 49.046875 70.773438 49.082031 70.777344 C 49.0625 70.785156 49.09375 70.789062 49.046875 70.792969 C 49.078125 70.792969 49.105469 70.792969 49.132812 70.792969 C 49.144531 70.792969 49.15625 70.789062 49.128906 70.789062 C 49.167969 70.785156 49.210938 70.789062 49.242188 70.792969 C 49.246094 70.796875 49.273438 70.796875 49.316406 70.796875 C 49.359375 70.796875 49.421875 70.796875 49.476562 70.796875 C 49.589844 70.804688 49.703125 70.808594 49.695312 70.8125 C 49.757812 70.820312 49.765625 70.832031 49.832031 70.835938 C 49.832031 70.835938 49.796875 70.828125 49.742188 70.824219 C 49.714844 70.816406 49.679688 70.8125 49.648438 70.808594 C 49.617188 70.808594 49.578125 70.804688 49.542969 70.800781 C 49.402344 70.792969 49.273438 70.792969 49.3125 70.792969 C 49.324219 70.792969 49.375 70.796875 49.445312 70.796875 C 49.515625 70.804688 49.605469 70.808594 49.695312 70.816406 C 49.871094 70.835938 50.042969 70.859375 50.058594 70.871094 C 50.105469 70.878906 50.15625 70.886719 50.152344 70.878906 C 50.226562 70.898438 50.125 70.886719 50.171875 70.902344 C 50.175781 70.902344 50.171875 70.898438 50.1875 70.902344 L 50.238281 70.921875 C 50.359375 70.9375 50.523438 70.988281 50.65625 71 C 50.617188 71 50.570312 71.003906 50.488281 70.988281 L 50.472656 70.988281 C 50.460938 70.988281 50.394531 70.976562 50.394531 70.984375 C 50.46875 71.003906 50.535156 71.015625 50.617188 71.027344 C 50.628906 71.03125 50.644531 71.039062 50.65625 71.042969 L 50.65625 71.039062 C 50.679688 71.046875 50.675781 71.046875 50.664062 71.046875 L 50.660156 71.046875 C 50.699219 71.078125 50.964844 71.101562 51.101562 71.132812 C 51.144531 71.140625 51.109375 71.132812 51.160156 71.140625 C 51.304688 71.171875 51.402344 71.191406 51.5625 71.210938 C 51.613281 71.207031 51.617188 71.207031 51.558594 71.191406 L 51.675781 71.207031 C 51.621094 71.210938 51.671875 71.222656 51.730469 71.230469 C 51.78125 71.238281 51.839844 71.25 51.777344 71.253906 C 51.8125 71.265625 51.886719 71.265625 51.953125 71.265625 C 51.960938 71.257812 51.972656 71.25 52.058594 71.25 C 52.117188 71.253906 52.140625 71.253906 52.160156 71.253906 C 52.179688 71.253906 52.195312 71.253906 52.246094 71.257812 C 52.269531 71.265625 52.230469 71.269531 52.238281 71.273438 C 52.390625 71.253906 52.375 71.28125 52.515625 71.265625 C 52.5625 71.261719 52.625 71.253906 52.679688 71.242188 C 52.738281 71.234375 52.78125 71.226562 52.78125 71.21875 C 52.894531 71.207031 52.894531 71.210938 52.890625 71.226562 Z M 52.890625 71.226562 " fill-opacity="1" fill-rule="nonzero"/></g><g fill="rgb(1.959229%, 3.919983%, 18.818665%)" fill-opacity="1"><g transform="translate(34.171172, 68.65967)"><g><path d="M 4.875 -4.375 L 4.875 0 L 4.046875 0 L 4.046875 -2 L 2.671875 -0.0625 L 1.34375 -1.875 L 1.34375 0 L 0.546875 0 L 0.546875 -4.375 L 2.6875 -1.359375 L 4.859375 -4.375 Z M 4.875 -4.375 "/></g></g></g><g fill="rgb(1.959229%, 3.919983%, 18.818665%)" fill-opacity="1"><g transform="translate(39.59035, 68.65967)"><g><path d="M 3.421875 -4.203125 L 3.421875 -3.40625 L 1.375 -3.40625 L 1.375 -2.515625 L 3.171875 -2.515625 L 3.171875 -1.703125 L 1.375 -1.703125 L 1.375 -0.796875 L 3.5 -0.796875 L 3.5 0 L 0.546875 0 L 0.546875 -4.203125 Z M 3.421875 -4.203125 "/></g></g></g><g fill="rgb(1.959229%, 3.919983%, 18.818665%)" fill-opacity="1"><g transform="translate(43.397493, 68.65967)"><g><path d="M 0.28125 -2.09375 C 0.28125 -2.476562 0.375 -2.835938 0.5625 -3.171875 C 0.757812 -3.503906 1.023438 -3.765625 1.359375 -3.953125 C 1.691406 -4.148438 2.050781 -4.25 2.4375 -4.25 C 2.820312 -4.25 3.175781 -4.148438 3.5 -3.953125 C 3.832031 -3.765625 4.097656 -3.503906 4.296875 -3.171875 C 4.492188 -2.835938 4.59375 -2.476562 4.59375 -2.09375 C 4.59375 -1.707031 4.492188 -1.347656 4.296875 -1.015625 C 4.097656 -0.691406 3.832031 -0.429688 3.5 -0.234375 C 3.175781 -0.046875 2.820312 0.046875 2.4375 0.046875 C 2.039062 0.046875 1.675781 -0.046875 1.34375 -0.234375 C 1.019531 -0.429688 0.757812 -0.691406 0.5625 -1.015625 C 0.375 -1.347656 0.28125 -1.707031 0.28125 -2.09375 Z M 1.140625 -2.09375 C 1.140625 -1.851562 1.195312 -1.628906 1.3125 -1.421875 C 1.4375 -1.210938 1.597656 -1.046875 1.796875 -0.921875 C 1.992188 -0.804688 2.210938 -0.75 2.453125 -0.75 C 2.691406 -0.75 2.90625 -0.804688 3.09375 -0.921875 C 3.289062 -1.046875 3.445312 -1.210938 3.5625 -1.421875 C 3.675781 -1.628906 3.734375 -1.851562 3.734375 -2.09375 C 3.734375 -2.34375 3.675781 -2.570312 3.5625 -2.78125 C 3.445312 -2.988281 3.289062 -3.148438 3.09375 -3.265625 C 2.894531 -3.390625 2.675781 -3.453125 2.4375 -3.453125 C 2.195312 -3.453125 1.976562 -3.390625 1.78125 -3.265625 C 1.582031 -3.148438 1.425781 -2.988281 1.3125 -2.78125 C 1.195312 -2.570312 1.140625 -2.34375 1.140625 -2.09375 Z M 1.140625 -2.09375 "/></g></g></g><g fill="rgb(1.959229%, 3.919983%, 18.818665%)" fill-opacity="1"><g transform="translate(48.267893, 68.65967)"><g><path d="M 4.046875 0.1875 L 3.046875 -2.3125 L 1.875 0.1875 L 0.1875 -4.1875 L 1.15625 -4.1875 L 1.984375 -1.75 L 2.625 -3.34375 L 2.296875 -4.1875 L 3.109375 -4.1875 L 4.0625 -1.84375 L 4.78125 -4.1875 L 5.671875 -4.1875 Z M 4.046875 0.1875 "/></g></g></g><g fill="rgb(1.959229%, 3.919983%, 18.818665%)" fill-opacity="1"><g transform="translate(54.115802, 68.65967)"><g/></g></g><g fill="rgb(1.959229%, 3.919983%, 18.818665%)" fill-opacity="1"><g transform="translate(55.973642, 68.65967)"><g><path d="M 3.171875 -4.203125 L 3.171875 -3.40625 L 1.375 -3.40625 L 1.375 -2.453125 L 2.9375 -2.453125 L 2.9375 -1.65625 L 1.375 -1.65625 L 1.375 0 L 0.546875 0 L 0.546875 -4.203125 Z M 3.171875 -4.203125 "/></g></g></g><g fill="rgb(1.959229%, 3.919983%, 18.818665%)" fill-opacity="1"><g transform="translate(59.403501, 68.65967)"><g><path d="M 1.375 -4.203125 L 1.375 0 L 0.546875 0 L 0.546875 -4.203125 Z M 1.375 -4.203125 "/></g></g></g><g fill="rgb(1.959229%, 3.919983%, 18.818665%)" fill-opacity="1"><g transform="translate(61.318503, 68.65967)"><g><path d="M 4.328125 -4.203125 L 4.328125 0.171875 L 4.3125 0.171875 L 1.359375 -2.484375 L 1.390625 0 L 0.546875 0 L 0.546875 -4.375 L 0.578125 -4.375 L 3.515625 -1.671875 L 3.5 -4.203125 Z M 4.328125 -4.203125 "/></g></g></g><g fill="rgb(1.959229%, 3.919983%, 18.818665%)" fill-opacity="1"><g transform="translate(66.19462, 68.65967)"><g><path d="M 0.546875 -4.203125 L 1.796875 -4.203125 C 2.335938 -4.203125 2.78125 -4.097656 3.125 -3.890625 C 3.476562 -3.679688 3.734375 -3.410156 3.890625 -3.078125 C 4.046875 -2.753906 4.125 -2.40625 4.125 -2.03125 C 4.125 -1.625 4.023438 -1.265625 3.828125 -0.953125 C 3.640625 -0.648438 3.382812 -0.414062 3.0625 -0.25 C 2.738281 -0.0820312 2.382812 0 2 0 L 0.546875 0 Z M 1.859375 -0.796875 C 2.296875 -0.796875 2.640625 -0.90625 2.890625 -1.125 C 3.140625 -1.351562 3.265625 -1.675781 3.265625 -2.09375 C 3.265625 -2.425781 3.191406 -2.691406 3.046875 -2.890625 C 2.910156 -3.085938 2.75 -3.222656 2.5625 -3.296875 C 2.382812 -3.378906 2.210938 -3.421875 2.046875 -3.421875 L 1.375 -3.421875 L 1.375 -0.796875 Z M 1.859375 -0.796875 "/></g></g></g><g fill="rgb(1.959229%, 3.919983%, 18.818665%)" fill-opacity="1"><g transform="translate(70.601988, 68.65967)"><g><path d="M 3.421875 -4.203125 L 3.421875 -3.40625 L 1.375 -3.40625 L 1.375 -2.515625 L 3.171875 -2.515625 L 3.171875 -1.703125 L 1.375 -1.703125 L 1.375 -0.796875 L 3.5 -0.796875 L 3.5 0 L 0.546875 0 L 0.546875 -4.203125 Z M 3.421875 -4.203125 "/></g></g></g><g fill="rgb(1.959229%, 3.919983%, 18.818665%)" fill-opacity="1"><g transform="translate(74.409131, 68.65967)"><g><path d="M 2.8125 0 L 1.921875 -1.34375 L 1.375 -1.34375 L 1.375 0 L 0.546875 0 L 0.546875 -4.203125 L 1.8125 -4.203125 C 2.34375 -4.203125 2.75 -4.078125 3.03125 -3.828125 C 3.320312 -3.578125 3.46875 -3.234375 3.46875 -2.796875 C 3.46875 -2.535156 3.410156 -2.289062 3.296875 -2.0625 C 3.191406 -1.832031 3.023438 -1.65625 2.796875 -1.53125 L 3.78125 0 Z M 1.375 -2.140625 L 1.96875 -2.140625 C 2.1875 -2.140625 2.347656 -2.203125 2.453125 -2.328125 C 2.554688 -2.460938 2.609375 -2.609375 2.609375 -2.765625 C 2.609375 -2.910156 2.5625 -3.050781 2.46875 -3.1875 C 2.382812 -3.332031 2.21875 -3.40625 1.96875 -3.40625 L 1.375 -3.40625 Z M 1.375 -2.140625 "/></g></g></g></svg>