<svg xmlns="http://www.w3.org/2000/svg" xmlns:xlink="http://www.w3.org/1999/xlink" width="250" zoomAndPan="magnify" viewBox="0 0 187.5 30.000001" height="40" preserveAspectRatio="xMidYMid meet" version="1.0"><defs><g><g id="id1"/></g><clipPath id="id2"><path d="M 2.78125 0 L 184.234375 0 L 184.234375 29.03125 L 2.78125 29.03125 Z M 2.78125 0 " clip-rule="nonzero"/></clipPath></defs><g clip-path="url(#id2)"><path fill="rgb(100%, 100%, 100%)" d="M 2.78125 0 L 184.71875 0 L 184.71875 36.386719 L 2.78125 36.386719 Z M 2.78125 0 " fill-opacity="1" fill-rule="nonzero"/><path fill="rgb(98.039246%, 99.609375%, 100%)" d="M 2.78125 0 L 184.71875 0 L 184.71875 29.109375 L 2.78125 29.109375 Z M 2.78125 0 " fill-opacity="1" fill-rule="nonzero"/><path fill="rgb(100%, 100%, 100%)" d="M 2.78125 0 L 184.71875 0 L 184.71875 29.109375 L 2.78125 29.109375 Z M 2.78125 0 " fill-opacity="1" fill-rule="nonzero"/><path fill="rgb(98.039246%, 99.609375%, 100%)" d="M 2.78125 0 L 184.71875 0 L 184.71875 29.109375 L 2.78125 29.109375 Z M 2.78125 0 " fill-opacity="1" fill-rule="nonzero"/></g><g fill="rgb(32.939148%, 32.939148%, 32.939148%)" fill-opacity="1"><g transform="translate(35.869065, 21.686754)"><g><path d="M 12.390625 0 L 12.390625 -9.25 L 9.078125 -3.5 L 7.46875 -3.5 L 4.203125 -9.25 L 4.203125 0 L 1.5 0 L 1.5 -13.765625 L 4.71875 -13.765625 L 8.3125 -7.234375 L 11.9375 -13.765625 L 15.109375 -13.765625 L 15.109375 0 Z M 12.390625 0 "/></g></g><g transform="translate(52.455042, 21.686754)"><g><path d="M 3.5625 -4.546875 C 3.601562 -3.617188 3.828125 -2.953125 4.234375 -2.546875 C 4.640625 -2.140625 5.273438 -1.9375 6.140625 -1.9375 C 6.648438 -1.9375 7.09375 -2 7.46875 -2.125 C 7.851562 -2.25 8.1875 -2.492188 8.46875 -2.859375 L 10.390625 -1.5 C 9.972656 -0.894531 9.429688 -0.441406 8.765625 -0.140625 C 8.097656 0.160156 7.1875 0.3125 6.03125 0.3125 C 4.3125 0.3125 3.03125 -0.132812 2.1875 -1.03125 C 1.34375 -1.9375 0.921875 -3.304688 0.921875 -5.140625 C 0.921875 -8.867188 2.585938 -10.734375 5.921875 -10.734375 C 7.410156 -10.734375 8.546875 -10.3125 9.328125 -9.46875 C 10.109375 -8.632812 10.5 -7.414062 10.5 -5.8125 L 10.5 -4.546875 Z M 7.953125 -6.3125 C 7.953125 -7.894531 7.257812 -8.6875 5.875 -8.6875 C 5.414062 -8.6875 5.039062 -8.609375 4.75 -8.453125 C 4.457031 -8.304688 4.222656 -8.078125 4.046875 -7.765625 C 3.867188 -7.453125 3.726562 -6.96875 3.625 -6.3125 Z M 7.953125 -6.3125 "/></g></g><g transform="translate(63.82743, 21.686754)"><g><path d="M 10.921875 -5.1875 C 10.921875 -3.457031 10.519531 -2.109375 9.71875 -1.140625 C 8.914062 -0.171875 7.648438 0.3125 5.921875 0.3125 C 2.585938 0.3125 0.921875 -1.519531 0.921875 -5.1875 C 0.921875 -6.957031 1.320312 -8.320312 2.125 -9.28125 C 2.925781 -10.25 4.191406 -10.734375 5.921875 -10.734375 C 7.648438 -10.734375 8.914062 -10.25 9.71875 -9.28125 C 10.519531 -8.320312 10.921875 -6.957031 10.921875 -5.1875 Z M 8.265625 -5.1875 C 8.265625 -6.34375 8.082031 -7.179688 7.71875 -7.703125 C 7.363281 -8.234375 6.765625 -8.5 5.921875 -8.5 C 5.085938 -8.5 4.484375 -8.226562 4.109375 -7.6875 C 3.742188 -7.144531 3.5625 -6.3125 3.5625 -5.1875 C 3.5625 -4.070312 3.742188 -3.25 4.109375 -2.71875 C 4.484375 -2.195312 5.085938 -1.9375 5.921875 -1.9375 C 6.753906 -1.9375 7.351562 -2.195312 7.71875 -2.71875 C 8.082031 -3.238281 8.265625 -4.0625 8.265625 -5.1875 Z M 8.265625 -5.1875 "/></g></g><g transform="translate(75.66745, 21.686754)"><g><path d="M 12.5 0 L 10.171875 0 L 7.8125 -6.640625 L 5.46875 0 L 3.109375 0 L 0.265625 -10.4375 L 2.9375 -10.4375 L 4.546875 -3.703125 L 6.890625 -10.4375 L 8.828125 -10.4375 L 11.1875 -3.765625 L 12.734375 -10.4375 L 15.296875 -10.4375 Z M 12.5 0 "/></g></g><g transform="translate(91.238568, 21.686754)"><g><path d="M 4.296875 -11.203125 L 4.296875 -8.234375 L 9.375 -8.234375 L 9.375 -5.75 L 4.296875 -5.75 L 4.296875 0 L 1.5 0 L 1.5 -13.765625 L 10.34375 -13.765625 L 10.34375 -11.203125 Z M 4.296875 -11.203125 "/></g></g><g transform="translate(102.222922, 21.686754)"><g><path d="M 4.15625 -13.28125 C 4.15625 -12.800781 4.035156 -12.460938 3.796875 -12.265625 C 3.554688 -12.078125 3.191406 -11.984375 2.703125 -11.984375 C 2.160156 -11.984375 1.789062 -12.09375 1.59375 -12.3125 C 1.394531 -12.539062 1.296875 -12.863281 1.296875 -13.28125 C 1.296875 -13.75 1.398438 -14.082031 1.609375 -14.28125 C 1.828125 -14.476562 2.191406 -14.578125 2.703125 -14.578125 C 3.222656 -14.578125 3.59375 -14.476562 3.8125 -14.28125 C 4.039062 -14.09375 4.15625 -13.757812 4.15625 -13.28125 Z M 1.4375 0 L 1.4375 -10.4375 L 4.015625 -10.4375 L 4.015625 0 Z M 1.4375 0 "/></g></g><g transform="translate(107.685251, 21.686754)"><g><path d="M 8.171875 0 L 8.171875 -5.75 C 8.171875 -6.832031 8.070312 -7.554688 7.875 -7.921875 C 7.675781 -8.285156 7.304688 -8.46875 6.765625 -8.46875 C 6.003906 -8.46875 5.085938 -7.96875 4.015625 -6.96875 L 4.015625 0 L 1.4375 0 L 1.4375 -10.4375 L 4.015625 -10.4375 L 4.015625 -9.078125 C 4.554688 -9.628906 5.132812 -10.039062 5.75 -10.3125 C 6.363281 -10.59375 6.96875 -10.734375 7.5625 -10.734375 C 8.625 -10.734375 9.414062 -10.441406 9.9375 -9.859375 C 10.46875 -9.273438 10.734375 -8.3125 10.734375 -6.96875 L 10.734375 0 Z M 8.171875 0 "/></g></g><g transform="translate(119.793909, 21.686754)"><g><path d="M 8.296875 0 L 8.296875 -1.015625 C 7.816406 -0.609375 7.3125 -0.285156 6.78125 -0.046875 C 6.25 0.191406 5.644531 0.3125 4.96875 0.3125 C 3.65625 0.3125 2.648438 -0.160156 1.953125 -1.109375 C 1.265625 -2.054688 0.921875 -3.398438 0.921875 -5.140625 C 0.921875 -6.910156 1.300781 -8.285156 2.0625 -9.265625 C 2.832031 -10.242188 3.910156 -10.734375 5.296875 -10.734375 C 5.785156 -10.734375 6.285156 -10.628906 6.796875 -10.421875 C 7.316406 -10.222656 7.75 -9.96875 8.09375 -9.65625 L 8.09375 -14.8125 L 10.65625 -14.8125 L 10.65625 0 Z M 8.09375 -7.546875 C 7.820312 -7.785156 7.484375 -8 7.078125 -8.1875 C 6.679688 -8.375 6.269531 -8.46875 5.84375 -8.46875 C 5.15625 -8.46875 4.601562 -8.171875 4.1875 -7.578125 C 3.769531 -6.992188 3.5625 -6.191406 3.5625 -5.171875 C 3.5625 -4.171875 3.734375 -3.382812 4.078125 -2.8125 C 4.421875 -2.238281 4.945312 -1.953125 5.65625 -1.953125 C 6.082031 -1.953125 6.515625 -2.050781 6.953125 -2.25 C 7.398438 -2.445312 7.78125 -2.6875 8.09375 -2.96875 Z M 8.09375 -7.546875 "/></g></g><g transform="translate(131.902568, 21.686754)"><g><path d="M 3.5625 -4.546875 C 3.601562 -3.617188 3.828125 -2.953125 4.234375 -2.546875 C 4.640625 -2.140625 5.273438 -1.9375 6.140625 -1.9375 C 6.648438 -1.9375 7.09375 -2 7.46875 -2.125 C 7.851562 -2.25 8.1875 -2.492188 8.46875 -2.859375 L 10.390625 -1.5 C 9.972656 -0.894531 9.429688 -0.441406 8.765625 -0.140625 C 8.097656 0.160156 7.1875 0.3125 6.03125 0.3125 C 4.3125 0.3125 3.03125 -0.132812 2.1875 -1.03125 C 1.34375 -1.9375 0.921875 -3.304688 0.921875 -5.140625 C 0.921875 -8.867188 2.585938 -10.734375 5.921875 -10.734375 C 7.410156 -10.734375 8.546875 -10.3125 9.328125 -9.46875 C 10.109375 -8.632812 10.5 -7.414062 10.5 -5.8125 L 10.5 -4.546875 Z M 7.953125 -6.3125 C 7.953125 -7.894531 7.257812 -8.6875 5.875 -8.6875 C 5.414062 -8.6875 5.039062 -8.609375 4.75 -8.453125 C 4.457031 -8.304688 4.222656 -8.078125 4.046875 -7.765625 C 3.867188 -7.453125 3.726562 -6.96875 3.625 -6.3125 Z M 7.953125 -6.3125 "/></g></g><g transform="translate(143.274956, 21.686754)"><g><path d="M 7.734375 -7.921875 C 7.472656 -8.054688 7.125 -8.125 6.6875 -8.125 C 6.207031 -8.125 5.753906 -8.007812 5.328125 -7.78125 C 4.898438 -7.550781 4.460938 -7.21875 4.015625 -6.78125 L 4.015625 0 L 1.4375 0 L 1.4375 -10.4375 L 4.015625 -10.4375 L 4.015625 -8.9375 C 4.453125 -9.414062 4.921875 -9.8125 5.421875 -10.125 C 5.921875 -10.4375 6.484375 -10.59375 7.109375 -10.59375 C 7.640625 -10.59375 8.019531 -10.523438 8.25 -10.390625 Z M 7.734375 -7.921875 "/></g></g></g></svg>